<mxfile host="app.diagrams.net" agent="Mozilla/5.0 (Windows NT 10.0; Win64; x64) AppleWebKit/537.36 (KHTML, like Gecko) Chrome/130.0.0.0 Safari/537.36" version="24.8.4" pages="3">
  <diagram id="C5RBs43oDa-KdzZeNtuy" name="Member">
    <mxGraphModel grid="1" page="1" gridSize="10" guides="1" tooltips="1" connect="1" arrows="1" fold="1" pageScale="1" pageWidth="10000" pageHeight="10000" math="0" shadow="0">
      <root>
        <mxCell id="WIyWlLk6GJQsqaUBKTNV-0" />
        <mxCell id="WIyWlLk6GJQsqaUBKTNV-1" parent="WIyWlLk6GJQsqaUBKTNV-0" />
        <mxCell id="zkfFHV4jXpPFQw0GAbJ--0" value="HttpServlet" style="swimlane;fontStyle=2;align=center;verticalAlign=top;childLayout=stackLayout;horizontal=1;startSize=26;horizontalStack=0;resizeParent=1;resizeLast=0;collapsible=1;marginBottom=0;rounded=0;shadow=0;strokeWidth=1;" vertex="1" parent="WIyWlLk6GJQsqaUBKTNV-1">
          <mxGeometry x="-1110" y="110" width="320" height="170" as="geometry">
            <mxRectangle x="230" y="140" width="160" height="26" as="alternateBounds" />
          </mxGeometry>
        </mxCell>
        <mxCell id="zkfFHV4jXpPFQw0GAbJ--4" value="" style="line;html=1;strokeWidth=1;align=left;verticalAlign=middle;spacingTop=-1;spacingLeft=3;spacingRight=3;rotatable=0;labelPosition=right;points=[];portConstraint=eastwest;" vertex="1" parent="zkfFHV4jXpPFQw0GAbJ--0">
          <mxGeometry y="26" width="320" height="8" as="geometry" />
        </mxCell>
        <mxCell id="UNFJWOQAjY6bLhT2jbcz-5" value="DBConnection" style="swimlane;whiteSpace=wrap;html=1;" vertex="1" parent="WIyWlLk6GJQsqaUBKTNV-1">
          <mxGeometry x="295" y="-560" width="200" height="100" as="geometry" />
        </mxCell>
        <mxCell id="UNFJWOQAjY6bLhT2jbcz-6" value="&lt;u&gt;+getConnection() : Connection&lt;/u&gt;" style="text;html=1;align=center;verticalAlign=middle;resizable=0;points=[];autosize=1;strokeColor=none;fillColor=none;" vertex="1" parent="UNFJWOQAjY6bLhT2jbcz-5">
          <mxGeometry x="5" y="60" width="190" height="30" as="geometry" />
        </mxCell>
        <mxCell id="UNFJWOQAjY6bLhT2jbcz-7" value="" style="endArrow=none;html=1;rounded=0;" edge="1" parent="UNFJWOQAjY6bLhT2jbcz-5">
          <mxGeometry width="50" height="50" relative="1" as="geometry">
            <mxPoint y="50" as="sourcePoint" />
            <mxPoint x="200" y="50" as="targetPoint" />
          </mxGeometry>
        </mxCell>
        <mxCell id="UNFJWOQAjY6bLhT2jbcz-224" style="edgeStyle=orthogonalEdgeStyle;rounded=0;orthogonalLoop=1;jettySize=auto;html=1;dashed=1;endArrow=open;endFill=0;" edge="1" parent="WIyWlLk6GJQsqaUBKTNV-1" source="UNFJWOQAjY6bLhT2jbcz-27">
          <mxGeometry relative="1" as="geometry">
            <mxPoint x="360" y="-460" as="targetPoint" />
            <Array as="points">
              <mxPoint x="395" y="-380" />
              <mxPoint x="361" y="-380" />
              <mxPoint x="361" y="-460" />
            </Array>
          </mxGeometry>
        </mxCell>
        <mxCell id="UNFJWOQAjY6bLhT2jbcz-27" value="MemberRepository" style="swimlane;fontStyle=1;align=center;verticalAlign=top;childLayout=stackLayout;horizontal=1;startSize=26;horizontalStack=0;resizeParent=1;resizeParentMax=0;resizeLast=0;collapsible=1;marginBottom=0;whiteSpace=wrap;html=1;" vertex="1" parent="WIyWlLk6GJQsqaUBKTNV-1">
          <mxGeometry x="230" y="-320" width="330" height="210" as="geometry" />
        </mxCell>
        <mxCell id="UNFJWOQAjY6bLhT2jbcz-28" value="&lt;u&gt;- mr : MemberRepository&amp;nbsp;&lt;br&gt;&lt;/u&gt;&lt;div&gt;&lt;div style=&quot;text-wrap-mode: nowrap;&quot;&gt;&amp;nbsp; conn : Connection&lt;/div&gt;&lt;div style=&quot;text-wrap-mode: nowrap;&quot;&gt;&amp;nbsp; pstmt : PrepareStatement&lt;/div&gt;&lt;div style=&quot;text-wrap-mode: nowrap;&quot;&gt;&amp;nbsp; rs : ResultSet&lt;/div&gt;&lt;div style=&quot;text-wrap-mode: nowrap;&quot;&gt;&amp;nbsp;&amp;nbsp;&lt;/div&gt;&lt;/div&gt;" style="text;strokeColor=none;fillColor=none;align=left;verticalAlign=top;spacingLeft=4;spacingRight=4;overflow=hidden;rotatable=0;points=[[0,0.5],[1,0.5]];portConstraint=eastwest;whiteSpace=wrap;html=1;" vertex="1" parent="UNFJWOQAjY6bLhT2jbcz-27">
          <mxGeometry y="26" width="330" height="74" as="geometry" />
        </mxCell>
        <mxCell id="UNFJWOQAjY6bLhT2jbcz-29" value="" style="line;strokeWidth=1;fillColor=none;align=left;verticalAlign=middle;spacingTop=-1;spacingLeft=3;spacingRight=3;rotatable=0;labelPosition=right;points=[];portConstraint=eastwest;strokeColor=inherit;" vertex="1" parent="UNFJWOQAjY6bLhT2jbcz-27">
          <mxGeometry y="100" width="330" height="8" as="geometry" />
        </mxCell>
        <mxCell id="UNFJWOQAjY6bLhT2jbcz-30" value="&lt;br&gt;&lt;div&gt;&lt;div style=&quot;text-wrap-mode: nowrap;&quot;&gt;&lt;u&gt;+ getInstance() : MemberRepository&lt;/u&gt;&lt;/div&gt;&lt;div style=&quot;text-wrap-mode: nowrap;&quot;&gt;+ addMember( mb : Member ) : void&lt;/div&gt;&lt;div style=&quot;text-wrap-mode: nowrap;&quot;&gt;+ getOneObject( id : String, password : String ) : Member&lt;/div&gt;&lt;div style=&quot;text-wrap-mode: nowrap;&quot;&gt;+ updateMember( mb : Member ) : void&lt;/div&gt;&lt;div style=&quot;text-wrap-mode: nowrap;&quot;&gt;+ deleteMember( id : String ) : void&lt;/div&gt;&lt;/div&gt;" style="text;strokeColor=none;fillColor=none;align=left;verticalAlign=top;spacingLeft=4;spacingRight=4;overflow=hidden;rotatable=0;points=[[0,0.5],[1,0.5]];portConstraint=eastwest;whiteSpace=wrap;html=1;" vertex="1" parent="UNFJWOQAjY6bLhT2jbcz-27">
          <mxGeometry y="108" width="330" height="102" as="geometry" />
        </mxCell>
        <mxCell id="UNFJWOQAjY6bLhT2jbcz-53" style="edgeStyle=orthogonalEdgeStyle;rounded=0;orthogonalLoop=1;jettySize=auto;html=1;entryX=1;entryY=0.5;entryDx=0;entryDy=0;endArrow=block;endFill=0;" edge="1" parent="WIyWlLk6GJQsqaUBKTNV-1" source="UNFJWOQAjY6bLhT2jbcz-32" target="zkfFHV4jXpPFQw0GAbJ--0">
          <mxGeometry relative="1" as="geometry" />
        </mxCell>
        <mxCell id="UNFJWOQAjY6bLhT2jbcz-214" style="edgeStyle=orthogonalEdgeStyle;rounded=0;orthogonalLoop=1;jettySize=auto;html=1;entryX=0.5;entryY=1;entryDx=0;entryDy=0;dashed=1;endArrow=open;endFill=0;" edge="1" parent="WIyWlLk6GJQsqaUBKTNV-1" source="UNFJWOQAjY6bLhT2jbcz-32" target="UNFJWOQAjY6bLhT2jbcz-210">
          <mxGeometry relative="1" as="geometry" />
        </mxCell>
        <mxCell id="UNFJWOQAjY6bLhT2jbcz-32" value="LoginMember_Controller" style="swimlane;fontStyle=1;align=center;verticalAlign=top;childLayout=stackLayout;horizontal=1;startSize=26;horizontalStack=0;resizeParent=1;resizeParentMax=0;resizeLast=0;collapsible=1;marginBottom=0;whiteSpace=wrap;html=1;" vertex="1" parent="WIyWlLk6GJQsqaUBKTNV-1">
          <mxGeometry x="-470" y="-80" width="450" height="100" as="geometry" />
        </mxCell>
        <mxCell id="UNFJWOQAjY6bLhT2jbcz-121" style="edgeStyle=orthogonalEdgeStyle;rounded=0;orthogonalLoop=1;jettySize=auto;html=1;dashed=1;endArrow=open;endFill=0;" edge="1" parent="UNFJWOQAjY6bLhT2jbcz-32">
          <mxGeometry relative="1" as="geometry">
            <mxPoint x="820" y="-29" as="targetPoint" />
            <mxPoint x="450" y="30" as="sourcePoint" />
          </mxGeometry>
        </mxCell>
        <mxCell id="UNFJWOQAjY6bLhT2jbcz-33" value="+ field: type" style="text;strokeColor=none;fillColor=none;align=left;verticalAlign=top;spacingLeft=4;spacingRight=4;overflow=hidden;rotatable=0;points=[[0,0.5],[1,0.5]];portConstraint=eastwest;whiteSpace=wrap;html=1;" vertex="1" parent="UNFJWOQAjY6bLhT2jbcz-32">
          <mxGeometry y="26" width="450" height="26" as="geometry" />
        </mxCell>
        <mxCell id="UNFJWOQAjY6bLhT2jbcz-34" value="" style="line;strokeWidth=1;fillColor=none;align=left;verticalAlign=middle;spacingTop=-1;spacingLeft=3;spacingRight=3;rotatable=0;labelPosition=right;points=[];portConstraint=eastwest;strokeColor=inherit;" vertex="1" parent="UNFJWOQAjY6bLhT2jbcz-32">
          <mxGeometry y="52" width="450" height="8" as="geometry" />
        </mxCell>
        <mxCell id="UNFJWOQAjY6bLhT2jbcz-35" value="&lt;span style=&quot;text-wrap-mode: nowrap;&quot;&gt;#doget( request : HttpServletRequest, response : HttpServletResponse ) : void&lt;/span&gt;&lt;div style=&quot;text-wrap-mode: nowrap;&quot;&gt;#doPost(&amp;nbsp;&lt;span style=&quot;background-color: initial;&quot;&gt;request : HttpServletRequest, response : HttpServletResponse ) : void&lt;/span&gt;&lt;/div&gt;" style="text;strokeColor=none;fillColor=none;align=left;verticalAlign=top;spacingLeft=4;spacingRight=4;overflow=hidden;rotatable=0;points=[[0,0.5],[1,0.5]];portConstraint=eastwest;whiteSpace=wrap;html=1;" vertex="1" parent="UNFJWOQAjY6bLhT2jbcz-32">
          <mxGeometry y="60" width="450" height="40" as="geometry" />
        </mxCell>
        <mxCell id="UNFJWOQAjY6bLhT2jbcz-57" style="edgeStyle=orthogonalEdgeStyle;rounded=0;orthogonalLoop=1;jettySize=auto;html=1;entryX=1;entryY=0.5;entryDx=0;entryDy=0;endArrow=block;endFill=0;" edge="1" parent="WIyWlLk6GJQsqaUBKTNV-1" source="UNFJWOQAjY6bLhT2jbcz-36" target="zkfFHV4jXpPFQw0GAbJ--0">
          <mxGeometry relative="1" as="geometry" />
        </mxCell>
        <mxCell id="UNFJWOQAjY6bLhT2jbcz-140" style="edgeStyle=orthogonalEdgeStyle;rounded=0;orthogonalLoop=1;jettySize=auto;html=1;entryX=0.5;entryY=0;entryDx=0;entryDy=0;endArrow=open;endFill=0;dashed=1;" edge="1" parent="WIyWlLk6GJQsqaUBKTNV-1" source="UNFJWOQAjY6bLhT2jbcz-36">
          <mxGeometry relative="1" as="geometry">
            <mxPoint x="140" y="690" as="targetPoint" />
          </mxGeometry>
        </mxCell>
        <mxCell id="UNFJWOQAjY6bLhT2jbcz-36" value="LogoutMember_Controller" style="swimlane;fontStyle=1;align=center;verticalAlign=top;childLayout=stackLayout;horizontal=1;startSize=26;horizontalStack=0;resizeParent=1;resizeParentMax=0;resizeLast=0;collapsible=1;marginBottom=0;whiteSpace=wrap;html=1;" vertex="1" parent="WIyWlLk6GJQsqaUBKTNV-1">
          <mxGeometry x="-470" y="490" width="450" height="100" as="geometry" />
        </mxCell>
        <mxCell id="UNFJWOQAjY6bLhT2jbcz-37" value="+ field: type" style="text;strokeColor=none;fillColor=none;align=left;verticalAlign=top;spacingLeft=4;spacingRight=4;overflow=hidden;rotatable=0;points=[[0,0.5],[1,0.5]];portConstraint=eastwest;whiteSpace=wrap;html=1;" vertex="1" parent="UNFJWOQAjY6bLhT2jbcz-36">
          <mxGeometry y="26" width="450" height="26" as="geometry" />
        </mxCell>
        <mxCell id="UNFJWOQAjY6bLhT2jbcz-38" value="" style="line;strokeWidth=1;fillColor=none;align=left;verticalAlign=middle;spacingTop=-1;spacingLeft=3;spacingRight=3;rotatable=0;labelPosition=right;points=[];portConstraint=eastwest;strokeColor=inherit;" vertex="1" parent="UNFJWOQAjY6bLhT2jbcz-36">
          <mxGeometry y="52" width="450" height="8" as="geometry" />
        </mxCell>
        <mxCell id="UNFJWOQAjY6bLhT2jbcz-39" value="&lt;span style=&quot;text-wrap-mode: nowrap;&quot;&gt;#doget( request : HttpServletRequest, response : HttpServletResponse ) : void&lt;/span&gt;&lt;div style=&quot;text-wrap-mode: nowrap;&quot;&gt;#doPost(&amp;nbsp;&lt;span style=&quot;background-color: initial;&quot;&gt;request : HttpServletRequest, response : HttpServletResponse ) : void&lt;/span&gt;&lt;/div&gt;" style="text;strokeColor=none;fillColor=none;align=left;verticalAlign=top;spacingLeft=4;spacingRight=4;overflow=hidden;rotatable=0;points=[[0,0.5],[1,0.5]];portConstraint=eastwest;whiteSpace=wrap;html=1;" vertex="1" parent="UNFJWOQAjY6bLhT2jbcz-36">
          <mxGeometry y="60" width="450" height="40" as="geometry" />
        </mxCell>
        <mxCell id="UNFJWOQAjY6bLhT2jbcz-56" style="edgeStyle=orthogonalEdgeStyle;rounded=0;orthogonalLoop=1;jettySize=auto;html=1;entryX=1;entryY=0.5;entryDx=0;entryDy=0;endArrow=block;endFill=0;" edge="1" parent="WIyWlLk6GJQsqaUBKTNV-1" source="UNFJWOQAjY6bLhT2jbcz-40" target="zkfFHV4jXpPFQw0GAbJ--0">
          <mxGeometry relative="1" as="geometry" />
        </mxCell>
        <mxCell id="UNFJWOQAjY6bLhT2jbcz-108" style="edgeStyle=orthogonalEdgeStyle;rounded=0;orthogonalLoop=1;jettySize=auto;html=1;endArrow=open;endFill=0;dashed=1;exitX=1;exitY=0.5;exitDx=0;exitDy=0;" edge="1" parent="WIyWlLk6GJQsqaUBKTNV-1" source="UNFJWOQAjY6bLhT2jbcz-41">
          <mxGeometry relative="1" as="geometry">
            <mxPoint x="382" y="-109" as="targetPoint" />
            <mxPoint x="-28" y="381" as="sourcePoint" />
          </mxGeometry>
        </mxCell>
        <mxCell id="UNFJWOQAjY6bLhT2jbcz-40" value="DeleteMember_Controller" style="swimlane;fontStyle=1;align=center;verticalAlign=top;childLayout=stackLayout;horizontal=1;startSize=26;horizontalStack=0;resizeParent=1;resizeParentMax=0;resizeLast=0;collapsible=1;marginBottom=0;whiteSpace=wrap;html=1;" vertex="1" parent="WIyWlLk6GJQsqaUBKTNV-1">
          <mxGeometry x="-470" y="340" width="450" height="100" as="geometry" />
        </mxCell>
        <mxCell id="UNFJWOQAjY6bLhT2jbcz-41" value="+ field: type" style="text;strokeColor=none;fillColor=none;align=left;verticalAlign=top;spacingLeft=4;spacingRight=4;overflow=hidden;rotatable=0;points=[[0,0.5],[1,0.5]];portConstraint=eastwest;whiteSpace=wrap;html=1;" vertex="1" parent="UNFJWOQAjY6bLhT2jbcz-40">
          <mxGeometry y="26" width="450" height="26" as="geometry" />
        </mxCell>
        <mxCell id="UNFJWOQAjY6bLhT2jbcz-42" value="" style="line;strokeWidth=1;fillColor=none;align=left;verticalAlign=middle;spacingTop=-1;spacingLeft=3;spacingRight=3;rotatable=0;labelPosition=right;points=[];portConstraint=eastwest;strokeColor=inherit;" vertex="1" parent="UNFJWOQAjY6bLhT2jbcz-40">
          <mxGeometry y="52" width="450" height="8" as="geometry" />
        </mxCell>
        <mxCell id="UNFJWOQAjY6bLhT2jbcz-43" value="&lt;span style=&quot;text-wrap-mode: nowrap;&quot;&gt;#doget( request : HttpServletRequest, response : HttpServletResponse ) : void&lt;/span&gt;&lt;div style=&quot;text-wrap-mode: nowrap;&quot;&gt;#doPost(&amp;nbsp;&lt;span style=&quot;background-color: initial;&quot;&gt;request : HttpServletRequest, response : HttpServletResponse ) : void&lt;/span&gt;&lt;/div&gt;" style="text;strokeColor=none;fillColor=none;align=left;verticalAlign=top;spacingLeft=4;spacingRight=4;overflow=hidden;rotatable=0;points=[[0,0.5],[1,0.5]];portConstraint=eastwest;whiteSpace=wrap;html=1;" vertex="1" parent="UNFJWOQAjY6bLhT2jbcz-40">
          <mxGeometry y="60" width="450" height="40" as="geometry" />
        </mxCell>
        <mxCell id="UNFJWOQAjY6bLhT2jbcz-55" style="edgeStyle=orthogonalEdgeStyle;rounded=0;orthogonalLoop=1;jettySize=auto;html=1;entryX=1;entryY=0.5;entryDx=0;entryDy=0;endArrow=block;endFill=0;" edge="1" parent="WIyWlLk6GJQsqaUBKTNV-1" source="UNFJWOQAjY6bLhT2jbcz-44" target="zkfFHV4jXpPFQw0GAbJ--0">
          <mxGeometry relative="1" as="geometry" />
        </mxCell>
        <mxCell id="UNFJWOQAjY6bLhT2jbcz-107" style="edgeStyle=orthogonalEdgeStyle;rounded=0;orthogonalLoop=1;jettySize=auto;html=1;endArrow=open;endFill=0;dashed=1;exitX=1;exitY=0.5;exitDx=0;exitDy=0;" edge="1" parent="WIyWlLk6GJQsqaUBKTNV-1" source="UNFJWOQAjY6bLhT2jbcz-45">
          <mxGeometry relative="1" as="geometry">
            <mxPoint x="372" y="-109" as="targetPoint" />
            <mxPoint x="-38" y="241" as="sourcePoint" />
          </mxGeometry>
        </mxCell>
        <mxCell id="UNFJWOQAjY6bLhT2jbcz-148" style="edgeStyle=orthogonalEdgeStyle;rounded=0;orthogonalLoop=1;jettySize=auto;html=1;endArrow=open;endFill=0;dashed=1;" edge="1" parent="WIyWlLk6GJQsqaUBKTNV-1" source="UNFJWOQAjY6bLhT2jbcz-44">
          <mxGeometry relative="1" as="geometry">
            <mxPoint x="160" y="690.0000000000005" as="targetPoint" />
          </mxGeometry>
        </mxCell>
        <mxCell id="UNFJWOQAjY6bLhT2jbcz-221" style="edgeStyle=orthogonalEdgeStyle;rounded=0;orthogonalLoop=1;jettySize=auto;html=1;entryX=0;entryY=0.5;entryDx=0;entryDy=0;endArrow=open;endFill=0;dashed=1;" edge="1" parent="WIyWlLk6GJQsqaUBKTNV-1" source="UNFJWOQAjY6bLhT2jbcz-44" target="UNFJWOQAjY6bLhT2jbcz-61">
          <mxGeometry relative="1" as="geometry" />
        </mxCell>
        <mxCell id="UNFJWOQAjY6bLhT2jbcz-44" value="UpdateMember_Controller" style="swimlane;fontStyle=1;align=center;verticalAlign=top;childLayout=stackLayout;horizontal=1;startSize=26;horizontalStack=0;resizeParent=1;resizeParentMax=0;resizeLast=0;collapsible=1;marginBottom=0;whiteSpace=wrap;html=1;" vertex="1" parent="WIyWlLk6GJQsqaUBKTNV-1">
          <mxGeometry x="-470" y="200" width="450" height="100" as="geometry" />
        </mxCell>
        <mxCell id="UNFJWOQAjY6bLhT2jbcz-45" value="+ field: type" style="text;strokeColor=none;fillColor=none;align=left;verticalAlign=top;spacingLeft=4;spacingRight=4;overflow=hidden;rotatable=0;points=[[0,0.5],[1,0.5]];portConstraint=eastwest;whiteSpace=wrap;html=1;" vertex="1" parent="UNFJWOQAjY6bLhT2jbcz-44">
          <mxGeometry y="26" width="450" height="26" as="geometry" />
        </mxCell>
        <mxCell id="UNFJWOQAjY6bLhT2jbcz-46" value="" style="line;strokeWidth=1;fillColor=none;align=left;verticalAlign=middle;spacingTop=-1;spacingLeft=3;spacingRight=3;rotatable=0;labelPosition=right;points=[];portConstraint=eastwest;strokeColor=inherit;" vertex="1" parent="UNFJWOQAjY6bLhT2jbcz-44">
          <mxGeometry y="52" width="450" height="8" as="geometry" />
        </mxCell>
        <mxCell id="UNFJWOQAjY6bLhT2jbcz-47" value="&lt;span style=&quot;text-wrap-mode: nowrap;&quot;&gt;#doget( request : HttpServletRequest, response : HttpServletResponse ) : void&lt;/span&gt;&lt;div style=&quot;text-wrap-mode: nowrap;&quot;&gt;#doPost(&amp;nbsp;&lt;span style=&quot;background-color: initial;&quot;&gt;request : HttpServletRequest, response : HttpServletResponse ) : void&lt;/span&gt;&lt;/div&gt;" style="text;strokeColor=none;fillColor=none;align=left;verticalAlign=top;spacingLeft=4;spacingRight=4;overflow=hidden;rotatable=0;points=[[0,0.5],[1,0.5]];portConstraint=eastwest;whiteSpace=wrap;html=1;" vertex="1" parent="UNFJWOQAjY6bLhT2jbcz-44">
          <mxGeometry y="60" width="450" height="40" as="geometry" />
        </mxCell>
        <mxCell id="UNFJWOQAjY6bLhT2jbcz-54" style="edgeStyle=orthogonalEdgeStyle;rounded=0;orthogonalLoop=1;jettySize=auto;html=1;entryX=1;entryY=0.5;entryDx=0;entryDy=0;endArrow=block;endFill=0;" edge="1" parent="WIyWlLk6GJQsqaUBKTNV-1" source="UNFJWOQAjY6bLhT2jbcz-48" target="zkfFHV4jXpPFQw0GAbJ--0">
          <mxGeometry relative="1" as="geometry" />
        </mxCell>
        <mxCell id="UNFJWOQAjY6bLhT2jbcz-104" style="edgeStyle=orthogonalEdgeStyle;rounded=0;orthogonalLoop=1;jettySize=auto;html=1;endArrow=open;endFill=0;dashed=1;exitX=1;exitY=0.5;exitDx=0;exitDy=0;" edge="1" parent="WIyWlLk6GJQsqaUBKTNV-1" source="UNFJWOQAjY6bLhT2jbcz-49">
          <mxGeometry relative="1" as="geometry">
            <mxPoint x="361" y="-109" as="targetPoint" />
            <mxPoint x="-49" y="101" as="sourcePoint" />
          </mxGeometry>
        </mxCell>
        <mxCell id="UNFJWOQAjY6bLhT2jbcz-157" style="edgeStyle=orthogonalEdgeStyle;rounded=0;orthogonalLoop=1;jettySize=auto;html=1;entryX=0.429;entryY=0;entryDx=0;entryDy=0;dashed=1;endArrow=open;endFill=0;entryPerimeter=0;" edge="1" parent="WIyWlLk6GJQsqaUBKTNV-1" source="UNFJWOQAjY6bLhT2jbcz-48" target="UNFJWOQAjY6bLhT2jbcz-171">
          <mxGeometry relative="1" as="geometry">
            <mxPoint x="290.00000000000045" y="690" as="targetPoint" />
          </mxGeometry>
        </mxCell>
        <mxCell id="UNFJWOQAjY6bLhT2jbcz-48" value="AddMember_Controller" style="swimlane;fontStyle=1;align=center;verticalAlign=top;childLayout=stackLayout;horizontal=1;startSize=26;horizontalStack=0;resizeParent=1;resizeParentMax=0;resizeLast=0;collapsible=1;marginBottom=0;whiteSpace=wrap;html=1;" vertex="1" parent="WIyWlLk6GJQsqaUBKTNV-1">
          <mxGeometry x="-470" y="60" width="450" height="100" as="geometry" />
        </mxCell>
        <mxCell id="UNFJWOQAjY6bLhT2jbcz-49" value="+ field: type" style="text;strokeColor=none;fillColor=none;align=left;verticalAlign=top;spacingLeft=4;spacingRight=4;overflow=hidden;rotatable=0;points=[[0,0.5],[1,0.5]];portConstraint=eastwest;whiteSpace=wrap;html=1;" vertex="1" parent="UNFJWOQAjY6bLhT2jbcz-48">
          <mxGeometry y="26" width="450" height="26" as="geometry" />
        </mxCell>
        <mxCell id="UNFJWOQAjY6bLhT2jbcz-50" value="" style="line;strokeWidth=1;fillColor=none;align=left;verticalAlign=middle;spacingTop=-1;spacingLeft=3;spacingRight=3;rotatable=0;labelPosition=right;points=[];portConstraint=eastwest;strokeColor=inherit;" vertex="1" parent="UNFJWOQAjY6bLhT2jbcz-48">
          <mxGeometry y="52" width="450" height="8" as="geometry" />
        </mxCell>
        <mxCell id="UNFJWOQAjY6bLhT2jbcz-51" value="&lt;span style=&quot;text-wrap-mode: nowrap;&quot;&gt;#doget( request : HttpServletRequest, response : HttpServletResponse ) : void&lt;/span&gt;&lt;div style=&quot;text-wrap-mode: nowrap;&quot;&gt;#doPost(&amp;nbsp;&lt;span style=&quot;background-color: initial;&quot;&gt;request : HttpServletRequest, response : HttpServletResponse ) : void&lt;/span&gt;&lt;/div&gt;" style="text;strokeColor=none;fillColor=none;align=left;verticalAlign=top;spacingLeft=4;spacingRight=4;overflow=hidden;rotatable=0;points=[[0,0.5],[1,0.5]];portConstraint=eastwest;whiteSpace=wrap;html=1;" vertex="1" parent="UNFJWOQAjY6bLhT2jbcz-48">
          <mxGeometry y="60" width="450" height="40" as="geometry" />
        </mxCell>
        <mxCell id="UNFJWOQAjY6bLhT2jbcz-58" value="Member" style="swimlane;fontStyle=1;align=center;verticalAlign=top;childLayout=stackLayout;horizontal=1;startSize=26;horizontalStack=0;resizeParent=1;resizeParentMax=0;resizeLast=0;collapsible=1;marginBottom=0;whiteSpace=wrap;html=1;" vertex="1" parent="WIyWlLk6GJQsqaUBKTNV-1">
          <mxGeometry x="850" y="-200" width="220" height="470" as="geometry" />
        </mxCell>
        <mxCell id="UNFJWOQAjY6bLhT2jbcz-59" value="&lt;span style=&quot;text-wrap-mode: nowrap;&quot;&gt;- id : String&lt;/span&gt;&lt;div style=&quot;text-wrap-mode: nowrap;&quot;&gt;- password : String&lt;/div&gt;&lt;div style=&quot;text-wrap-mode: nowrap;&quot;&gt;- name : String&lt;/div&gt;&lt;div style=&quot;text-wrap-mode: nowrap;&quot;&gt;- gender : String&lt;/div&gt;&lt;div style=&quot;text-wrap-mode: nowrap;&quot;&gt;- birth : String&lt;/div&gt;&lt;div style=&quot;text-wrap-mode: nowrap;&quot;&gt;- mail : String&lt;/div&gt;&lt;div style=&quot;text-wrap-mode: nowrap;&quot;&gt;- phone : String&lt;/div&gt;&lt;div style=&quot;text-wrap-mode: nowrap;&quot;&gt;- address : String&lt;/div&gt;&lt;div style=&quot;text-wrap-mode: nowrap;&quot;&gt;- regist_day : Timestamp&lt;/div&gt;" style="text;strokeColor=none;fillColor=none;align=left;verticalAlign=top;spacingLeft=4;spacingRight=4;overflow=hidden;rotatable=0;points=[[0,0.5],[1,0.5]];portConstraint=eastwest;whiteSpace=wrap;html=1;" vertex="1" parent="UNFJWOQAjY6bLhT2jbcz-58">
          <mxGeometry y="26" width="220" height="154" as="geometry" />
        </mxCell>
        <mxCell id="UNFJWOQAjY6bLhT2jbcz-60" value="" style="line;strokeWidth=1;fillColor=none;align=left;verticalAlign=middle;spacingTop=-1;spacingLeft=3;spacingRight=3;rotatable=0;labelPosition=right;points=[];portConstraint=eastwest;strokeColor=inherit;" vertex="1" parent="UNFJWOQAjY6bLhT2jbcz-58">
          <mxGeometry y="180" width="220" height="8" as="geometry" />
        </mxCell>
        <mxCell id="UNFJWOQAjY6bLhT2jbcz-61" value="&lt;span style=&quot;text-wrap-mode: nowrap;&quot;&gt;+ setId() : void&lt;/span&gt;&lt;div style=&quot;text-wrap-mode: nowrap;&quot;&gt;+ get Id() : String&lt;/div&gt;&lt;div style=&quot;text-wrap-mode: nowrap;&quot;&gt;+ setPassword() : void&lt;/div&gt;&lt;div style=&quot;text-wrap-mode: nowrap;&quot;&gt;+ getPassword() : String&lt;/div&gt;&lt;div style=&quot;text-wrap-mode: nowrap;&quot;&gt;+ setName() : void&lt;/div&gt;&lt;div style=&quot;text-wrap-mode: nowrap;&quot;&gt;+ getName() : String&lt;/div&gt;&lt;div style=&quot;text-wrap-mode: nowrap;&quot;&gt;+ setGender() : void&lt;/div&gt;&lt;div style=&quot;text-wrap-mode: nowrap;&quot;&gt;+ getGender() : String&lt;/div&gt;&lt;div style=&quot;text-wrap-mode: nowrap;&quot;&gt;+ setBirth() : void&lt;/div&gt;&lt;div style=&quot;text-wrap-mode: nowrap;&quot;&gt;+ getBirth() : String&lt;/div&gt;&lt;div style=&quot;text-wrap-mode: nowrap;&quot;&gt;+ setMail() : void&lt;/div&gt;&lt;div style=&quot;text-wrap-mode: nowrap;&quot;&gt;+ getMail() : String&lt;/div&gt;&lt;div style=&quot;text-wrap-mode: nowrap;&quot;&gt;+ setPhone() : void&lt;/div&gt;&lt;div style=&quot;text-wrap-mode: nowrap;&quot;&gt;+ getPhone() : String&lt;/div&gt;&lt;div style=&quot;text-wrap-mode: nowrap;&quot;&gt;+ setAddress() : void&lt;/div&gt;&lt;div style=&quot;text-wrap-mode: nowrap;&quot;&gt;+ getAddress() : String&lt;/div&gt;&lt;div style=&quot;text-wrap-mode: nowrap;&quot;&gt;+ setRegist_day() : void&lt;/div&gt;&lt;div style=&quot;text-wrap-mode: nowrap;&quot;&gt;+ getRegist_day() : Timestamp&lt;/div&gt;" style="text;strokeColor=none;fillColor=none;align=left;verticalAlign=top;spacingLeft=4;spacingRight=4;overflow=hidden;rotatable=0;points=[[0,0.5],[1,0.5]];portConstraint=eastwest;whiteSpace=wrap;html=1;" vertex="1" parent="UNFJWOQAjY6bLhT2jbcz-58">
          <mxGeometry y="188" width="220" height="282" as="geometry" />
        </mxCell>
        <mxCell id="UNFJWOQAjY6bLhT2jbcz-94" style="edgeStyle=orthogonalEdgeStyle;rounded=0;orthogonalLoop=1;jettySize=auto;html=1;entryX=0.014;entryY=-0.011;entryDx=0;entryDy=0;entryPerimeter=0;dashed=1;endArrow=open;endFill=0;" edge="1" parent="WIyWlLk6GJQsqaUBKTNV-1" target="UNFJWOQAjY6bLhT2jbcz-61">
          <mxGeometry relative="1" as="geometry">
            <mxPoint x="500" y="-110" as="sourcePoint" />
            <Array as="points">
              <mxPoint x="500" y="-10" />
              <mxPoint x="501" y="-10" />
              <mxPoint x="501" y="-15" />
            </Array>
          </mxGeometry>
        </mxCell>
        <mxCell id="UNFJWOQAjY6bLhT2jbcz-135" value="WebServlet" style="swimlane;fontStyle=0;childLayout=stackLayout;horizontal=1;startSize=26;fillColor=none;horizontalStack=0;resizeParent=1;resizeParentMax=0;resizeLast=0;collapsible=1;marginBottom=0;whiteSpace=wrap;html=1;" vertex="1" parent="WIyWlLk6GJQsqaUBKTNV-1">
          <mxGeometry x="-400" y="690" width="140" height="52" as="geometry" />
        </mxCell>
        <mxCell id="UNFJWOQAjY6bLhT2jbcz-141" style="edgeStyle=orthogonalEdgeStyle;rounded=0;orthogonalLoop=1;jettySize=auto;html=1;endArrow=open;endFill=0;dashed=1;" edge="1" parent="WIyWlLk6GJQsqaUBKTNV-1">
          <mxGeometry relative="1" as="geometry">
            <mxPoint x="-20" y="550" as="sourcePoint" />
            <mxPoint x="449" y="690" as="targetPoint" />
          </mxGeometry>
        </mxCell>
        <mxCell id="UNFJWOQAjY6bLhT2jbcz-144" style="edgeStyle=orthogonalEdgeStyle;rounded=0;orthogonalLoop=1;jettySize=auto;html=1;dashed=1;endArrow=open;endFill=0;" edge="1" parent="WIyWlLk6GJQsqaUBKTNV-1" source="UNFJWOQAjY6bLhT2jbcz-40">
          <mxGeometry relative="1" as="geometry">
            <mxPoint x="150" y="690" as="targetPoint" />
            <Array as="points">
              <mxPoint x="151" y="410" />
              <mxPoint x="151" y="690" />
            </Array>
          </mxGeometry>
        </mxCell>
        <mxCell id="UNFJWOQAjY6bLhT2jbcz-145" style="edgeStyle=orthogonalEdgeStyle;rounded=0;orthogonalLoop=1;jettySize=auto;html=1;dashed=1;endArrow=open;endFill=0;entryX=0.466;entryY=0.011;entryDx=0;entryDy=0;entryPerimeter=0;" edge="1" parent="WIyWlLk6GJQsqaUBKTNV-1" target="UNFJWOQAjY6bLhT2jbcz-171">
          <mxGeometry relative="1" as="geometry">
            <mxPoint x="-20" y="399.9988235294122" as="sourcePoint" />
            <mxPoint x="428.27999999999975" y="701.6199999999999" as="targetPoint" />
          </mxGeometry>
        </mxCell>
        <mxCell id="UNFJWOQAjY6bLhT2jbcz-149" style="edgeStyle=orthogonalEdgeStyle;rounded=0;orthogonalLoop=1;jettySize=auto;html=1;dashed=1;endArrow=open;endFill=0;" edge="1" parent="WIyWlLk6GJQsqaUBKTNV-1" source="UNFJWOQAjY6bLhT2jbcz-44" target="UNFJWOQAjY6bLhT2jbcz-171">
          <mxGeometry relative="1" as="geometry">
            <mxPoint x="320" y="690" as="targetPoint" />
            <Array as="points">
              <mxPoint x="435" y="270" />
            </Array>
          </mxGeometry>
        </mxCell>
        <mxCell id="UNFJWOQAjY6bLhT2jbcz-150" style="edgeStyle=orthogonalEdgeStyle;rounded=0;orthogonalLoop=1;jettySize=auto;html=1;dashed=1;endArrow=open;endFill=0;entryX=0.533;entryY=0;entryDx=0;entryDy=0;entryPerimeter=0;" edge="1" parent="WIyWlLk6GJQsqaUBKTNV-1" target="UNFJWOQAjY6bLhT2jbcz-176">
          <mxGeometry relative="1" as="geometry">
            <mxPoint x="-20" y="260" as="sourcePoint" />
            <mxPoint x="745.2299999999996" y="699.9000000000001" as="targetPoint" />
            <Array as="points">
              <mxPoint x="745" y="261" />
            </Array>
          </mxGeometry>
        </mxCell>
        <mxCell id="UNFJWOQAjY6bLhT2jbcz-156" style="edgeStyle=orthogonalEdgeStyle;rounded=0;orthogonalLoop=1;jettySize=auto;html=1;entryX=0.25;entryY=0;entryDx=0;entryDy=0;dashed=1;endArrow=open;endFill=0;" edge="1" parent="WIyWlLk6GJQsqaUBKTNV-1" target="UNFJWOQAjY6bLhT2jbcz-167">
          <mxGeometry relative="1" as="geometry">
            <mxPoint x="-20" y="130" as="sourcePoint" />
            <mxPoint x="119.97999999999956" y="711.8200000000002" as="targetPoint" />
          </mxGeometry>
        </mxCell>
        <mxCell id="UNFJWOQAjY6bLhT2jbcz-159" style="edgeStyle=orthogonalEdgeStyle;rounded=0;orthogonalLoop=1;jettySize=auto;html=1;endArrow=open;endFill=0;dashed=1;" edge="1" parent="WIyWlLk6GJQsqaUBKTNV-1" source="UNFJWOQAjY6bLhT2jbcz-32">
          <mxGeometry relative="1" as="geometry">
            <mxPoint x="130" y="690" as="targetPoint" />
            <Array as="points">
              <mxPoint x="131" y="-10" />
              <mxPoint x="131" y="690" />
            </Array>
          </mxGeometry>
        </mxCell>
        <mxCell id="UNFJWOQAjY6bLhT2jbcz-160" style="edgeStyle=orthogonalEdgeStyle;rounded=0;orthogonalLoop=1;jettySize=auto;html=1;entryX=0.394;entryY=-0.001;entryDx=0;entryDy=0;entryPerimeter=0;dashed=1;endArrow=open;endFill=0;" edge="1" parent="WIyWlLk6GJQsqaUBKTNV-1" source="UNFJWOQAjY6bLhT2jbcz-32" target="UNFJWOQAjY6bLhT2jbcz-171">
          <mxGeometry relative="1" as="geometry">
            <mxPoint x="279.77999999999975" y="690.5199999999995" as="targetPoint" />
          </mxGeometry>
        </mxCell>
        <mxCell id="UNFJWOQAjY6bLhT2jbcz-162" style="edgeStyle=orthogonalEdgeStyle;rounded=0;orthogonalLoop=1;jettySize=auto;html=1;entryX=0.004;entryY=0.375;entryDx=0;entryDy=0;entryPerimeter=0;dashed=1;endArrow=open;endFill=0;" edge="1" parent="WIyWlLk6GJQsqaUBKTNV-1" source="UNFJWOQAjY6bLhT2jbcz-32" target="UNFJWOQAjY6bLhT2jbcz-61">
          <mxGeometry relative="1" as="geometry">
            <Array as="points">
              <mxPoint x="415" y="-20" />
              <mxPoint x="415" y="94" />
            </Array>
          </mxGeometry>
        </mxCell>
        <mxCell id="UNFJWOQAjY6bLhT2jbcz-167" value="&lt;span style=&quot;font-weight: 400;&quot;&gt;HttpServletRequest&lt;/span&gt;" style="swimlane;fontStyle=1;align=center;verticalAlign=top;childLayout=stackLayout;horizontal=1;startSize=26;horizontalStack=0;resizeParent=1;resizeParentMax=0;resizeLast=0;collapsible=1;marginBottom=0;whiteSpace=wrap;html=1;" vertex="1" parent="WIyWlLk6GJQsqaUBKTNV-1">
          <mxGeometry x="50" y="690" width="220" height="130" as="geometry" />
        </mxCell>
        <mxCell id="UNFJWOQAjY6bLhT2jbcz-168" value="+ field: type" style="text;strokeColor=none;fillColor=none;align=left;verticalAlign=top;spacingLeft=4;spacingRight=4;overflow=hidden;rotatable=0;points=[[0,0.5],[1,0.5]];portConstraint=eastwest;whiteSpace=wrap;html=1;" vertex="1" parent="UNFJWOQAjY6bLhT2jbcz-167">
          <mxGeometry y="26" width="220" height="26" as="geometry" />
        </mxCell>
        <mxCell id="UNFJWOQAjY6bLhT2jbcz-169" value="" style="line;strokeWidth=1;fillColor=none;align=left;verticalAlign=middle;spacingTop=-1;spacingLeft=3;spacingRight=3;rotatable=0;labelPosition=right;points=[];portConstraint=eastwest;strokeColor=inherit;" vertex="1" parent="UNFJWOQAjY6bLhT2jbcz-167">
          <mxGeometry y="52" width="220" height="8" as="geometry" />
        </mxCell>
        <mxCell id="UNFJWOQAjY6bLhT2jbcz-170" value="+ getParamemter() : Object&lt;div&gt;+ setAttribute( String, Object ) : void&lt;/div&gt;&lt;div&gt;+ getAttribute( String ) : Object&amp;nbsp;&lt;/div&gt;&lt;div&gt;+ getSession ( boolean ) : HttpSession&lt;/div&gt;" style="text;strokeColor=none;fillColor=none;align=left;verticalAlign=top;spacingLeft=4;spacingRight=4;overflow=hidden;rotatable=0;points=[[0,0.5],[1,0.5]];portConstraint=eastwest;whiteSpace=wrap;html=1;" vertex="1" parent="UNFJWOQAjY6bLhT2jbcz-167">
          <mxGeometry y="60" width="220" height="70" as="geometry" />
        </mxCell>
        <mxCell id="UNFJWOQAjY6bLhT2jbcz-171" value="&lt;span style=&quot;font-weight: 400;&quot;&gt;HttpServletResponse&lt;/span&gt;" style="swimlane;fontStyle=1;align=center;verticalAlign=top;childLayout=stackLayout;horizontal=1;startSize=26;horizontalStack=0;resizeParent=1;resizeParentMax=0;resizeLast=0;collapsible=1;marginBottom=0;whiteSpace=wrap;html=1;" vertex="1" parent="WIyWlLk6GJQsqaUBKTNV-1">
          <mxGeometry x="330" y="690" width="210" height="130" as="geometry" />
        </mxCell>
        <mxCell id="UNFJWOQAjY6bLhT2jbcz-172" value="+ field: type" style="text;strokeColor=none;fillColor=none;align=left;verticalAlign=top;spacingLeft=4;spacingRight=4;overflow=hidden;rotatable=0;points=[[0,0.5],[1,0.5]];portConstraint=eastwest;whiteSpace=wrap;html=1;" vertex="1" parent="UNFJWOQAjY6bLhT2jbcz-171">
          <mxGeometry y="26" width="210" height="22" as="geometry" />
        </mxCell>
        <mxCell id="UNFJWOQAjY6bLhT2jbcz-173" value="" style="line;strokeWidth=1;fillColor=none;align=left;verticalAlign=middle;spacingTop=-1;spacingLeft=3;spacingRight=3;rotatable=0;labelPosition=right;points=[];portConstraint=eastwest;strokeColor=inherit;" vertex="1" parent="UNFJWOQAjY6bLhT2jbcz-171">
          <mxGeometry y="48" width="210" height="8" as="geometry" />
        </mxCell>
        <mxCell id="UNFJWOQAjY6bLhT2jbcz-174" value="+ getParamemter() : Object&lt;div&gt;+ setAttribute( String, Object ) : void&lt;/div&gt;&lt;div&gt;+ getAttribute( String) : Object&amp;nbsp;&lt;/div&gt;&lt;div&gt;+ sendRedirect( String ) : void&lt;/div&gt;" style="text;strokeColor=none;fillColor=none;align=left;verticalAlign=top;spacingLeft=4;spacingRight=4;overflow=hidden;rotatable=0;points=[[0,0.5],[1,0.5]];portConstraint=eastwest;whiteSpace=wrap;html=1;" vertex="1" parent="UNFJWOQAjY6bLhT2jbcz-171">
          <mxGeometry y="56" width="210" height="74" as="geometry" />
        </mxCell>
        <mxCell id="UNFJWOQAjY6bLhT2jbcz-176" value="&lt;span style=&quot;font-weight: 400;&quot;&gt;RequestDispatcher&lt;/span&gt;" style="swimlane;fontStyle=1;align=center;verticalAlign=top;childLayout=stackLayout;horizontal=1;startSize=26;horizontalStack=0;resizeParent=1;resizeParentMax=0;resizeLast=0;collapsible=1;marginBottom=0;whiteSpace=wrap;html=1;" vertex="1" parent="WIyWlLk6GJQsqaUBKTNV-1">
          <mxGeometry x="580" y="690" width="310" height="100" as="geometry" />
        </mxCell>
        <mxCell id="UNFJWOQAjY6bLhT2jbcz-177" value="+ field: type" style="text;strokeColor=none;fillColor=none;align=left;verticalAlign=top;spacingLeft=4;spacingRight=4;overflow=hidden;rotatable=0;points=[[0,0.5],[1,0.5]];portConstraint=eastwest;whiteSpace=wrap;html=1;" vertex="1" parent="UNFJWOQAjY6bLhT2jbcz-176">
          <mxGeometry y="26" width="310" height="26" as="geometry" />
        </mxCell>
        <mxCell id="UNFJWOQAjY6bLhT2jbcz-178" value="" style="line;strokeWidth=1;fillColor=none;align=left;verticalAlign=middle;spacingTop=-1;spacingLeft=3;spacingRight=3;rotatable=0;labelPosition=right;points=[];portConstraint=eastwest;strokeColor=inherit;" vertex="1" parent="UNFJWOQAjY6bLhT2jbcz-176">
          <mxGeometry y="52" width="310" height="8" as="geometry" />
        </mxCell>
        <mxCell id="UNFJWOQAjY6bLhT2jbcz-179" value="+ forward( HttpServletRequest, HttpServletResponse )" style="text;strokeColor=none;fillColor=none;align=left;verticalAlign=top;spacingLeft=4;spacingRight=4;overflow=hidden;rotatable=0;points=[[0,0.5],[1,0.5]];portConstraint=eastwest;whiteSpace=wrap;html=1;" vertex="1" parent="UNFJWOQAjY6bLhT2jbcz-176">
          <mxGeometry y="60" width="310" height="40" as="geometry" />
        </mxCell>
        <mxCell id="UNFJWOQAjY6bLhT2jbcz-180" value="Connection" style="swimlane;fontStyle=1;align=center;verticalAlign=top;childLayout=stackLayout;horizontal=1;startSize=26;horizontalStack=0;resizeParent=1;resizeParentMax=0;resizeLast=0;collapsible=1;marginBottom=0;whiteSpace=wrap;html=1;" vertex="1" parent="WIyWlLk6GJQsqaUBKTNV-1">
          <mxGeometry x="610" y="-440" width="320" height="100" as="geometry" />
        </mxCell>
        <mxCell id="UNFJWOQAjY6bLhT2jbcz-181" value="+ field: type" style="text;strokeColor=none;fillColor=none;align=left;verticalAlign=top;spacingLeft=4;spacingRight=4;overflow=hidden;rotatable=0;points=[[0,0.5],[1,0.5]];portConstraint=eastwest;whiteSpace=wrap;html=1;" vertex="1" parent="UNFJWOQAjY6bLhT2jbcz-180">
          <mxGeometry y="26" width="320" height="26" as="geometry" />
        </mxCell>
        <mxCell id="UNFJWOQAjY6bLhT2jbcz-182" value="" style="line;strokeWidth=1;fillColor=none;align=left;verticalAlign=middle;spacingTop=-1;spacingLeft=3;spacingRight=3;rotatable=0;labelPosition=right;points=[];portConstraint=eastwest;strokeColor=inherit;" vertex="1" parent="UNFJWOQAjY6bLhT2jbcz-180">
          <mxGeometry y="52" width="320" height="8" as="geometry" />
        </mxCell>
        <mxCell id="UNFJWOQAjY6bLhT2jbcz-183" value="+ prepareStatement(String) :&amp;nbsp; PreparedStatement" style="text;strokeColor=none;fillColor=none;align=left;verticalAlign=top;spacingLeft=4;spacingRight=4;overflow=hidden;rotatable=0;points=[[0,0.5],[1,0.5]];portConstraint=eastwest;whiteSpace=wrap;html=1;" vertex="1" parent="UNFJWOQAjY6bLhT2jbcz-180">
          <mxGeometry y="60" width="320" height="40" as="geometry" />
        </mxCell>
        <mxCell id="UNFJWOQAjY6bLhT2jbcz-186" style="edgeStyle=orthogonalEdgeStyle;rounded=0;orthogonalLoop=1;jettySize=auto;html=1;entryX=-0.002;entryY=1.1;entryDx=0;entryDy=0;entryPerimeter=0;endArrow=open;endFill=0;" edge="1" parent="WIyWlLk6GJQsqaUBKTNV-1" source="UNFJWOQAjY6bLhT2jbcz-27" target="UNFJWOQAjY6bLhT2jbcz-181">
          <mxGeometry relative="1" as="geometry" />
        </mxCell>
        <mxCell id="UNFJWOQAjY6bLhT2jbcz-191" value="PreparedStatement" style="swimlane;fontStyle=1;align=center;verticalAlign=top;childLayout=stackLayout;horizontal=1;startSize=26;horizontalStack=0;resizeParent=1;resizeParentMax=0;resizeLast=0;collapsible=1;marginBottom=0;whiteSpace=wrap;html=1;" vertex="1" parent="WIyWlLk6GJQsqaUBKTNV-1">
          <mxGeometry x="970" y="-440" width="300" height="130" as="geometry" />
        </mxCell>
        <mxCell id="UNFJWOQAjY6bLhT2jbcz-192" value="+ field: type" style="text;strokeColor=none;fillColor=none;align=left;verticalAlign=top;spacingLeft=4;spacingRight=4;overflow=hidden;rotatable=0;points=[[0,0.5],[1,0.5]];portConstraint=eastwest;whiteSpace=wrap;html=1;" vertex="1" parent="UNFJWOQAjY6bLhT2jbcz-191">
          <mxGeometry y="26" width="300" height="26" as="geometry" />
        </mxCell>
        <mxCell id="UNFJWOQAjY6bLhT2jbcz-193" value="" style="line;strokeWidth=1;fillColor=none;align=left;verticalAlign=middle;spacingTop=-1;spacingLeft=3;spacingRight=3;rotatable=0;labelPosition=right;points=[];portConstraint=eastwest;strokeColor=inherit;" vertex="1" parent="UNFJWOQAjY6bLhT2jbcz-191">
          <mxGeometry y="52" width="300" height="8" as="geometry" />
        </mxCell>
        <mxCell id="UNFJWOQAjY6bLhT2jbcz-194" value="+ setString(String) : void&lt;div&gt;+ setTimestamp(Timestamp) : void&lt;/div&gt;&lt;div&gt;+ executeUpdate() : void&lt;/div&gt;&lt;div&gt;+ executeQuery() : ResultSet&lt;/div&gt;" style="text;strokeColor=none;fillColor=none;align=left;verticalAlign=top;spacingLeft=4;spacingRight=4;overflow=hidden;rotatable=0;points=[[0,0.5],[1,0.5]];portConstraint=eastwest;whiteSpace=wrap;html=1;" vertex="1" parent="UNFJWOQAjY6bLhT2jbcz-191">
          <mxGeometry y="60" width="300" height="70" as="geometry" />
        </mxCell>
        <mxCell id="UNFJWOQAjY6bLhT2jbcz-200" value="ResultSet" style="swimlane;fontStyle=1;align=center;verticalAlign=top;childLayout=stackLayout;horizontal=1;startSize=26;horizontalStack=0;resizeParent=1;resizeParentMax=0;resizeLast=0;collapsible=1;marginBottom=0;whiteSpace=wrap;html=1;" vertex="1" parent="WIyWlLk6GJQsqaUBKTNV-1">
          <mxGeometry x="1320" y="-440" width="210" height="120" as="geometry" />
        </mxCell>
        <mxCell id="UNFJWOQAjY6bLhT2jbcz-201" value="+ field: type" style="text;strokeColor=none;fillColor=none;align=left;verticalAlign=top;spacingLeft=4;spacingRight=4;overflow=hidden;rotatable=0;points=[[0,0.5],[1,0.5]];portConstraint=eastwest;whiteSpace=wrap;html=1;" vertex="1" parent="UNFJWOQAjY6bLhT2jbcz-200">
          <mxGeometry y="26" width="210" height="26" as="geometry" />
        </mxCell>
        <mxCell id="UNFJWOQAjY6bLhT2jbcz-202" value="" style="line;strokeWidth=1;fillColor=none;align=left;verticalAlign=middle;spacingTop=-1;spacingLeft=3;spacingRight=3;rotatable=0;labelPosition=right;points=[];portConstraint=eastwest;strokeColor=inherit;" vertex="1" parent="UNFJWOQAjY6bLhT2jbcz-200">
          <mxGeometry y="52" width="210" height="8" as="geometry" />
        </mxCell>
        <mxCell id="UNFJWOQAjY6bLhT2jbcz-203" value="&lt;div&gt;+ getString(int) : String&lt;/div&gt;+ next() : boolean&lt;div&gt;+ getTimestamp(int) : Timestamp&lt;/div&gt;" style="text;strokeColor=none;fillColor=none;align=left;verticalAlign=top;spacingLeft=4;spacingRight=4;overflow=hidden;rotatable=0;points=[[0,0.5],[1,0.5]];portConstraint=eastwest;whiteSpace=wrap;html=1;" vertex="1" parent="UNFJWOQAjY6bLhT2jbcz-200">
          <mxGeometry y="60" width="210" height="60" as="geometry" />
        </mxCell>
        <mxCell id="UNFJWOQAjY6bLhT2jbcz-205" style="edgeStyle=orthogonalEdgeStyle;rounded=0;orthogonalLoop=1;jettySize=auto;html=1;entryX=0.615;entryY=1.007;entryDx=0;entryDy=0;entryPerimeter=0;endArrow=open;endFill=0;" edge="1" parent="WIyWlLk6GJQsqaUBKTNV-1" source="UNFJWOQAjY6bLhT2jbcz-27" target="UNFJWOQAjY6bLhT2jbcz-203">
          <mxGeometry relative="1" as="geometry" />
        </mxCell>
        <mxCell id="UNFJWOQAjY6bLhT2jbcz-206" style="edgeStyle=orthogonalEdgeStyle;rounded=0;orthogonalLoop=1;jettySize=auto;html=1;entryX=0.564;entryY=0.999;entryDx=0;entryDy=0;entryPerimeter=0;endArrow=open;endFill=0;" edge="1" parent="WIyWlLk6GJQsqaUBKTNV-1" source="UNFJWOQAjY6bLhT2jbcz-27" target="UNFJWOQAjY6bLhT2jbcz-194">
          <mxGeometry relative="1" as="geometry" />
        </mxCell>
        <mxCell id="UNFJWOQAjY6bLhT2jbcz-209" style="edgeStyle=orthogonalEdgeStyle;rounded=0;orthogonalLoop=1;jettySize=auto;html=1;entryX=-0.016;entryY=0.432;entryDx=0;entryDy=0;entryPerimeter=0;dashed=1;endArrow=open;endFill=0;" edge="1" parent="WIyWlLk6GJQsqaUBKTNV-1">
          <mxGeometry relative="1" as="geometry">
            <mxPoint x="-20" y="116" as="sourcePoint" />
            <mxPoint x="846.4799999999996" y="115.82400000000007" as="targetPoint" />
          </mxGeometry>
        </mxCell>
        <mxCell id="UNFJWOQAjY6bLhT2jbcz-210" value="ArrayList" style="swimlane;fontStyle=1;align=center;verticalAlign=top;childLayout=stackLayout;horizontal=1;startSize=26;horizontalStack=0;resizeParent=1;resizeParentMax=0;resizeLast=0;collapsible=1;marginBottom=0;whiteSpace=wrap;html=1;" vertex="1" parent="WIyWlLk6GJQsqaUBKTNV-1">
          <mxGeometry x="-470" y="-212" width="160" height="34" as="geometry" />
        </mxCell>
        <mxCell id="UNFJWOQAjY6bLhT2jbcz-212" value="" style="line;strokeWidth=1;fillColor=none;align=left;verticalAlign=middle;spacingTop=-1;spacingLeft=3;spacingRight=3;rotatable=0;labelPosition=right;points=[];portConstraint=eastwest;strokeColor=inherit;" vertex="1" parent="UNFJWOQAjY6bLhT2jbcz-210">
          <mxGeometry y="26" width="160" height="8" as="geometry" />
        </mxCell>
        <mxCell id="UNFJWOQAjY6bLhT2jbcz-215" value="HttpSession" style="swimlane;fontStyle=1;align=center;verticalAlign=top;childLayout=stackLayout;horizontal=1;startSize=26;horizontalStack=0;resizeParent=1;resizeParentMax=0;resizeLast=0;collapsible=1;marginBottom=0;whiteSpace=wrap;html=1;" vertex="1" parent="WIyWlLk6GJQsqaUBKTNV-1">
          <mxGeometry x="-100" y="-250" width="230" height="110" as="geometry" />
        </mxCell>
        <mxCell id="UNFJWOQAjY6bLhT2jbcz-216" value="+ field: type" style="text;strokeColor=none;fillColor=none;align=left;verticalAlign=top;spacingLeft=4;spacingRight=4;overflow=hidden;rotatable=0;points=[[0,0.5],[1,0.5]];portConstraint=eastwest;whiteSpace=wrap;html=1;" vertex="1" parent="UNFJWOQAjY6bLhT2jbcz-215">
          <mxGeometry y="26" width="230" height="26" as="geometry" />
        </mxCell>
        <mxCell id="UNFJWOQAjY6bLhT2jbcz-217" value="" style="line;strokeWidth=1;fillColor=none;align=left;verticalAlign=middle;spacingTop=-1;spacingLeft=3;spacingRight=3;rotatable=0;labelPosition=right;points=[];portConstraint=eastwest;strokeColor=inherit;" vertex="1" parent="UNFJWOQAjY6bLhT2jbcz-215">
          <mxGeometry y="52" width="230" height="8" as="geometry" />
        </mxCell>
        <mxCell id="UNFJWOQAjY6bLhT2jbcz-218" value="&lt;div&gt;&lt;span style=&quot;background-color: initial;&quot;&gt;+ setAttribute ( String, Object ) : void&lt;/span&gt;&lt;/div&gt;&lt;div&gt;+ invalidate() : void&lt;/div&gt;" style="text;strokeColor=none;fillColor=none;align=left;verticalAlign=top;spacingLeft=4;spacingRight=4;overflow=hidden;rotatable=0;points=[[0,0.5],[1,0.5]];portConstraint=eastwest;whiteSpace=wrap;html=1;" vertex="1" parent="UNFJWOQAjY6bLhT2jbcz-215">
          <mxGeometry y="60" width="230" height="50" as="geometry" />
        </mxCell>
        <mxCell id="UNFJWOQAjY6bLhT2jbcz-219" style="edgeStyle=orthogonalEdgeStyle;rounded=0;orthogonalLoop=1;jettySize=auto;html=1;entryX=0.49;entryY=0.992;entryDx=0;entryDy=0;entryPerimeter=0;dashed=1;endArrow=open;endFill=0;" edge="1" parent="WIyWlLk6GJQsqaUBKTNV-1" source="UNFJWOQAjY6bLhT2jbcz-32" target="UNFJWOQAjY6bLhT2jbcz-218">
          <mxGeometry relative="1" as="geometry" />
        </mxCell>
        <mxCell id="UNFJWOQAjY6bLhT2jbcz-222" style="edgeStyle=orthogonalEdgeStyle;rounded=0;orthogonalLoop=1;jettySize=auto;html=1;entryX=0.543;entryY=1.01;entryDx=0;entryDy=0;entryPerimeter=0;dashed=1;endArrow=open;endFill=0;" edge="1" parent="WIyWlLk6GJQsqaUBKTNV-1" source="UNFJWOQAjY6bLhT2jbcz-36" target="UNFJWOQAjY6bLhT2jbcz-218">
          <mxGeometry relative="1" as="geometry">
            <Array as="points">
              <mxPoint x="25" y="530" />
            </Array>
          </mxGeometry>
        </mxCell>
        <mxCell id="UNFJWOQAjY6bLhT2jbcz-227" style="edgeStyle=orthogonalEdgeStyle;rounded=0;orthogonalLoop=1;jettySize=auto;html=1;entryX=0.585;entryY=-0.009;entryDx=0;entryDy=0;entryPerimeter=0;dashed=1;endArrow=open;endFill=0;" edge="1" parent="WIyWlLk6GJQsqaUBKTNV-1" source="UNFJWOQAjY6bLhT2jbcz-48" target="UNFJWOQAjY6bLhT2jbcz-176">
          <mxGeometry relative="1" as="geometry">
            <Array as="points">
              <mxPoint x="761" y="140" />
            </Array>
          </mxGeometry>
        </mxCell>
        <mxCell id="UNFJWOQAjY6bLhT2jbcz-228" style="edgeStyle=orthogonalEdgeStyle;rounded=0;orthogonalLoop=1;jettySize=auto;html=1;entryX=0.5;entryY=0;entryDx=0;entryDy=0;dashed=1;endArrow=open;endFill=0;" edge="1" parent="WIyWlLk6GJQsqaUBKTNV-1">
          <mxGeometry relative="1" as="geometry">
            <mxPoint x="-20" y="-41" as="sourcePoint" />
            <mxPoint x="735" y="690" as="targetPoint" />
          </mxGeometry>
        </mxCell>
        <mxCell id="UNFJWOQAjY6bLhT2jbcz-232" value="&lt;font style=&quot;font-size: 35px;&quot;&gt;Member 클래스 다이어그램&lt;/font&gt;" style="text;html=1;align=center;verticalAlign=middle;whiteSpace=wrap;rounded=0;strokeColor=default;" vertex="1" parent="WIyWlLk6GJQsqaUBKTNV-1">
          <mxGeometry x="80" y="-690" width="630" height="70" as="geometry" />
        </mxCell>
      </root>
    </mxGraphModel>
  </diagram>
  <diagram id="UnJdfxydfUaqYtd82dLH" name="Book, Cart">
    <mxGraphModel grid="1" page="1" gridSize="10" guides="1" tooltips="1" connect="1" arrows="1" fold="1" pageScale="1" pageWidth="10000" pageHeight="10000" math="0" shadow="0">
      <root>
        <mxCell id="0" />
        <mxCell id="1" parent="0" />
        <mxCell id="396qlQ5B3hLJf8_UHIIY-14" value="HttpServlet" style="swimlane;fontStyle=0;childLayout=stackLayout;horizontal=1;startSize=26;fillColor=none;horizontalStack=0;resizeParent=1;resizeParentMax=0;resizeLast=0;collapsible=1;marginBottom=0;whiteSpace=wrap;html=1;" vertex="1" parent="1">
          <mxGeometry x="-4505" y="5030" width="140" height="100" as="geometry" />
        </mxCell>
        <mxCell id="rFGMBPtFLbGweJdBF11b-4" style="edgeStyle=orthogonalEdgeStyle;rounded=0;orthogonalLoop=1;jettySize=auto;html=1;entryX=0;entryY=0.5;entryDx=0;entryDy=0;endArrow=block;endFill=0;" edge="1" parent="1" source="FStrJQChQxe4te-u4X6c-1" target="396qlQ5B3hLJf8_UHIIY-14">
          <mxGeometry relative="1" as="geometry" />
        </mxCell>
        <mxCell id="CqCNXm84BIxn-8kVymhy-9" style="edgeStyle=orthogonalEdgeStyle;rounded=0;orthogonalLoop=1;jettySize=auto;html=1;dashed=1;startArrow=none;startFill=0;endArrow=open;endFill=0;" edge="1" parent="1" source="FStrJQChQxe4te-u4X6c-1" target="gxKatDsyWYHASI4oytr7-11">
          <mxGeometry relative="1" as="geometry">
            <Array as="points">
              <mxPoint x="-4600" y="5490" />
              <mxPoint x="-4600" y="5280" />
            </Array>
          </mxGeometry>
        </mxCell>
        <mxCell id="CqCNXm84BIxn-8kVymhy-10" style="edgeStyle=orthogonalEdgeStyle;rounded=0;orthogonalLoop=1;jettySize=auto;html=1;dashed=1;endArrow=open;endFill=0;" edge="1" parent="1" source="FStrJQChQxe4te-u4X6c-1" target="gxKatDsyWYHASI4oytr7-7">
          <mxGeometry relative="1" as="geometry">
            <Array as="points">
              <mxPoint x="-4620" y="5510" />
              <mxPoint x="-4620" y="5460" />
            </Array>
          </mxGeometry>
        </mxCell>
        <mxCell id="CqCNXm84BIxn-8kVymhy-11" style="edgeStyle=orthogonalEdgeStyle;rounded=0;orthogonalLoop=1;jettySize=auto;html=1;dashed=1;endArrow=open;endFill=0;" edge="1" parent="1" source="FStrJQChQxe4te-u4X6c-1" target="gxKatDsyWYHASI4oytr7-3">
          <mxGeometry relative="1" as="geometry">
            <Array as="points">
              <mxPoint x="-4630" y="5520" />
              <mxPoint x="-4630" y="5630" />
            </Array>
          </mxGeometry>
        </mxCell>
        <mxCell id="CqCNXm84BIxn-8kVymhy-12" style="edgeStyle=orthogonalEdgeStyle;rounded=0;orthogonalLoop=1;jettySize=auto;html=1;dashed=1;endArrow=open;endFill=0;" edge="1" parent="1" source="FStrJQChQxe4te-u4X6c-1" target="25ByzeKxXQ6RjnZrFQ-E-1">
          <mxGeometry relative="1" as="geometry">
            <Array as="points">
              <mxPoint x="-4710" y="5480" />
              <mxPoint x="-4710" y="4923" />
            </Array>
          </mxGeometry>
        </mxCell>
        <mxCell id="FStrJQChQxe4te-u4X6c-1" value="editBook_Controller" style="swimlane;fontStyle=1;align=center;verticalAlign=top;childLayout=stackLayout;horizontal=1;startSize=26;horizontalStack=0;resizeParent=1;resizeParentMax=0;resizeLast=0;collapsible=1;marginBottom=0;whiteSpace=wrap;html=1;" vertex="1" parent="1">
          <mxGeometry x="-5250" y="5450" width="440" height="100" as="geometry" />
        </mxCell>
        <mxCell id="FStrJQChQxe4te-u4X6c-2" value="+ field: type" style="text;strokeColor=none;fillColor=none;align=left;verticalAlign=top;spacingLeft=4;spacingRight=4;overflow=hidden;rotatable=0;points=[[0,0.5],[1,0.5]];portConstraint=eastwest;whiteSpace=wrap;html=1;" vertex="1" parent="FStrJQChQxe4te-u4X6c-1">
          <mxGeometry y="26" width="440" height="26" as="geometry" />
        </mxCell>
        <mxCell id="FStrJQChQxe4te-u4X6c-3" value="" style="line;strokeWidth=1;fillColor=none;align=left;verticalAlign=middle;spacingTop=-1;spacingLeft=3;spacingRight=3;rotatable=0;labelPosition=right;points=[];portConstraint=eastwest;strokeColor=inherit;" vertex="1" parent="FStrJQChQxe4te-u4X6c-1">
          <mxGeometry y="52" width="440" height="8" as="geometry" />
        </mxCell>
        <mxCell id="FStrJQChQxe4te-u4X6c-4" value="#doGet( request : HttpServletRequest, response HttpServletResponse ) : void&lt;div&gt;#doPost(&amp;nbsp;&lt;span style=&quot;background-color: initial;&quot;&gt;request : HttpServletRequest, response HttpServletResponse&lt;/span&gt;&lt;span style=&quot;background-color: initial;&quot;&gt;&amp;nbsp;&lt;/span&gt;&lt;span style=&quot;background-color: initial;&quot;&gt;) : void&lt;/span&gt;&lt;/div&gt;" style="text;strokeColor=none;fillColor=none;align=left;verticalAlign=top;spacingLeft=4;spacingRight=4;overflow=hidden;rotatable=0;points=[[0,0.5],[1,0.5]];portConstraint=eastwest;whiteSpace=wrap;html=1;" vertex="1" parent="FStrJQChQxe4te-u4X6c-1">
          <mxGeometry y="60" width="440" height="40" as="geometry" />
        </mxCell>
        <mxCell id="25ByzeKxXQ6RjnZrFQ-E-5" style="edgeStyle=orthogonalEdgeStyle;rounded=0;orthogonalLoop=1;jettySize=auto;html=1;entryX=0;entryY=0.5;entryDx=0;entryDy=0;dashed=1;endArrow=open;endFill=0;" edge="1" parent="1" source="FStrJQChQxe4te-u4X6c-5" target="25ByzeKxXQ6RjnZrFQ-E-2">
          <mxGeometry relative="1" as="geometry" />
        </mxCell>
        <mxCell id="rFGMBPtFLbGweJdBF11b-5" style="edgeStyle=orthogonalEdgeStyle;rounded=0;orthogonalLoop=1;jettySize=auto;html=1;entryX=0;entryY=0.5;entryDx=0;entryDy=0;endArrow=block;endFill=0;" edge="1" parent="1" source="FStrJQChQxe4te-u4X6c-5" target="396qlQ5B3hLJf8_UHIIY-14">
          <mxGeometry relative="1" as="geometry" />
        </mxCell>
        <mxCell id="rFGMBPtFLbGweJdBF11b-8" style="edgeStyle=orthogonalEdgeStyle;rounded=0;orthogonalLoop=1;jettySize=auto;html=1;dashed=1;endArrow=open;endFill=0;" edge="1" parent="1" source="FStrJQChQxe4te-u4X6c-5" target="gxKatDsyWYHASI4oytr7-11">
          <mxGeometry relative="1" as="geometry">
            <mxPoint x="-4545" y="5250" as="targetPoint" />
            <Array as="points">
              <mxPoint x="-4600" y="5140" />
              <mxPoint x="-4600" y="5280" />
            </Array>
          </mxGeometry>
        </mxCell>
        <mxCell id="lxra6J1Z8iuQaPRAFH1F-10" style="edgeStyle=orthogonalEdgeStyle;rounded=0;orthogonalLoop=1;jettySize=auto;html=1;dashed=1;endArrow=classic;endFill=1;" edge="1" parent="1" source="FStrJQChQxe4te-u4X6c-5" target="25ByzeKxXQ6RjnZrFQ-E-6">
          <mxGeometry relative="1" as="geometry">
            <Array as="points">
              <mxPoint x="-4460" y="5160" />
              <mxPoint x="-4460" y="5160" />
            </Array>
          </mxGeometry>
        </mxCell>
        <mxCell id="FStrJQChQxe4te-u4X6c-5" value="Books_Controller" style="swimlane;fontStyle=1;align=center;verticalAlign=top;childLayout=stackLayout;horizontal=1;startSize=26;horizontalStack=0;resizeParent=1;resizeParentMax=0;resizeLast=0;collapsible=1;marginBottom=0;whiteSpace=wrap;html=1;" vertex="1" parent="1">
          <mxGeometry x="-5249" y="5100" width="440" height="90" as="geometry" />
        </mxCell>
        <mxCell id="FStrJQChQxe4te-u4X6c-6" value="+ field: type" style="text;strokeColor=none;fillColor=none;align=left;verticalAlign=top;spacingLeft=4;spacingRight=4;overflow=hidden;rotatable=0;points=[[0,0.5],[1,0.5]];portConstraint=eastwest;whiteSpace=wrap;html=1;" vertex="1" parent="FStrJQChQxe4te-u4X6c-5">
          <mxGeometry y="26" width="440" height="26" as="geometry" />
        </mxCell>
        <mxCell id="FStrJQChQxe4te-u4X6c-7" value="" style="line;strokeWidth=1;fillColor=none;align=left;verticalAlign=middle;spacingTop=-1;spacingLeft=3;spacingRight=3;rotatable=0;labelPosition=right;points=[];portConstraint=eastwest;strokeColor=inherit;" vertex="1" parent="FStrJQChQxe4te-u4X6c-5">
          <mxGeometry y="52" width="440" height="8" as="geometry" />
        </mxCell>
        <mxCell id="FStrJQChQxe4te-u4X6c-8" value="#doGet( request : HttpServletRequest, response HttpServletResponse ) : void" style="text;strokeColor=none;fillColor=none;align=left;verticalAlign=top;spacingLeft=4;spacingRight=4;overflow=hidden;rotatable=0;points=[[0,0.5],[1,0.5]];portConstraint=eastwest;whiteSpace=wrap;html=1;" vertex="1" parent="FStrJQChQxe4te-u4X6c-5">
          <mxGeometry y="60" width="440" height="30" as="geometry" />
        </mxCell>
        <mxCell id="rFGMBPtFLbGweJdBF11b-6" style="edgeStyle=orthogonalEdgeStyle;rounded=0;orthogonalLoop=1;jettySize=auto;html=1;entryX=0;entryY=0.5;entryDx=0;entryDy=0;endArrow=block;endFill=0;" edge="1" parent="1" source="FStrJQChQxe4te-u4X6c-9" target="396qlQ5B3hLJf8_UHIIY-14">
          <mxGeometry relative="1" as="geometry" />
        </mxCell>
        <mxCell id="rFGMBPtFLbGweJdBF11b-20" style="edgeStyle=orthogonalEdgeStyle;rounded=0;orthogonalLoop=1;jettySize=auto;html=1;endArrow=open;endFill=0;dashed=1;" edge="1" parent="1" source="FStrJQChQxe4te-u4X6c-9" target="gxKatDsyWYHASI4oytr7-11">
          <mxGeometry relative="1" as="geometry">
            <Array as="points">
              <mxPoint x="-4600" y="5260" />
              <mxPoint x="-4600" y="5280" />
            </Array>
          </mxGeometry>
        </mxCell>
        <mxCell id="rFGMBPtFLbGweJdBF11b-21" style="edgeStyle=orthogonalEdgeStyle;rounded=0;orthogonalLoop=1;jettySize=auto;html=1;endArrow=open;endFill=0;dashed=1;" edge="1" parent="1" source="FStrJQChQxe4te-u4X6c-9" target="gxKatDsyWYHASI4oytr7-7">
          <mxGeometry relative="1" as="geometry">
            <Array as="points">
              <mxPoint x="-4620" y="5270" />
              <mxPoint x="-4620" y="5460" />
            </Array>
          </mxGeometry>
        </mxCell>
        <mxCell id="rFGMBPtFLbGweJdBF11b-22" style="edgeStyle=orthogonalEdgeStyle;rounded=0;orthogonalLoop=1;jettySize=auto;html=1;dashed=1;endArrow=open;endFill=0;" edge="1" parent="1" source="FStrJQChQxe4te-u4X6c-9" target="gxKatDsyWYHASI4oytr7-3">
          <mxGeometry relative="1" as="geometry">
            <Array as="points">
              <mxPoint x="-4630" y="5280" />
              <mxPoint x="-4630" y="5630" />
            </Array>
          </mxGeometry>
        </mxCell>
        <mxCell id="CqCNXm84BIxn-8kVymhy-1" style="edgeStyle=orthogonalEdgeStyle;rounded=0;orthogonalLoop=1;jettySize=auto;html=1;dashed=1;endArrow=open;endFill=0;" edge="1" parent="1" source="FStrJQChQxe4te-u4X6c-9" target="25ByzeKxXQ6RjnZrFQ-E-6">
          <mxGeometry relative="1" as="geometry">
            <Array as="points">
              <mxPoint x="-4600" y="5240" />
              <mxPoint x="-4600" y="5160" />
            </Array>
          </mxGeometry>
        </mxCell>
        <mxCell id="CqCNXm84BIxn-8kVymhy-14" style="edgeStyle=orthogonalEdgeStyle;rounded=0;orthogonalLoop=1;jettySize=auto;html=1;dashed=1;endArrow=open;endFill=0;" edge="1" parent="1" source="FStrJQChQxe4te-u4X6c-9" target="rFGMBPtFLbGweJdBF11b-27">
          <mxGeometry relative="1" as="geometry">
            <Array as="points">
              <mxPoint x="-4770" y="5250" />
            </Array>
          </mxGeometry>
        </mxCell>
        <mxCell id="lxra6J1Z8iuQaPRAFH1F-12" style="edgeStyle=orthogonalEdgeStyle;rounded=0;orthogonalLoop=1;jettySize=auto;html=1;endArrow=open;endFill=0;dashed=1;" edge="1" parent="1" source="FStrJQChQxe4te-u4X6c-9" target="kUz0gBFOLJOMzMmLlgTL-1">
          <mxGeometry relative="1" as="geometry">
            <Array as="points">
              <mxPoint x="-4720" y="5290" />
              <mxPoint x="-4720" y="5540" />
            </Array>
          </mxGeometry>
        </mxCell>
        <mxCell id="FStrJQChQxe4te-u4X6c-9" value="AddBook_Controller" style="swimlane;fontStyle=1;align=center;verticalAlign=top;childLayout=stackLayout;horizontal=1;startSize=26;horizontalStack=0;resizeParent=1;resizeParentMax=0;resizeLast=0;collapsible=1;marginBottom=0;whiteSpace=wrap;html=1;" vertex="1" parent="1">
          <mxGeometry x="-5250" y="5215" width="440" height="100" as="geometry" />
        </mxCell>
        <mxCell id="FStrJQChQxe4te-u4X6c-10" value="+ field: type" style="text;strokeColor=none;fillColor=none;align=left;verticalAlign=top;spacingLeft=4;spacingRight=4;overflow=hidden;rotatable=0;points=[[0,0.5],[1,0.5]];portConstraint=eastwest;whiteSpace=wrap;html=1;" vertex="1" parent="FStrJQChQxe4te-u4X6c-9">
          <mxGeometry y="26" width="440" height="26" as="geometry" />
        </mxCell>
        <mxCell id="FStrJQChQxe4te-u4X6c-11" value="" style="line;strokeWidth=1;fillColor=none;align=left;verticalAlign=middle;spacingTop=-1;spacingLeft=3;spacingRight=3;rotatable=0;labelPosition=right;points=[];portConstraint=eastwest;strokeColor=inherit;" vertex="1" parent="FStrJQChQxe4te-u4X6c-9">
          <mxGeometry y="52" width="440" height="8" as="geometry" />
        </mxCell>
        <mxCell id="FStrJQChQxe4te-u4X6c-12" value="#doGet( request : HttpServletRequest, response HttpServletResponse ) : void&lt;div&gt;#doPost(&amp;nbsp;&lt;span style=&quot;background-color: initial;&quot;&gt;request : HttpServletRequest, response HttpServletResponse&lt;/span&gt;&lt;span style=&quot;background-color: initial;&quot;&gt;&amp;nbsp;&lt;/span&gt;&lt;span style=&quot;background-color: initial;&quot;&gt;) : void&lt;/span&gt;&lt;/div&gt;" style="text;strokeColor=none;fillColor=none;align=left;verticalAlign=top;spacingLeft=4;spacingRight=4;overflow=hidden;rotatable=0;points=[[0,0.5],[1,0.5]];portConstraint=eastwest;whiteSpace=wrap;html=1;" vertex="1" parent="FStrJQChQxe4te-u4X6c-9">
          <mxGeometry y="60" width="440" height="40" as="geometry" />
        </mxCell>
        <mxCell id="rFGMBPtFLbGweJdBF11b-1" style="edgeStyle=orthogonalEdgeStyle;rounded=0;orthogonalLoop=1;jettySize=auto;html=1;entryX=0;entryY=0.5;entryDx=0;entryDy=0;endArrow=block;endFill=0;" edge="1" parent="1" source="FStrJQChQxe4te-u4X6c-17" target="396qlQ5B3hLJf8_UHIIY-14">
          <mxGeometry relative="1" as="geometry" />
        </mxCell>
        <mxCell id="lxra6J1Z8iuQaPRAFH1F-3" style="edgeStyle=orthogonalEdgeStyle;rounded=0;orthogonalLoop=1;jettySize=auto;html=1;dashed=1;endArrow=open;endFill=0;" edge="1" parent="1" source="FStrJQChQxe4te-u4X6c-17" target="25ByzeKxXQ6RjnZrFQ-E-6">
          <mxGeometry relative="1" as="geometry">
            <Array as="points">
              <mxPoint x="-4600" y="5740" />
              <mxPoint x="-4600" y="5160" />
            </Array>
          </mxGeometry>
        </mxCell>
        <mxCell id="lxra6J1Z8iuQaPRAFH1F-4" style="edgeStyle=orthogonalEdgeStyle;rounded=0;orthogonalLoop=1;jettySize=auto;html=1;dashed=1;endArrow=open;endFill=0;" edge="1" parent="1" source="FStrJQChQxe4te-u4X6c-17" target="gxKatDsyWYHASI4oytr7-11">
          <mxGeometry relative="1" as="geometry">
            <Array as="points">
              <mxPoint x="-4680" y="5720" />
              <mxPoint x="-4680" y="5280" />
            </Array>
          </mxGeometry>
        </mxCell>
        <mxCell id="lxra6J1Z8iuQaPRAFH1F-5" style="edgeStyle=orthogonalEdgeStyle;rounded=0;orthogonalLoop=1;jettySize=auto;html=1;dashed=1;endArrow=open;endFill=0;" edge="1" parent="1" source="FStrJQChQxe4te-u4X6c-17" target="gxKatDsyWYHASI4oytr7-7">
          <mxGeometry relative="1" as="geometry">
            <Array as="points">
              <mxPoint x="-4620" y="5750" />
              <mxPoint x="-4620" y="5460" />
            </Array>
          </mxGeometry>
        </mxCell>
        <mxCell id="lxra6J1Z8iuQaPRAFH1F-6" style="edgeStyle=orthogonalEdgeStyle;rounded=0;orthogonalLoop=1;jettySize=auto;html=1;dashed=1;endArrow=open;endFill=0;" edge="1" parent="1" source="FStrJQChQxe4te-u4X6c-17" target="gxKatDsyWYHASI4oytr7-3">
          <mxGeometry relative="1" as="geometry">
            <Array as="points">
              <mxPoint x="-4630" y="5710" />
              <mxPoint x="-4630" y="5630" />
            </Array>
          </mxGeometry>
        </mxCell>
        <mxCell id="FStrJQChQxe4te-u4X6c-17" value="deleteBook_Controller" style="swimlane;fontStyle=1;align=center;verticalAlign=top;childLayout=stackLayout;horizontal=1;startSize=26;horizontalStack=0;resizeParent=1;resizeParentMax=0;resizeLast=0;collapsible=1;marginBottom=0;whiteSpace=wrap;html=1;" vertex="1" parent="1">
          <mxGeometry x="-5250" y="5680" width="440" height="100" as="geometry" />
        </mxCell>
        <mxCell id="FStrJQChQxe4te-u4X6c-18" value="+ field: type" style="text;strokeColor=none;fillColor=none;align=left;verticalAlign=top;spacingLeft=4;spacingRight=4;overflow=hidden;rotatable=0;points=[[0,0.5],[1,0.5]];portConstraint=eastwest;whiteSpace=wrap;html=1;" vertex="1" parent="FStrJQChQxe4te-u4X6c-17">
          <mxGeometry y="26" width="440" height="26" as="geometry" />
        </mxCell>
        <mxCell id="FStrJQChQxe4te-u4X6c-19" value="" style="line;strokeWidth=1;fillColor=none;align=left;verticalAlign=middle;spacingTop=-1;spacingLeft=3;spacingRight=3;rotatable=0;labelPosition=right;points=[];portConstraint=eastwest;strokeColor=inherit;" vertex="1" parent="FStrJQChQxe4te-u4X6c-17">
          <mxGeometry y="52" width="440" height="8" as="geometry" />
        </mxCell>
        <mxCell id="FStrJQChQxe4te-u4X6c-20" value="#doGet( request : HttpServletRequest, response HttpServletResponse ) : void&lt;div&gt;#doPost(&amp;nbsp;&lt;span style=&quot;background-color: initial;&quot;&gt;request : HttpServletRequest, response HttpServletResponse&lt;/span&gt;&lt;span style=&quot;background-color: initial;&quot;&gt;&amp;nbsp;&lt;/span&gt;&lt;span style=&quot;background-color: initial;&quot;&gt;) : void&lt;/span&gt;&lt;/div&gt;" style="text;strokeColor=none;fillColor=none;align=left;verticalAlign=top;spacingLeft=4;spacingRight=4;overflow=hidden;rotatable=0;points=[[0,0.5],[1,0.5]];portConstraint=eastwest;whiteSpace=wrap;html=1;" vertex="1" parent="FStrJQChQxe4te-u4X6c-17">
          <mxGeometry y="60" width="440" height="40" as="geometry" />
        </mxCell>
        <mxCell id="rFGMBPtFLbGweJdBF11b-3" style="edgeStyle=orthogonalEdgeStyle;rounded=0;orthogonalLoop=1;jettySize=auto;html=1;entryX=0;entryY=0.5;entryDx=0;entryDy=0;endArrow=block;endFill=0;" edge="1" parent="1" source="FStrJQChQxe4te-u4X6c-21" target="396qlQ5B3hLJf8_UHIIY-14">
          <mxGeometry relative="1" as="geometry" />
        </mxCell>
        <mxCell id="CqCNXm84BIxn-8kVymhy-16" style="edgeStyle=orthogonalEdgeStyle;rounded=0;orthogonalLoop=1;jettySize=auto;html=1;dashed=1;endArrow=open;endFill=0;" edge="1" parent="1" source="FStrJQChQxe4te-u4X6c-21" target="gxKatDsyWYHASI4oytr7-11">
          <mxGeometry relative="1" as="geometry">
            <Array as="points">
              <mxPoint x="-4600" y="5580" />
              <mxPoint x="-4600" y="5280" />
            </Array>
          </mxGeometry>
        </mxCell>
        <mxCell id="CqCNXm84BIxn-8kVymhy-17" style="edgeStyle=orthogonalEdgeStyle;rounded=0;orthogonalLoop=1;jettySize=auto;html=1;dashed=1;endArrow=open;endFill=0;" edge="1" parent="1" source="FStrJQChQxe4te-u4X6c-21" target="gxKatDsyWYHASI4oytr7-7">
          <mxGeometry relative="1" as="geometry">
            <Array as="points">
              <mxPoint x="-4620" y="5640" />
              <mxPoint x="-4620" y="5460" />
            </Array>
          </mxGeometry>
        </mxCell>
        <mxCell id="lxra6J1Z8iuQaPRAFH1F-1" style="edgeStyle=orthogonalEdgeStyle;rounded=0;orthogonalLoop=1;jettySize=auto;html=1;dashed=1;endArrow=open;endFill=0;" edge="1" parent="1" source="FStrJQChQxe4te-u4X6c-21" target="kUz0gBFOLJOMzMmLlgTL-1">
          <mxGeometry relative="1" as="geometry">
            <Array as="points">
              <mxPoint x="-4720" y="5570" />
              <mxPoint x="-4720" y="5540" />
            </Array>
          </mxGeometry>
        </mxCell>
        <mxCell id="lxra6J1Z8iuQaPRAFH1F-2" style="edgeStyle=orthogonalEdgeStyle;rounded=0;orthogonalLoop=1;jettySize=auto;html=1;dashed=1;endArrow=open;endFill=0;" edge="1" parent="1" source="FStrJQChQxe4te-u4X6c-21" target="25ByzeKxXQ6RjnZrFQ-E-6">
          <mxGeometry relative="1" as="geometry">
            <Array as="points">
              <mxPoint x="-4600" y="5650" />
              <mxPoint x="-4600" y="5160" />
            </Array>
          </mxGeometry>
        </mxCell>
        <mxCell id="FStrJQChQxe4te-u4X6c-21" value="updateBook_Controller" style="swimlane;fontStyle=1;align=center;verticalAlign=top;childLayout=stackLayout;horizontal=1;startSize=26;horizontalStack=0;resizeParent=1;resizeParentMax=0;resizeLast=0;collapsible=1;marginBottom=0;whiteSpace=wrap;html=1;" vertex="1" parent="1">
          <mxGeometry x="-5250" y="5564" width="440" height="100" as="geometry" />
        </mxCell>
        <mxCell id="FStrJQChQxe4te-u4X6c-22" value="+ field: type" style="text;strokeColor=none;fillColor=none;align=left;verticalAlign=top;spacingLeft=4;spacingRight=4;overflow=hidden;rotatable=0;points=[[0,0.5],[1,0.5]];portConstraint=eastwest;whiteSpace=wrap;html=1;" vertex="1" parent="FStrJQChQxe4te-u4X6c-21">
          <mxGeometry y="26" width="440" height="26" as="geometry" />
        </mxCell>
        <mxCell id="FStrJQChQxe4te-u4X6c-23" value="" style="line;strokeWidth=1;fillColor=none;align=left;verticalAlign=middle;spacingTop=-1;spacingLeft=3;spacingRight=3;rotatable=0;labelPosition=right;points=[];portConstraint=eastwest;strokeColor=inherit;" vertex="1" parent="FStrJQChQxe4te-u4X6c-21">
          <mxGeometry y="52" width="440" height="8" as="geometry" />
        </mxCell>
        <mxCell id="FStrJQChQxe4te-u4X6c-24" value="#doGet( request : HttpServletRequest, response HttpServletResponse ) : void&lt;div&gt;#doPost(&amp;nbsp;&lt;span style=&quot;background-color: initial;&quot;&gt;request : HttpServletRequest, response HttpServletResponse&lt;/span&gt;&lt;span style=&quot;background-color: initial;&quot;&gt;&amp;nbsp;&lt;/span&gt;&lt;span style=&quot;background-color: initial;&quot;&gt;) : void&lt;/span&gt;&lt;/div&gt;" style="text;strokeColor=none;fillColor=none;align=left;verticalAlign=top;spacingLeft=4;spacingRight=4;overflow=hidden;rotatable=0;points=[[0,0.5],[1,0.5]];portConstraint=eastwest;whiteSpace=wrap;html=1;" vertex="1" parent="FStrJQChQxe4te-u4X6c-21">
          <mxGeometry y="60" width="440" height="40" as="geometry" />
        </mxCell>
        <mxCell id="CqCNXm84BIxn-8kVymhy-3" style="edgeStyle=orthogonalEdgeStyle;rounded=0;orthogonalLoop=1;jettySize=auto;html=1;dashed=1;endArrow=open;endFill=0;" edge="1" parent="1">
          <mxGeometry relative="1" as="geometry">
            <mxPoint x="-4809" y="5380" as="sourcePoint" />
            <mxPoint x="-4544" y="5280" as="targetPoint" />
            <Array as="points">
              <mxPoint x="-4599" y="5380" />
              <mxPoint x="-4599" y="5280" />
            </Array>
          </mxGeometry>
        </mxCell>
        <mxCell id="CqCNXm84BIxn-8kVymhy-5" style="edgeStyle=orthogonalEdgeStyle;rounded=0;orthogonalLoop=1;jettySize=auto;html=1;dashed=1;" edge="1" parent="1" source="FStrJQChQxe4te-u4X6c-13" target="kUz0gBFOLJOMzMmLlgTL-1">
          <mxGeometry relative="1" as="geometry">
            <Array as="points">
              <mxPoint x="-4720" y="5390" />
              <mxPoint x="-4720" y="5540" />
            </Array>
          </mxGeometry>
        </mxCell>
        <mxCell id="CqCNXm84BIxn-8kVymhy-6" style="edgeStyle=orthogonalEdgeStyle;rounded=0;orthogonalLoop=1;jettySize=auto;html=1;dashed=1;endArrow=open;endFill=0;" edge="1" parent="1" source="FStrJQChQxe4te-u4X6c-13" target="gxKatDsyWYHASI4oytr7-7">
          <mxGeometry relative="1" as="geometry">
            <Array as="points">
              <mxPoint x="-4620" y="5400" />
              <mxPoint x="-4620" y="5460" />
            </Array>
          </mxGeometry>
        </mxCell>
        <mxCell id="CqCNXm84BIxn-8kVymhy-7" style="edgeStyle=orthogonalEdgeStyle;rounded=0;orthogonalLoop=1;jettySize=auto;html=1;dashed=1;endArrow=open;endFill=0;" edge="1" parent="1" source="FStrJQChQxe4te-u4X6c-13" target="gxKatDsyWYHASI4oytr7-3">
          <mxGeometry relative="1" as="geometry">
            <Array as="points">
              <mxPoint x="-4630" y="5360" />
              <mxPoint x="-4630" y="5630" />
            </Array>
          </mxGeometry>
        </mxCell>
        <mxCell id="FStrJQChQxe4te-u4X6c-13" value="Book_Controller" style="swimlane;fontStyle=1;align=center;verticalAlign=top;childLayout=stackLayout;horizontal=1;startSize=26;horizontalStack=0;resizeParent=1;resizeParentMax=0;resizeLast=0;collapsible=1;marginBottom=0;whiteSpace=wrap;html=1;" vertex="1" parent="1">
          <mxGeometry x="-5250" y="5330" width="440" height="100" as="geometry" />
        </mxCell>
        <mxCell id="FStrJQChQxe4te-u4X6c-14" value="+ field: type" style="text;strokeColor=none;fillColor=none;align=left;verticalAlign=top;spacingLeft=4;spacingRight=4;overflow=hidden;rotatable=0;points=[[0,0.5],[1,0.5]];portConstraint=eastwest;whiteSpace=wrap;html=1;" vertex="1" parent="FStrJQChQxe4te-u4X6c-13">
          <mxGeometry y="26" width="440" height="26" as="geometry" />
        </mxCell>
        <mxCell id="FStrJQChQxe4te-u4X6c-15" value="" style="line;strokeWidth=1;fillColor=none;align=left;verticalAlign=middle;spacingTop=-1;spacingLeft=3;spacingRight=3;rotatable=0;labelPosition=right;points=[];portConstraint=eastwest;strokeColor=inherit;" vertex="1" parent="FStrJQChQxe4te-u4X6c-13">
          <mxGeometry y="52" width="440" height="8" as="geometry" />
        </mxCell>
        <mxCell id="FStrJQChQxe4te-u4X6c-16" value="#doGet( request : HttpServletRequest, response HttpServletResponse ) : void&lt;div&gt;#doPost(&amp;nbsp;&lt;span style=&quot;background-color: initial;&quot;&gt;request : HttpServletRequest, response HttpServletResponse&lt;/span&gt;&lt;span style=&quot;background-color: initial;&quot;&gt;&amp;nbsp;&lt;/span&gt;&lt;span style=&quot;background-color: initial;&quot;&gt;) : void&lt;/span&gt;&lt;/div&gt;" style="text;strokeColor=none;fillColor=none;align=left;verticalAlign=top;spacingLeft=4;spacingRight=4;overflow=hidden;rotatable=0;points=[[0,0.5],[1,0.5]];portConstraint=eastwest;whiteSpace=wrap;html=1;" vertex="1" parent="FStrJQChQxe4te-u4X6c-13">
          <mxGeometry y="60" width="440" height="40" as="geometry" />
        </mxCell>
        <mxCell id="25ByzeKxXQ6RjnZrFQ-E-1" value="ArrayList" style="swimlane;fontStyle=1;align=center;verticalAlign=top;childLayout=stackLayout;horizontal=1;startSize=26;horizontalStack=0;resizeParent=1;resizeParentMax=0;resizeLast=0;collapsible=1;marginBottom=0;whiteSpace=wrap;html=1;" vertex="1" parent="1">
          <mxGeometry x="-4540" y="4880" width="160" height="100" as="geometry" />
        </mxCell>
        <mxCell id="25ByzeKxXQ6RjnZrFQ-E-2" value="+ field: type" style="text;strokeColor=none;fillColor=none;align=left;verticalAlign=top;spacingLeft=4;spacingRight=4;overflow=hidden;rotatable=0;points=[[0,0.5],[1,0.5]];portConstraint=eastwest;whiteSpace=wrap;html=1;" vertex="1" parent="25ByzeKxXQ6RjnZrFQ-E-1">
          <mxGeometry y="26" width="160" height="26" as="geometry" />
        </mxCell>
        <mxCell id="25ByzeKxXQ6RjnZrFQ-E-3" value="" style="line;strokeWidth=1;fillColor=none;align=left;verticalAlign=middle;spacingTop=-1;spacingLeft=3;spacingRight=3;rotatable=0;labelPosition=right;points=[];portConstraint=eastwest;strokeColor=inherit;" vertex="1" parent="25ByzeKxXQ6RjnZrFQ-E-1">
          <mxGeometry y="52" width="160" height="8" as="geometry" />
        </mxCell>
        <mxCell id="25ByzeKxXQ6RjnZrFQ-E-4" value="+ add( Book ) : ArrayList&lt;div&gt;+ clear() : void&lt;/div&gt;&lt;div&gt;&lt;br&gt;&lt;/div&gt;" style="text;strokeColor=none;fillColor=none;align=left;verticalAlign=top;spacingLeft=4;spacingRight=4;overflow=hidden;rotatable=0;points=[[0,0.5],[1,0.5]];portConstraint=eastwest;whiteSpace=wrap;html=1;" vertex="1" parent="25ByzeKxXQ6RjnZrFQ-E-1">
          <mxGeometry y="60" width="160" height="40" as="geometry" />
        </mxCell>
        <mxCell id="rFGMBPtFLbGweJdBF11b-15" style="edgeStyle=orthogonalEdgeStyle;rounded=0;orthogonalLoop=1;jettySize=auto;html=1;endArrow=open;endFill=0;dashed=1;" edge="1" parent="1" source="25ByzeKxXQ6RjnZrFQ-E-6" target="25ByzeKxXQ6RjnZrFQ-E-27">
          <mxGeometry relative="1" as="geometry" />
        </mxCell>
        <mxCell id="rFGMBPtFLbGweJdBF11b-16" style="edgeStyle=orthogonalEdgeStyle;rounded=0;orthogonalLoop=1;jettySize=auto;html=1;endArrow=open;endFill=0;" edge="1" parent="1" source="25ByzeKxXQ6RjnZrFQ-E-6" target="uWlacTdR_QAtoBVKEiq4-1">
          <mxGeometry relative="1" as="geometry" />
        </mxCell>
        <mxCell id="rFGMBPtFLbGweJdBF11b-17" style="edgeStyle=orthogonalEdgeStyle;rounded=0;orthogonalLoop=1;jettySize=auto;html=1;endArrow=open;endFill=0;" edge="1" parent="1" source="25ByzeKxXQ6RjnZrFQ-E-6" target="yFr8bbc78irt6pdwYR_X-1">
          <mxGeometry relative="1" as="geometry" />
        </mxCell>
        <mxCell id="rFGMBPtFLbGweJdBF11b-18" style="edgeStyle=orthogonalEdgeStyle;rounded=0;orthogonalLoop=1;jettySize=auto;html=1;endArrow=classicThin;endFill=1;" edge="1" parent="1" source="25ByzeKxXQ6RjnZrFQ-E-6" target="yFr8bbc78irt6pdwYR_X-6">
          <mxGeometry relative="1" as="geometry">
            <Array as="points">
              <mxPoint x="-3750" y="5145" />
              <mxPoint x="-3750" y="5450" />
            </Array>
          </mxGeometry>
        </mxCell>
        <mxCell id="rFGMBPtFLbGweJdBF11b-19" style="edgeStyle=orthogonalEdgeStyle;rounded=0;orthogonalLoop=1;jettySize=auto;html=1;dashed=1;endArrow=open;endFill=0;" edge="1" parent="1" source="25ByzeKxXQ6RjnZrFQ-E-6" target="kUz0gBFOLJOMzMmLlgTL-1">
          <mxGeometry relative="1" as="geometry" />
        </mxCell>
        <mxCell id="25ByzeKxXQ6RjnZrFQ-E-6" value="BookRepository" style="swimlane;fontStyle=1;align=center;verticalAlign=top;childLayout=stackLayout;horizontal=1;startSize=26;horizontalStack=0;resizeParent=1;resizeParentMax=0;resizeLast=0;collapsible=1;marginBottom=0;whiteSpace=wrap;html=1;" vertex="1" parent="1">
          <mxGeometry x="-4100" y="5040" width="250" height="210" as="geometry" />
        </mxCell>
        <mxCell id="25ByzeKxXQ6RjnZrFQ-E-7" value="&lt;u&gt;- instance : BookRepository&lt;/u&gt;&lt;div&gt;&amp;nbsp; conn : Connection&lt;/div&gt;&lt;div&gt;&amp;nbsp; pstmt : PreparedStatement&lt;/div&gt;&lt;div&gt;&amp;nbsp; rs : ResultSet&lt;/div&gt;" style="text;strokeColor=none;fillColor=none;align=left;verticalAlign=top;spacingLeft=4;spacingRight=4;overflow=hidden;rotatable=0;points=[[0,0.5],[1,0.5]];portConstraint=eastwest;whiteSpace=wrap;html=1;" vertex="1" parent="25ByzeKxXQ6RjnZrFQ-E-6">
          <mxGeometry y="26" width="250" height="74" as="geometry" />
        </mxCell>
        <mxCell id="25ByzeKxXQ6RjnZrFQ-E-8" value="" style="line;strokeWidth=1;fillColor=none;align=left;verticalAlign=middle;spacingTop=-1;spacingLeft=3;spacingRight=3;rotatable=0;labelPosition=right;points=[];portConstraint=eastwest;strokeColor=inherit;" vertex="1" parent="25ByzeKxXQ6RjnZrFQ-E-6">
          <mxGeometry y="100" width="250" height="8" as="geometry" />
        </mxCell>
        <mxCell id="25ByzeKxXQ6RjnZrFQ-E-9" value="&lt;u&gt;+ getInstance() : BookRepository&lt;/u&gt;&lt;div&gt;+ getAllBooks() : ArrayList&amp;lt;Book&amp;gt;&lt;/div&gt;&lt;div&gt;+ getBookById( bookId : String ) : Book&lt;/div&gt;&lt;div&gt;+ addBook ( book : Book ) : void&lt;/div&gt;&lt;div&gt;+ updateBook ( book : Book ) : void&lt;/div&gt;&lt;div&gt;+ delBook ( bookId : String ) : void&lt;/div&gt;" style="text;strokeColor=none;fillColor=none;align=left;verticalAlign=top;spacingLeft=4;spacingRight=4;overflow=hidden;rotatable=0;points=[[0,0.5],[1,0.5]];portConstraint=eastwest;whiteSpace=wrap;html=1;" vertex="1" parent="25ByzeKxXQ6RjnZrFQ-E-6">
          <mxGeometry y="108" width="250" height="102" as="geometry" />
        </mxCell>
        <mxCell id="25ByzeKxXQ6RjnZrFQ-E-10" style="edgeStyle=orthogonalEdgeStyle;rounded=0;orthogonalLoop=1;jettySize=auto;html=1;entryX=1.012;entryY=-0.127;entryDx=0;entryDy=0;entryPerimeter=0;dashed=1;endArrow=open;endFill=0;" edge="1" parent="1" source="25ByzeKxXQ6RjnZrFQ-E-6" target="25ByzeKxXQ6RjnZrFQ-E-4">
          <mxGeometry relative="1" as="geometry" />
        </mxCell>
        <mxCell id="25ByzeKxXQ6RjnZrFQ-E-27" value="DBConnection" style="swimlane;fontStyle=1;align=center;verticalAlign=top;childLayout=stackLayout;horizontal=1;startSize=26;horizontalStack=0;resizeParent=1;resizeParentMax=0;resizeLast=0;collapsible=1;marginBottom=0;whiteSpace=wrap;html=1;" vertex="1" parent="1">
          <mxGeometry x="-3650" y="5000" width="180" height="86" as="geometry" />
        </mxCell>
        <mxCell id="25ByzeKxXQ6RjnZrFQ-E-28" value="+ field: type" style="text;strokeColor=none;fillColor=none;align=left;verticalAlign=top;spacingLeft=4;spacingRight=4;overflow=hidden;rotatable=0;points=[[0,0.5],[1,0.5]];portConstraint=eastwest;whiteSpace=wrap;html=1;" vertex="1" parent="25ByzeKxXQ6RjnZrFQ-E-27">
          <mxGeometry y="26" width="180" height="26" as="geometry" />
        </mxCell>
        <mxCell id="25ByzeKxXQ6RjnZrFQ-E-29" value="" style="line;strokeWidth=1;fillColor=none;align=left;verticalAlign=middle;spacingTop=-1;spacingLeft=3;spacingRight=3;rotatable=0;labelPosition=right;points=[];portConstraint=eastwest;strokeColor=inherit;" vertex="1" parent="25ByzeKxXQ6RjnZrFQ-E-27">
          <mxGeometry y="52" width="180" height="8" as="geometry" />
        </mxCell>
        <mxCell id="25ByzeKxXQ6RjnZrFQ-E-30" value="&lt;u&gt;+ getConnection() : Connection&lt;/u&gt;" style="text;strokeColor=none;fillColor=none;align=left;verticalAlign=top;spacingLeft=4;spacingRight=4;overflow=hidden;rotatable=0;points=[[0,0.5],[1,0.5]];portConstraint=eastwest;whiteSpace=wrap;html=1;" vertex="1" parent="25ByzeKxXQ6RjnZrFQ-E-27">
          <mxGeometry y="60" width="180" height="26" as="geometry" />
        </mxCell>
        <mxCell id="uWlacTdR_QAtoBVKEiq4-1" value="Connection" style="swimlane;fontStyle=1;align=center;verticalAlign=top;childLayout=stackLayout;horizontal=1;startSize=26;horizontalStack=0;resizeParent=1;resizeParentMax=0;resizeLast=0;collapsible=1;marginBottom=0;whiteSpace=wrap;html=1;" vertex="1" parent="1">
          <mxGeometry x="-3650" y="5110" width="270" height="86" as="geometry" />
        </mxCell>
        <mxCell id="uWlacTdR_QAtoBVKEiq4-2" value="+ field: type" style="text;strokeColor=none;fillColor=none;align=left;verticalAlign=top;spacingLeft=4;spacingRight=4;overflow=hidden;rotatable=0;points=[[0,0.5],[1,0.5]];portConstraint=eastwest;whiteSpace=wrap;html=1;" vertex="1" parent="uWlacTdR_QAtoBVKEiq4-1">
          <mxGeometry y="26" width="270" height="26" as="geometry" />
        </mxCell>
        <mxCell id="uWlacTdR_QAtoBVKEiq4-3" value="" style="line;strokeWidth=1;fillColor=none;align=left;verticalAlign=middle;spacingTop=-1;spacingLeft=3;spacingRight=3;rotatable=0;labelPosition=right;points=[];portConstraint=eastwest;strokeColor=inherit;" vertex="1" parent="uWlacTdR_QAtoBVKEiq4-1">
          <mxGeometry y="52" width="270" height="8" as="geometry" />
        </mxCell>
        <mxCell id="uWlacTdR_QAtoBVKEiq4-4" value="+ prepareStatement(String) : PreparedStatement" style="text;strokeColor=none;fillColor=none;align=left;verticalAlign=top;spacingLeft=4;spacingRight=4;overflow=hidden;rotatable=0;points=[[0,0.5],[1,0.5]];portConstraint=eastwest;whiteSpace=wrap;html=1;" vertex="1" parent="uWlacTdR_QAtoBVKEiq4-1">
          <mxGeometry y="60" width="270" height="26" as="geometry" />
        </mxCell>
        <mxCell id="yFr8bbc78irt6pdwYR_X-1" value="PreparedStatement" style="swimlane;fontStyle=1;align=center;verticalAlign=top;childLayout=stackLayout;horizontal=1;startSize=26;horizontalStack=0;resizeParent=1;resizeParentMax=0;resizeLast=0;collapsible=1;marginBottom=0;whiteSpace=wrap;html=1;" vertex="1" parent="1">
          <mxGeometry x="-3650" y="5215" width="180" height="140" as="geometry" />
        </mxCell>
        <mxCell id="yFr8bbc78irt6pdwYR_X-2" value="+ field: type" style="text;strokeColor=none;fillColor=none;align=left;verticalAlign=top;spacingLeft=4;spacingRight=4;overflow=hidden;rotatable=0;points=[[0,0.5],[1,0.5]];portConstraint=eastwest;whiteSpace=wrap;html=1;" vertex="1" parent="yFr8bbc78irt6pdwYR_X-1">
          <mxGeometry y="26" width="180" height="26" as="geometry" />
        </mxCell>
        <mxCell id="yFr8bbc78irt6pdwYR_X-3" value="" style="line;strokeWidth=1;fillColor=none;align=left;verticalAlign=middle;spacingTop=-1;spacingLeft=3;spacingRight=3;rotatable=0;labelPosition=right;points=[];portConstraint=eastwest;strokeColor=inherit;" vertex="1" parent="yFr8bbc78irt6pdwYR_X-1">
          <mxGeometry y="52" width="180" height="8" as="geometry" />
        </mxCell>
        <mxCell id="yFr8bbc78irt6pdwYR_X-4" value="+ setString(index, String) : void&lt;div&gt;+ setInt(index, int) : void&lt;/div&gt;&lt;div&gt;+ setLong(index, long) : void&lt;/div&gt;&lt;div&gt;+ executeUpdate() : void&lt;/div&gt;&lt;div&gt;+ executeQuery() : ResultSet&lt;br&gt;&lt;div&gt;&lt;br&gt;&lt;/div&gt;&lt;/div&gt;" style="text;strokeColor=none;fillColor=none;align=left;verticalAlign=top;spacingLeft=4;spacingRight=4;overflow=hidden;rotatable=0;points=[[0,0.5],[1,0.5]];portConstraint=eastwest;whiteSpace=wrap;html=1;" vertex="1" parent="yFr8bbc78irt6pdwYR_X-1">
          <mxGeometry y="60" width="180" height="80" as="geometry" />
        </mxCell>
        <mxCell id="yFr8bbc78irt6pdwYR_X-6" value="ResultSet" style="swimlane;fontStyle=1;align=center;verticalAlign=top;childLayout=stackLayout;horizontal=1;startSize=26;horizontalStack=0;resizeParent=1;resizeParentMax=0;resizeLast=0;collapsible=1;marginBottom=0;whiteSpace=wrap;html=1;" vertex="1" parent="1">
          <mxGeometry x="-3650" y="5385" width="210" height="130" as="geometry" />
        </mxCell>
        <mxCell id="yFr8bbc78irt6pdwYR_X-7" value="+ field: type" style="text;strokeColor=none;fillColor=none;align=left;verticalAlign=top;spacingLeft=4;spacingRight=4;overflow=hidden;rotatable=0;points=[[0,0.5],[1,0.5]];portConstraint=eastwest;whiteSpace=wrap;html=1;" vertex="1" parent="yFr8bbc78irt6pdwYR_X-6">
          <mxGeometry y="26" width="210" height="26" as="geometry" />
        </mxCell>
        <mxCell id="yFr8bbc78irt6pdwYR_X-8" value="" style="line;strokeWidth=1;fillColor=none;align=left;verticalAlign=middle;spacingTop=-1;spacingLeft=3;spacingRight=3;rotatable=0;labelPosition=right;points=[];portConstraint=eastwest;strokeColor=inherit;" vertex="1" parent="yFr8bbc78irt6pdwYR_X-6">
          <mxGeometry y="52" width="210" height="8" as="geometry" />
        </mxCell>
        <mxCell id="yFr8bbc78irt6pdwYR_X-9" value="+ next() : boolean&lt;div&gt;+ getString(index) : String&lt;/div&gt;&lt;div&gt;+ getInt(index) : Int&lt;/div&gt;&lt;div&gt;+ getLong(&lt;span style=&quot;background-color: initial;&quot;&gt;index) : Long&lt;/span&gt;&lt;/div&gt;" style="text;strokeColor=none;fillColor=none;align=left;verticalAlign=top;spacingLeft=4;spacingRight=4;overflow=hidden;rotatable=0;points=[[0,0.5],[1,0.5]];portConstraint=eastwest;whiteSpace=wrap;html=1;" vertex="1" parent="yFr8bbc78irt6pdwYR_X-6">
          <mxGeometry y="60" width="210" height="70" as="geometry" />
        </mxCell>
        <mxCell id="gxKatDsyWYHASI4oytr7-3" value="RequestDispatcher" style="swimlane;fontStyle=1;align=center;verticalAlign=top;childLayout=stackLayout;horizontal=1;startSize=26;horizontalStack=0;resizeParent=1;resizeParentMax=0;resizeLast=0;collapsible=1;marginBottom=0;whiteSpace=wrap;html=1;" vertex="1" parent="1">
          <mxGeometry x="-4595" y="5578" width="320" height="86" as="geometry" />
        </mxCell>
        <mxCell id="gxKatDsyWYHASI4oytr7-4" value="+ field: type" style="text;strokeColor=none;fillColor=none;align=left;verticalAlign=top;spacingLeft=4;spacingRight=4;overflow=hidden;rotatable=0;points=[[0,0.5],[1,0.5]];portConstraint=eastwest;whiteSpace=wrap;html=1;" vertex="1" parent="gxKatDsyWYHASI4oytr7-3">
          <mxGeometry y="26" width="320" height="26" as="geometry" />
        </mxCell>
        <mxCell id="gxKatDsyWYHASI4oytr7-5" value="" style="line;strokeWidth=1;fillColor=none;align=left;verticalAlign=middle;spacingTop=-1;spacingLeft=3;spacingRight=3;rotatable=0;labelPosition=right;points=[];portConstraint=eastwest;strokeColor=inherit;" vertex="1" parent="gxKatDsyWYHASI4oytr7-3">
          <mxGeometry y="52" width="320" height="8" as="geometry" />
        </mxCell>
        <mxCell id="gxKatDsyWYHASI4oytr7-6" value="Forward ( HttpServletRequest, HttpServletResponse )&amp;nbsp;" style="text;strokeColor=none;fillColor=none;align=left;verticalAlign=top;spacingLeft=4;spacingRight=4;overflow=hidden;rotatable=0;points=[[0,0.5],[1,0.5]];portConstraint=eastwest;whiteSpace=wrap;html=1;" vertex="1" parent="gxKatDsyWYHASI4oytr7-3">
          <mxGeometry y="60" width="320" height="26" as="geometry" />
        </mxCell>
        <mxCell id="gxKatDsyWYHASI4oytr7-7" value="HttpServletResponse" style="swimlane;fontStyle=1;align=center;verticalAlign=top;childLayout=stackLayout;horizontal=1;startSize=26;horizontalStack=0;resizeParent=1;resizeParentMax=0;resizeLast=0;collapsible=1;marginBottom=0;whiteSpace=wrap;html=1;" vertex="1" parent="1">
          <mxGeometry x="-4530" y="5385" width="190" height="140" as="geometry" />
        </mxCell>
        <mxCell id="gxKatDsyWYHASI4oytr7-8" value="+ field: type" style="text;strokeColor=none;fillColor=none;align=left;verticalAlign=top;spacingLeft=4;spacingRight=4;overflow=hidden;rotatable=0;points=[[0,0.5],[1,0.5]];portConstraint=eastwest;whiteSpace=wrap;html=1;" vertex="1" parent="gxKatDsyWYHASI4oytr7-7">
          <mxGeometry y="26" width="190" height="26" as="geometry" />
        </mxCell>
        <mxCell id="gxKatDsyWYHASI4oytr7-9" value="" style="line;strokeWidth=1;fillColor=none;align=left;verticalAlign=middle;spacingTop=-1;spacingLeft=3;spacingRight=3;rotatable=0;labelPosition=right;points=[];portConstraint=eastwest;strokeColor=inherit;" vertex="1" parent="gxKatDsyWYHASI4oytr7-7">
          <mxGeometry y="52" width="190" height="8" as="geometry" />
        </mxCell>
        <mxCell id="gxKatDsyWYHASI4oytr7-10" value="+ getParameter() : Object&lt;div&gt;+ setAttribute( String, Object )&lt;/div&gt;&lt;div&gt;+ getAttribute( String ) : Object&lt;/div&gt;&lt;div&gt;+ sendRedirect( String ) : void&lt;/div&gt;&lt;div&gt;+ addCookie( Object ) : void&lt;/div&gt;" style="text;strokeColor=none;fillColor=none;align=left;verticalAlign=top;spacingLeft=4;spacingRight=4;overflow=hidden;rotatable=0;points=[[0,0.5],[1,0.5]];portConstraint=eastwest;whiteSpace=wrap;html=1;" vertex="1" parent="gxKatDsyWYHASI4oytr7-7">
          <mxGeometry y="60" width="190" height="80" as="geometry" />
        </mxCell>
        <mxCell id="gxKatDsyWYHASI4oytr7-11" value="HttpServletRequest" style="swimlane;fontStyle=1;align=center;verticalAlign=top;childLayout=stackLayout;horizontal=1;startSize=26;horizontalStack=0;resizeParent=1;resizeParentMax=0;resizeLast=0;collapsible=1;marginBottom=0;whiteSpace=wrap;html=1;" vertex="1" parent="1">
          <mxGeometry x="-4545" y="5185" width="270" height="190" as="geometry" />
        </mxCell>
        <mxCell id="gxKatDsyWYHASI4oytr7-12" value="+ field: type" style="text;strokeColor=none;fillColor=none;align=left;verticalAlign=top;spacingLeft=4;spacingRight=4;overflow=hidden;rotatable=0;points=[[0,0.5],[1,0.5]];portConstraint=eastwest;whiteSpace=wrap;html=1;" vertex="1" parent="gxKatDsyWYHASI4oytr7-11">
          <mxGeometry y="26" width="270" height="26" as="geometry" />
        </mxCell>
        <mxCell id="gxKatDsyWYHASI4oytr7-13" value="" style="line;strokeWidth=1;fillColor=none;align=left;verticalAlign=middle;spacingTop=-1;spacingLeft=3;spacingRight=3;rotatable=0;labelPosition=right;points=[];portConstraint=eastwest;strokeColor=inherit;" vertex="1" parent="gxKatDsyWYHASI4oytr7-11">
          <mxGeometry y="52" width="270" height="8" as="geometry" />
        </mxCell>
        <mxCell id="gxKatDsyWYHASI4oytr7-14" value="+ getParameter() : Object&lt;div&gt;+ setAttribute( String, Object ) : void&lt;/div&gt;&lt;div&gt;+ getAttribute( String ) : Object&lt;/div&gt;&lt;div&gt;+ getServletContext() :&amp;nbsp;ServletContext&amp;nbsp;&lt;/div&gt;&lt;div&gt;+ getRealPath( String path ) : String&lt;/div&gt;&lt;div&gt;+ setCharacterEncoding ( String charset ) : void&amp;nbsp;&lt;/div&gt;&lt;div&gt;+ getSession ( boolean ) : HttpSession&lt;/div&gt;&lt;div&gt;+ getCookies() : Cookie&lt;/div&gt;" style="text;strokeColor=none;fillColor=none;align=left;verticalAlign=top;spacingLeft=4;spacingRight=4;overflow=hidden;rotatable=0;points=[[0,0.5],[1,0.5]];portConstraint=eastwest;whiteSpace=wrap;html=1;" vertex="1" parent="gxKatDsyWYHASI4oytr7-11">
          <mxGeometry y="60" width="270" height="130" as="geometry" />
        </mxCell>
        <mxCell id="kUz0gBFOLJOMzMmLlgTL-1" value="Book" style="swimlane;fontStyle=1;align=center;verticalAlign=top;childLayout=stackLayout;horizontal=1;startSize=26;horizontalStack=0;resizeParent=1;resizeParentMax=0;resizeLast=0;collapsible=1;marginBottom=0;whiteSpace=wrap;html=1;" vertex="1" parent="1">
          <mxGeometry x="-4095" y="5380" width="240" height="250" as="geometry" />
        </mxCell>
        <mxCell id="kUz0gBFOLJOMzMmLlgTL-2" value="- bookId : String&lt;div&gt;- name : String&lt;/div&gt;&lt;div&gt;- unitPrice : int&lt;/div&gt;&lt;div&gt;- author : String&lt;/div&gt;&lt;div&gt;- description : String&lt;/div&gt;&lt;div&gt;- publisher : String&lt;/div&gt;&lt;div&gt;- category : String&lt;/div&gt;&lt;div&gt;- unitsInStock : Long&lt;/div&gt;&lt;div&gt;- releaseDate : String&lt;/div&gt;&lt;div&gt;- condition : String&lt;/div&gt;&lt;div&gt;- fileName : String&lt;/div&gt;&lt;div&gt;- quantity : int&lt;/div&gt;" style="text;strokeColor=none;fillColor=none;align=left;verticalAlign=top;spacingLeft=4;spacingRight=4;overflow=hidden;rotatable=0;points=[[0,0.5],[1,0.5]];portConstraint=eastwest;whiteSpace=wrap;html=1;" vertex="1" parent="kUz0gBFOLJOMzMmLlgTL-1">
          <mxGeometry y="26" width="240" height="184" as="geometry" />
        </mxCell>
        <mxCell id="kUz0gBFOLJOMzMmLlgTL-3" value="" style="line;strokeWidth=1;fillColor=none;align=left;verticalAlign=middle;spacingTop=-1;spacingLeft=3;spacingRight=3;rotatable=0;labelPosition=right;points=[];portConstraint=eastwest;strokeColor=inherit;" vertex="1" parent="kUz0gBFOLJOMzMmLlgTL-1">
          <mxGeometry y="210" width="240" height="8" as="geometry" />
        </mxCell>
        <mxCell id="kUz0gBFOLJOMzMmLlgTL-4" value="+ getter() / setter ()&amp;nbsp;" style="text;strokeColor=none;fillColor=none;align=left;verticalAlign=top;spacingLeft=4;spacingRight=4;overflow=hidden;rotatable=0;points=[[0,0.5],[1,0.5]];portConstraint=eastwest;whiteSpace=wrap;html=1;" vertex="1" parent="kUz0gBFOLJOMzMmLlgTL-1">
          <mxGeometry y="218" width="240" height="32" as="geometry" />
        </mxCell>
        <mxCell id="rFGMBPtFLbGweJdBF11b-9" style="edgeStyle=orthogonalEdgeStyle;rounded=0;orthogonalLoop=1;jettySize=auto;html=1;dashed=1;endArrow=open;endFill=0;" edge="1" parent="1" source="FStrJQChQxe4te-u4X6c-5" target="gxKatDsyWYHASI4oytr7-7">
          <mxGeometry relative="1" as="geometry">
            <Array as="points">
              <mxPoint x="-4620" y="5170" />
              <mxPoint x="-4620" y="5460" />
            </Array>
          </mxGeometry>
        </mxCell>
        <mxCell id="rFGMBPtFLbGweJdBF11b-11" style="edgeStyle=orthogonalEdgeStyle;rounded=0;orthogonalLoop=1;jettySize=auto;html=1;dashed=1;endArrow=open;endFill=0;" edge="1" parent="1" source="FStrJQChQxe4te-u4X6c-5" target="gxKatDsyWYHASI4oytr7-3">
          <mxGeometry relative="1" as="geometry">
            <Array as="points">
              <mxPoint x="-4630" y="5180" />
              <mxPoint x="-4630" y="5630" />
            </Array>
          </mxGeometry>
        </mxCell>
        <mxCell id="rFGMBPtFLbGweJdBF11b-27" value="MultipartRequest" style="swimlane;fontStyle=1;align=center;verticalAlign=top;childLayout=stackLayout;horizontal=1;startSize=26;horizontalStack=0;resizeParent=1;resizeParentMax=0;resizeLast=0;collapsible=1;marginBottom=0;whiteSpace=wrap;html=1;" vertex="1" parent="1">
          <mxGeometry x="-4960" y="4930" width="200" height="130" as="geometry" />
        </mxCell>
        <mxCell id="rFGMBPtFLbGweJdBF11b-28" value="+ field: type" style="text;strokeColor=none;fillColor=none;align=left;verticalAlign=top;spacingLeft=4;spacingRight=4;overflow=hidden;rotatable=0;points=[[0,0.5],[1,0.5]];portConstraint=eastwest;whiteSpace=wrap;html=1;" vertex="1" parent="rFGMBPtFLbGweJdBF11b-27">
          <mxGeometry y="26" width="200" height="26" as="geometry" />
        </mxCell>
        <mxCell id="rFGMBPtFLbGweJdBF11b-29" value="" style="line;strokeWidth=1;fillColor=none;align=left;verticalAlign=middle;spacingTop=-1;spacingLeft=3;spacingRight=3;rotatable=0;labelPosition=right;points=[];portConstraint=eastwest;strokeColor=inherit;" vertex="1" parent="rFGMBPtFLbGweJdBF11b-27">
          <mxGeometry y="52" width="200" height="8" as="geometry" />
        </mxCell>
        <mxCell id="rFGMBPtFLbGweJdBF11b-30" value="+ getParameter() : Object&lt;div&gt;+ getFileSystemName() : Object&lt;/div&gt;&lt;div&gt;&lt;br&gt;&lt;/div&gt;" style="text;strokeColor=none;fillColor=none;align=left;verticalAlign=top;spacingLeft=4;spacingRight=4;overflow=hidden;rotatable=0;points=[[0,0.5],[1,0.5]];portConstraint=eastwest;whiteSpace=wrap;html=1;" vertex="1" parent="rFGMBPtFLbGweJdBF11b-27">
          <mxGeometry y="60" width="200" height="70" as="geometry" />
        </mxCell>
        <mxCell id="CqCNXm84BIxn-8kVymhy-4" style="edgeStyle=orthogonalEdgeStyle;rounded=0;orthogonalLoop=1;jettySize=auto;html=1;dashed=1;endArrow=open;endFill=0;" edge="1" parent="1" source="FStrJQChQxe4te-u4X6c-14" target="25ByzeKxXQ6RjnZrFQ-E-6">
          <mxGeometry relative="1" as="geometry">
            <Array as="points">
              <mxPoint x="-4600" y="5369" />
              <mxPoint x="-4600" y="5160" />
            </Array>
          </mxGeometry>
        </mxCell>
        <mxCell id="CqCNXm84BIxn-8kVymhy-15" style="edgeStyle=orthogonalEdgeStyle;rounded=0;orthogonalLoop=1;jettySize=auto;html=1;entryX=0.9;entryY=1;entryDx=0;entryDy=0;entryPerimeter=0;dashed=1;endArrow=open;endFill=0;" edge="1" parent="1" source="FStrJQChQxe4te-u4X6c-21" target="rFGMBPtFLbGweJdBF11b-30">
          <mxGeometry relative="1" as="geometry">
            <Array as="points">
              <mxPoint x="-4770" y="5600" />
              <mxPoint x="-4770" y="5060" />
            </Array>
          </mxGeometry>
        </mxCell>
        <mxCell id="lxra6J1Z8iuQaPRAFH1F-69" style="edgeStyle=orthogonalEdgeStyle;rounded=0;orthogonalLoop=1;jettySize=auto;html=1;endArrow=block;endFill=0;" edge="1" parent="1" source="lxra6J1Z8iuQaPRAFH1F-14" target="396qlQ5B3hLJf8_UHIIY-14">
          <mxGeometry relative="1" as="geometry">
            <Array as="points">
              <mxPoint x="-2910" y="5810" />
              <mxPoint x="-4140" y="5810" />
              <mxPoint x="-4140" y="5080" />
            </Array>
          </mxGeometry>
        </mxCell>
        <mxCell id="lxra6J1Z8iuQaPRAFH1F-88" style="edgeStyle=orthogonalEdgeStyle;rounded=0;orthogonalLoop=1;jettySize=auto;html=1;dashed=1;endArrow=open;endFill=0;" edge="1" parent="1" source="lxra6J1Z8iuQaPRAFH1F-14" target="lxra6J1Z8iuQaPRAFH1F-53">
          <mxGeometry relative="1" as="geometry">
            <Array as="points">
              <mxPoint x="-2910" y="6110" />
              <mxPoint x="-4710" y="6110" />
            </Array>
          </mxGeometry>
        </mxCell>
        <mxCell id="lxra6J1Z8iuQaPRAFH1F-90" style="edgeStyle=orthogonalEdgeStyle;rounded=0;orthogonalLoop=1;jettySize=auto;html=1;dashed=1;endArrow=open;endFill=0;" edge="1" parent="1" source="lxra6J1Z8iuQaPRAFH1F-14" target="gxKatDsyWYHASI4oytr7-3">
          <mxGeometry relative="1" as="geometry">
            <Array as="points">
              <mxPoint x="-2920" y="5820" />
              <mxPoint x="-4435" y="5820" />
            </Array>
          </mxGeometry>
        </mxCell>
        <mxCell id="lxra6J1Z8iuQaPRAFH1F-93" style="edgeStyle=orthogonalEdgeStyle;rounded=0;orthogonalLoop=1;jettySize=auto;html=1;dashed=1;endArrow=open;endFill=0;" edge="1" parent="1" source="lxra6J1Z8iuQaPRAFH1F-14" target="gxKatDsyWYHASI4oytr7-7">
          <mxGeometry relative="1" as="geometry">
            <Array as="points">
              <mxPoint x="-2930" y="5830" />
              <mxPoint x="-4230" y="5830" />
              <mxPoint x="-4230" y="5470" />
            </Array>
          </mxGeometry>
        </mxCell>
        <mxCell id="lxra6J1Z8iuQaPRAFH1F-98" style="edgeStyle=orthogonalEdgeStyle;rounded=0;orthogonalLoop=1;jettySize=auto;html=1;dashed=1;endArrow=open;endFill=0;" edge="1" parent="1" source="lxra6J1Z8iuQaPRAFH1F-14" target="gxKatDsyWYHASI4oytr7-11">
          <mxGeometry relative="1" as="geometry">
            <Array as="points">
              <mxPoint x="-2910" y="5770" />
              <mxPoint x="-4210" y="5770" />
              <mxPoint x="-4210" y="5280" />
            </Array>
          </mxGeometry>
        </mxCell>
        <mxCell id="lxra6J1Z8iuQaPRAFH1F-14" value="Shippinginfo_Controller" style="swimlane;fontStyle=1;align=center;verticalAlign=top;childLayout=stackLayout;horizontal=1;startSize=26;horizontalStack=0;resizeParent=1;resizeParentMax=0;resizeLast=0;collapsible=1;marginBottom=0;whiteSpace=wrap;html=1;" vertex="1" parent="1">
          <mxGeometry x="-3130" y="5875" width="440" height="100" as="geometry" />
        </mxCell>
        <mxCell id="lxra6J1Z8iuQaPRAFH1F-15" value="+ field: type" style="text;strokeColor=none;fillColor=none;align=left;verticalAlign=top;spacingLeft=4;spacingRight=4;overflow=hidden;rotatable=0;points=[[0,0.5],[1,0.5]];portConstraint=eastwest;whiteSpace=wrap;html=1;" vertex="1" parent="lxra6J1Z8iuQaPRAFH1F-14">
          <mxGeometry y="26" width="440" height="26" as="geometry" />
        </mxCell>
        <mxCell id="lxra6J1Z8iuQaPRAFH1F-16" value="" style="line;strokeWidth=1;fillColor=none;align=left;verticalAlign=middle;spacingTop=-1;spacingLeft=3;spacingRight=3;rotatable=0;labelPosition=right;points=[];portConstraint=eastwest;strokeColor=inherit;" vertex="1" parent="lxra6J1Z8iuQaPRAFH1F-14">
          <mxGeometry y="52" width="440" height="8" as="geometry" />
        </mxCell>
        <mxCell id="lxra6J1Z8iuQaPRAFH1F-17" value="#doGet( request : HttpServletRequest, response HttpServletResponse ) : void&lt;div&gt;#doPost(&amp;nbsp;&lt;span style=&quot;background-color: initial;&quot;&gt;request : HttpServletRequest, response HttpServletResponse&lt;/span&gt;&lt;span style=&quot;background-color: initial;&quot;&gt;&amp;nbsp;&lt;/span&gt;&lt;span style=&quot;background-color: initial;&quot;&gt;) : void&lt;/span&gt;&lt;/div&gt;" style="text;strokeColor=none;fillColor=none;align=left;verticalAlign=top;spacingLeft=4;spacingRight=4;overflow=hidden;rotatable=0;points=[[0,0.5],[1,0.5]];portConstraint=eastwest;whiteSpace=wrap;html=1;" vertex="1" parent="lxra6J1Z8iuQaPRAFH1F-14">
          <mxGeometry y="60" width="440" height="40" as="geometry" />
        </mxCell>
        <mxCell id="lxra6J1Z8iuQaPRAFH1F-59" style="edgeStyle=orthogonalEdgeStyle;rounded=0;orthogonalLoop=1;jettySize=auto;html=1;dashed=1;endArrow=open;endFill=0;" edge="1" parent="1" source="lxra6J1Z8iuQaPRAFH1F-18" target="lxra6J1Z8iuQaPRAFH1F-53">
          <mxGeometry relative="1" as="geometry">
            <Array as="points">
              <mxPoint x="-4280" y="6110" />
              <mxPoint x="-4710" y="6110" />
            </Array>
          </mxGeometry>
        </mxCell>
        <mxCell id="lxra6J1Z8iuQaPRAFH1F-63" style="edgeStyle=orthogonalEdgeStyle;rounded=0;orthogonalLoop=1;jettySize=auto;html=1;endArrow=block;endFill=0;" edge="1" parent="1" source="lxra6J1Z8iuQaPRAFH1F-18" target="396qlQ5B3hLJf8_UHIIY-14">
          <mxGeometry relative="1" as="geometry">
            <Array as="points">
              <mxPoint x="-4270" y="5810" />
              <mxPoint x="-4140" y="5810" />
              <mxPoint x="-4140" y="5080" />
            </Array>
          </mxGeometry>
        </mxCell>
        <mxCell id="lxra6J1Z8iuQaPRAFH1F-70" style="edgeStyle=orthogonalEdgeStyle;rounded=0;orthogonalLoop=1;jettySize=auto;html=1;dashed=1;endArrow=open;endFill=0;" edge="1" parent="1" source="lxra6J1Z8iuQaPRAFH1F-18" target="gxKatDsyWYHASI4oytr7-11">
          <mxGeometry relative="1" as="geometry">
            <Array as="points">
              <mxPoint x="-4280" y="5770" />
              <mxPoint x="-4210" y="5770" />
              <mxPoint x="-4210" y="5280" />
            </Array>
          </mxGeometry>
        </mxCell>
        <mxCell id="lxra6J1Z8iuQaPRAFH1F-71" style="edgeStyle=orthogonalEdgeStyle;rounded=0;orthogonalLoop=1;jettySize=auto;html=1;dashed=1;" edge="1" parent="1" source="lxra6J1Z8iuQaPRAFH1F-18" target="gxKatDsyWYHASI4oytr7-7">
          <mxGeometry relative="1" as="geometry">
            <Array as="points">
              <mxPoint x="-4300" y="5830" />
              <mxPoint x="-4230" y="5830" />
              <mxPoint x="-4230" y="5465" />
            </Array>
          </mxGeometry>
        </mxCell>
        <mxCell id="lxra6J1Z8iuQaPRAFH1F-72" style="edgeStyle=orthogonalEdgeStyle;rounded=0;orthogonalLoop=1;jettySize=auto;html=1;dashed=1;" edge="1" parent="1" source="lxra6J1Z8iuQaPRAFH1F-18" target="gxKatDsyWYHASI4oytr7-3">
          <mxGeometry relative="1" as="geometry">
            <Array as="points">
              <mxPoint x="-4250" y="5820" />
              <mxPoint x="-4435" y="5820" />
            </Array>
          </mxGeometry>
        </mxCell>
        <mxCell id="lxra6J1Z8iuQaPRAFH1F-18" value="OrderConfirm_Controller" style="swimlane;fontStyle=1;align=center;verticalAlign=top;childLayout=stackLayout;horizontal=1;startSize=26;horizontalStack=0;resizeParent=1;resizeParentMax=0;resizeLast=0;collapsible=1;marginBottom=0;whiteSpace=wrap;html=1;" vertex="1" parent="1">
          <mxGeometry x="-4490" y="5875" width="440" height="100" as="geometry" />
        </mxCell>
        <mxCell id="lxra6J1Z8iuQaPRAFH1F-19" value="+ field: type" style="text;strokeColor=none;fillColor=none;align=left;verticalAlign=top;spacingLeft=4;spacingRight=4;overflow=hidden;rotatable=0;points=[[0,0.5],[1,0.5]];portConstraint=eastwest;whiteSpace=wrap;html=1;" vertex="1" parent="lxra6J1Z8iuQaPRAFH1F-18">
          <mxGeometry y="26" width="440" height="26" as="geometry" />
        </mxCell>
        <mxCell id="lxra6J1Z8iuQaPRAFH1F-20" value="" style="line;strokeWidth=1;fillColor=none;align=left;verticalAlign=middle;spacingTop=-1;spacingLeft=3;spacingRight=3;rotatable=0;labelPosition=right;points=[];portConstraint=eastwest;strokeColor=inherit;" vertex="1" parent="lxra6J1Z8iuQaPRAFH1F-18">
          <mxGeometry y="52" width="440" height="8" as="geometry" />
        </mxCell>
        <mxCell id="lxra6J1Z8iuQaPRAFH1F-21" value="#doGet( request : HttpServletRequest, response HttpServletResponse ) : void&lt;div&gt;#doPost(&amp;nbsp;&lt;span style=&quot;background-color: initial;&quot;&gt;request : HttpServletRequest, response HttpServletResponse&lt;/span&gt;&lt;span style=&quot;background-color: initial;&quot;&gt;&amp;nbsp;&lt;/span&gt;&lt;span style=&quot;background-color: initial;&quot;&gt;) : void&lt;/span&gt;&lt;/div&gt;" style="text;strokeColor=none;fillColor=none;align=left;verticalAlign=top;spacingLeft=4;spacingRight=4;overflow=hidden;rotatable=0;points=[[0,0.5],[1,0.5]];portConstraint=eastwest;whiteSpace=wrap;html=1;" vertex="1" parent="lxra6J1Z8iuQaPRAFH1F-18">
          <mxGeometry y="60" width="440" height="40" as="geometry" />
        </mxCell>
        <mxCell id="lxra6J1Z8iuQaPRAFH1F-45" style="edgeStyle=orthogonalEdgeStyle;rounded=0;orthogonalLoop=1;jettySize=auto;html=1;endArrow=open;endFill=0;dashed=1;" edge="1" parent="1" source="lxra6J1Z8iuQaPRAFH1F-26" target="lxra6J1Z8iuQaPRAFH1F-40">
          <mxGeometry relative="1" as="geometry" />
        </mxCell>
        <mxCell id="lxra6J1Z8iuQaPRAFH1F-46" style="edgeStyle=orthogonalEdgeStyle;rounded=0;orthogonalLoop=1;jettySize=auto;html=1;dashed=1;endArrow=open;endFill=0;" edge="1" parent="1" source="lxra6J1Z8iuQaPRAFH1F-26" target="25ByzeKxXQ6RjnZrFQ-E-1">
          <mxGeometry relative="1" as="geometry">
            <Array as="points">
              <mxPoint x="-4710" y="4920" />
            </Array>
          </mxGeometry>
        </mxCell>
        <mxCell id="lxra6J1Z8iuQaPRAFH1F-47" style="edgeStyle=orthogonalEdgeStyle;rounded=0;orthogonalLoop=1;jettySize=auto;html=1;dashed=1;endArrow=open;endFill=0;" edge="1" parent="1" source="lxra6J1Z8iuQaPRAFH1F-26" target="kUz0gBFOLJOMzMmLlgTL-1">
          <mxGeometry relative="1" as="geometry">
            <Array as="points">
              <mxPoint x="-4730" y="5780" />
              <mxPoint x="-3975" y="5780" />
            </Array>
          </mxGeometry>
        </mxCell>
        <mxCell id="lxra6J1Z8iuQaPRAFH1F-48" style="edgeStyle=orthogonalEdgeStyle;rounded=0;orthogonalLoop=1;jettySize=auto;html=1;dashed=1;endArrow=open;endFill=0;" edge="1" parent="1" source="lxra6J1Z8iuQaPRAFH1F-26" target="25ByzeKxXQ6RjnZrFQ-E-6">
          <mxGeometry relative="1" as="geometry">
            <Array as="points">
              <mxPoint x="-4690" y="5800" />
              <mxPoint x="-4180" y="5800" />
              <mxPoint x="-4180" y="5310" />
              <mxPoint x="-3990" y="5310" />
            </Array>
          </mxGeometry>
        </mxCell>
        <mxCell id="lxra6J1Z8iuQaPRAFH1F-49" style="edgeStyle=orthogonalEdgeStyle;rounded=0;orthogonalLoop=1;jettySize=auto;html=1;dashed=1;endArrow=open;endFill=0;" edge="1" parent="1" source="lxra6J1Z8iuQaPRAFH1F-26" target="gxKatDsyWYHASI4oytr7-3">
          <mxGeometry relative="1" as="geometry">
            <Array as="points">
              <mxPoint x="-4640" y="5820" />
              <mxPoint x="-4435" y="5820" />
            </Array>
          </mxGeometry>
        </mxCell>
        <mxCell id="lxra6J1Z8iuQaPRAFH1F-50" style="edgeStyle=orthogonalEdgeStyle;rounded=0;orthogonalLoop=1;jettySize=auto;html=1;strokeColor=none;dashed=1;endArrow=open;endFill=0;" edge="1" parent="1" source="lxra6J1Z8iuQaPRAFH1F-26" target="gxKatDsyWYHASI4oytr7-7">
          <mxGeometry relative="1" as="geometry">
            <Array as="points">
              <mxPoint x="-4760" y="5770" />
              <mxPoint x="-4220" y="5770" />
              <mxPoint x="-4220" y="5465" />
            </Array>
          </mxGeometry>
        </mxCell>
        <mxCell id="lxra6J1Z8iuQaPRAFH1F-51" style="edgeStyle=orthogonalEdgeStyle;rounded=0;orthogonalLoop=1;jettySize=auto;html=1;dashed=1;endArrow=open;endFill=0;" edge="1" parent="1" target="gxKatDsyWYHASI4oytr7-11">
          <mxGeometry relative="1" as="geometry">
            <mxPoint x="-4770" y="5875" as="sourcePoint" />
            <Array as="points">
              <mxPoint x="-4770" y="5770" />
              <mxPoint x="-4210" y="5770" />
              <mxPoint x="-4210" y="5280" />
            </Array>
          </mxGeometry>
        </mxCell>
        <mxCell id="lxra6J1Z8iuQaPRAFH1F-52" style="edgeStyle=orthogonalEdgeStyle;rounded=0;orthogonalLoop=1;jettySize=auto;html=1;dashed=1;endArrow=open;endFill=0;" edge="1" parent="1" source="lxra6J1Z8iuQaPRAFH1F-26" target="gxKatDsyWYHASI4oytr7-7">
          <mxGeometry relative="1" as="geometry">
            <Array as="points">
              <mxPoint x="-4750" y="5830" />
              <mxPoint x="-4230" y="5830" />
              <mxPoint x="-4230" y="5465" />
            </Array>
          </mxGeometry>
        </mxCell>
        <mxCell id="lxra6J1Z8iuQaPRAFH1F-60" style="edgeStyle=orthogonalEdgeStyle;rounded=0;orthogonalLoop=1;jettySize=auto;html=1;endArrow=block;endFill=0;" edge="1" parent="1" source="lxra6J1Z8iuQaPRAFH1F-26" target="396qlQ5B3hLJf8_UHIIY-14">
          <mxGeometry relative="1" as="geometry">
            <Array as="points">
              <mxPoint x="-4620" y="5810" />
              <mxPoint x="-4140" y="5810" />
              <mxPoint x="-4140" y="5080" />
            </Array>
          </mxGeometry>
        </mxCell>
        <mxCell id="lxra6J1Z8iuQaPRAFH1F-26" value="AddCart_Controller" style="swimlane;fontStyle=1;align=center;verticalAlign=top;childLayout=stackLayout;horizontal=1;startSize=26;horizontalStack=0;resizeParent=1;resizeParentMax=0;resizeLast=0;collapsible=1;marginBottom=0;whiteSpace=wrap;html=1;" vertex="1" parent="1">
          <mxGeometry x="-4950" y="5875" width="440" height="100" as="geometry" />
        </mxCell>
        <mxCell id="lxra6J1Z8iuQaPRAFH1F-27" value="+ field: type" style="text;strokeColor=none;fillColor=none;align=left;verticalAlign=top;spacingLeft=4;spacingRight=4;overflow=hidden;rotatable=0;points=[[0,0.5],[1,0.5]];portConstraint=eastwest;whiteSpace=wrap;html=1;" vertex="1" parent="lxra6J1Z8iuQaPRAFH1F-26">
          <mxGeometry y="26" width="440" height="26" as="geometry" />
        </mxCell>
        <mxCell id="lxra6J1Z8iuQaPRAFH1F-28" value="" style="line;strokeWidth=1;fillColor=none;align=left;verticalAlign=middle;spacingTop=-1;spacingLeft=3;spacingRight=3;rotatable=0;labelPosition=right;points=[];portConstraint=eastwest;strokeColor=inherit;" vertex="1" parent="lxra6J1Z8iuQaPRAFH1F-26">
          <mxGeometry y="52" width="440" height="8" as="geometry" />
        </mxCell>
        <mxCell id="lxra6J1Z8iuQaPRAFH1F-29" value="#doGet( request : HttpServletRequest, response HttpServletResponse ) : void&lt;div&gt;#doPost(&amp;nbsp;&lt;span style=&quot;background-color: initial;&quot;&gt;request : HttpServletRequest, response HttpServletResponse&lt;/span&gt;&lt;span style=&quot;background-color: initial;&quot;&gt;&amp;nbsp;&lt;/span&gt;&lt;span style=&quot;background-color: initial;&quot;&gt;) : void&lt;/span&gt;&lt;/div&gt;" style="text;strokeColor=none;fillColor=none;align=left;verticalAlign=top;spacingLeft=4;spacingRight=4;overflow=hidden;rotatable=0;points=[[0,0.5],[1,0.5]];portConstraint=eastwest;whiteSpace=wrap;html=1;" vertex="1" parent="lxra6J1Z8iuQaPRAFH1F-26">
          <mxGeometry y="60" width="440" height="40" as="geometry" />
        </mxCell>
        <mxCell id="lxra6J1Z8iuQaPRAFH1F-64" style="edgeStyle=orthogonalEdgeStyle;rounded=0;orthogonalLoop=1;jettySize=auto;html=1;endArrow=block;endFill=0;" edge="1" parent="1" source="lxra6J1Z8iuQaPRAFH1F-30" target="396qlQ5B3hLJf8_UHIIY-14">
          <mxGeometry relative="1" as="geometry">
            <Array as="points">
              <mxPoint x="-3820" y="5810" />
              <mxPoint x="-4140" y="5810" />
              <mxPoint x="-4140" y="5080" />
            </Array>
          </mxGeometry>
        </mxCell>
        <mxCell id="lxra6J1Z8iuQaPRAFH1F-78" style="edgeStyle=orthogonalEdgeStyle;rounded=0;orthogonalLoop=1;jettySize=auto;html=1;dashed=1;endArrow=open;endFill=0;" edge="1" parent="1" source="lxra6J1Z8iuQaPRAFH1F-30" target="gxKatDsyWYHASI4oytr7-3">
          <mxGeometry relative="1" as="geometry">
            <Array as="points">
              <mxPoint x="-3830" y="5820" />
              <mxPoint x="-4435" y="5820" />
            </Array>
          </mxGeometry>
        </mxCell>
        <mxCell id="lxra6J1Z8iuQaPRAFH1F-79" style="edgeStyle=orthogonalEdgeStyle;rounded=0;orthogonalLoop=1;jettySize=auto;html=1;dashed=1;endArrow=open;endFill=0;" edge="1" parent="1" source="lxra6J1Z8iuQaPRAFH1F-30" target="gxKatDsyWYHASI4oytr7-7">
          <mxGeometry relative="1" as="geometry">
            <Array as="points">
              <mxPoint x="-3820" y="5830" />
              <mxPoint x="-4230" y="5830" />
              <mxPoint x="-4230" y="5465" />
            </Array>
          </mxGeometry>
        </mxCell>
        <mxCell id="lxra6J1Z8iuQaPRAFH1F-80" style="edgeStyle=orthogonalEdgeStyle;rounded=0;orthogonalLoop=1;jettySize=auto;html=1;dashed=1;endArrow=open;endFill=0;" edge="1" parent="1" source="lxra6J1Z8iuQaPRAFH1F-30" target="gxKatDsyWYHASI4oytr7-11">
          <mxGeometry relative="1" as="geometry">
            <Array as="points">
              <mxPoint x="-3810" y="5770" />
              <mxPoint x="-4210" y="5770" />
              <mxPoint x="-4210" y="5280" />
            </Array>
          </mxGeometry>
        </mxCell>
        <mxCell id="lxra6J1Z8iuQaPRAFH1F-83" style="edgeStyle=orthogonalEdgeStyle;rounded=0;orthogonalLoop=1;jettySize=auto;html=1;dashed=1;endArrow=open;endFill=0;" edge="1" parent="1" source="lxra6J1Z8iuQaPRAFH1F-30" target="25ByzeKxXQ6RjnZrFQ-E-1">
          <mxGeometry relative="1" as="geometry">
            <Array as="points">
              <mxPoint x="-3790" y="5780" />
              <mxPoint x="-3310" y="5780" />
              <mxPoint x="-3310" y="4930" />
            </Array>
          </mxGeometry>
        </mxCell>
        <mxCell id="lxra6J1Z8iuQaPRAFH1F-84" style="edgeStyle=orthogonalEdgeStyle;rounded=0;orthogonalLoop=1;jettySize=auto;html=1;dashed=1;endArrow=open;endFill=0;" edge="1" parent="1" source="lxra6J1Z8iuQaPRAFH1F-30" target="lxra6J1Z8iuQaPRAFH1F-40">
          <mxGeometry relative="1" as="geometry">
            <Array as="points">
              <mxPoint x="-3821" y="6070" />
              <mxPoint x="-4925" y="6070" />
            </Array>
          </mxGeometry>
        </mxCell>
        <mxCell id="lxra6J1Z8iuQaPRAFH1F-30" value="RemoveCart_Controller" style="swimlane;fontStyle=1;align=center;verticalAlign=top;childLayout=stackLayout;horizontal=1;startSize=26;horizontalStack=0;resizeParent=1;resizeParentMax=0;resizeLast=0;collapsible=1;marginBottom=0;whiteSpace=wrap;html=1;" vertex="1" parent="1">
          <mxGeometry x="-4041" y="5875" width="440" height="100" as="geometry" />
        </mxCell>
        <mxCell id="lxra6J1Z8iuQaPRAFH1F-31" value="+ field: type" style="text;strokeColor=none;fillColor=none;align=left;verticalAlign=top;spacingLeft=4;spacingRight=4;overflow=hidden;rotatable=0;points=[[0,0.5],[1,0.5]];portConstraint=eastwest;whiteSpace=wrap;html=1;" vertex="1" parent="lxra6J1Z8iuQaPRAFH1F-30">
          <mxGeometry y="26" width="440" height="26" as="geometry" />
        </mxCell>
        <mxCell id="lxra6J1Z8iuQaPRAFH1F-32" value="" style="line;strokeWidth=1;fillColor=none;align=left;verticalAlign=middle;spacingTop=-1;spacingLeft=3;spacingRight=3;rotatable=0;labelPosition=right;points=[];portConstraint=eastwest;strokeColor=inherit;" vertex="1" parent="lxra6J1Z8iuQaPRAFH1F-30">
          <mxGeometry y="52" width="440" height="8" as="geometry" />
        </mxCell>
        <mxCell id="lxra6J1Z8iuQaPRAFH1F-33" value="#doGet( request : HttpServletRequest, response HttpServletResponse ) : void&lt;div&gt;#doPost(&amp;nbsp;&lt;span style=&quot;background-color: initial;&quot;&gt;request : HttpServletRequest, response HttpServletResponse&lt;/span&gt;&lt;span style=&quot;background-color: initial;&quot;&gt;&amp;nbsp;&lt;/span&gt;&lt;span style=&quot;background-color: initial;&quot;&gt;) : void&lt;/span&gt;&lt;/div&gt;" style="text;strokeColor=none;fillColor=none;align=left;verticalAlign=top;spacingLeft=4;spacingRight=4;overflow=hidden;rotatable=0;points=[[0,0.5],[1,0.5]];portConstraint=eastwest;whiteSpace=wrap;html=1;" vertex="1" parent="lxra6J1Z8iuQaPRAFH1F-30">
          <mxGeometry y="60" width="440" height="40" as="geometry" />
        </mxCell>
        <mxCell id="lxra6J1Z8iuQaPRAFH1F-65" style="edgeStyle=orthogonalEdgeStyle;rounded=0;orthogonalLoop=1;jettySize=auto;html=1;endArrow=block;endFill=0;" edge="1" parent="1" source="lxra6J1Z8iuQaPRAFH1F-35" target="396qlQ5B3hLJf8_UHIIY-14">
          <mxGeometry relative="1" as="geometry">
            <Array as="points">
              <mxPoint x="-3360" y="5810" />
              <mxPoint x="-4140" y="5810" />
              <mxPoint x="-4140" y="5080" />
            </Array>
          </mxGeometry>
        </mxCell>
        <mxCell id="lxra6J1Z8iuQaPRAFH1F-75" style="edgeStyle=orthogonalEdgeStyle;rounded=0;orthogonalLoop=1;jettySize=auto;html=1;dashed=1;endArrow=open;endFill=0;" edge="1" parent="1" source="lxra6J1Z8iuQaPRAFH1F-35" target="25ByzeKxXQ6RjnZrFQ-E-1">
          <mxGeometry relative="1" as="geometry">
            <Array as="points">
              <mxPoint x="-3310" y="4923" />
            </Array>
          </mxGeometry>
        </mxCell>
        <mxCell id="lxra6J1Z8iuQaPRAFH1F-77" style="edgeStyle=orthogonalEdgeStyle;rounded=0;orthogonalLoop=1;jettySize=auto;html=1;dashed=1;" edge="1" parent="1" source="lxra6J1Z8iuQaPRAFH1F-35" target="lxra6J1Z8iuQaPRAFH1F-40">
          <mxGeometry relative="1" as="geometry">
            <Array as="points">
              <mxPoint x="-3360" y="6070" />
              <mxPoint x="-4925" y="6070" />
            </Array>
          </mxGeometry>
        </mxCell>
        <mxCell id="lxra6J1Z8iuQaPRAFH1F-85" style="edgeStyle=orthogonalEdgeStyle;rounded=0;orthogonalLoop=1;jettySize=auto;html=1;dashed=1;endArrow=open;endFill=0;" edge="1" parent="1" source="lxra6J1Z8iuQaPRAFH1F-35" target="gxKatDsyWYHASI4oytr7-11">
          <mxGeometry relative="1" as="geometry">
            <Array as="points">
              <mxPoint x="-3370" y="5770" />
              <mxPoint x="-4210" y="5770" />
              <mxPoint x="-4210" y="5280" />
            </Array>
          </mxGeometry>
        </mxCell>
        <mxCell id="lxra6J1Z8iuQaPRAFH1F-86" style="edgeStyle=orthogonalEdgeStyle;rounded=0;orthogonalLoop=1;jettySize=auto;html=1;dashed=1;endArrow=open;endFill=0;" edge="1" parent="1" source="lxra6J1Z8iuQaPRAFH1F-35" target="gxKatDsyWYHASI4oytr7-7">
          <mxGeometry relative="1" as="geometry">
            <Array as="points">
              <mxPoint x="-3380" y="5830" />
              <mxPoint x="-4230" y="5830" />
              <mxPoint x="-4230" y="5465" />
            </Array>
          </mxGeometry>
        </mxCell>
        <mxCell id="lxra6J1Z8iuQaPRAFH1F-87" style="edgeStyle=orthogonalEdgeStyle;rounded=0;orthogonalLoop=1;jettySize=auto;html=1;dashed=1;endArrow=open;endFill=0;" edge="1" parent="1">
          <mxGeometry relative="1" as="geometry">
            <mxPoint x="-3389.923076923078" y="5875.000000000001" as="sourcePoint" />
            <mxPoint x="-4435" y="5664" as="targetPoint" />
            <Array as="points">
              <mxPoint x="-3390" y="5820" />
              <mxPoint x="-4435" y="5820" />
            </Array>
          </mxGeometry>
        </mxCell>
        <mxCell id="lxra6J1Z8iuQaPRAFH1F-35" value="Remove_AllCart_Controller" style="swimlane;fontStyle=1;align=center;verticalAlign=top;childLayout=stackLayout;horizontal=1;startSize=26;horizontalStack=0;resizeParent=1;resizeParentMax=0;resizeLast=0;collapsible=1;marginBottom=0;whiteSpace=wrap;html=1;" vertex="1" parent="1">
          <mxGeometry x="-3580" y="5875" width="440" height="100" as="geometry" />
        </mxCell>
        <mxCell id="lxra6J1Z8iuQaPRAFH1F-36" value="+ field: type" style="text;strokeColor=none;fillColor=none;align=left;verticalAlign=top;spacingLeft=4;spacingRight=4;overflow=hidden;rotatable=0;points=[[0,0.5],[1,0.5]];portConstraint=eastwest;whiteSpace=wrap;html=1;" vertex="1" parent="lxra6J1Z8iuQaPRAFH1F-35">
          <mxGeometry y="26" width="440" height="26" as="geometry" />
        </mxCell>
        <mxCell id="lxra6J1Z8iuQaPRAFH1F-37" value="" style="line;strokeWidth=1;fillColor=none;align=left;verticalAlign=middle;spacingTop=-1;spacingLeft=3;spacingRight=3;rotatable=0;labelPosition=right;points=[];portConstraint=eastwest;strokeColor=inherit;" vertex="1" parent="lxra6J1Z8iuQaPRAFH1F-35">
          <mxGeometry y="52" width="440" height="8" as="geometry" />
        </mxCell>
        <mxCell id="lxra6J1Z8iuQaPRAFH1F-38" value="#doGet( request : HttpServletRequest, response HttpServletResponse ) : void&lt;div&gt;#doPost(&amp;nbsp;&lt;span style=&quot;background-color: initial;&quot;&gt;request : HttpServletRequest, response HttpServletResponse&lt;/span&gt;&lt;span style=&quot;background-color: initial;&quot;&gt;&amp;nbsp;&lt;/span&gt;&lt;span style=&quot;background-color: initial;&quot;&gt;) : void&lt;/span&gt;&lt;/div&gt;" style="text;strokeColor=none;fillColor=none;align=left;verticalAlign=top;spacingLeft=4;spacingRight=4;overflow=hidden;rotatable=0;points=[[0,0.5],[1,0.5]];portConstraint=eastwest;whiteSpace=wrap;html=1;" vertex="1" parent="lxra6J1Z8iuQaPRAFH1F-35">
          <mxGeometry y="60" width="440" height="40" as="geometry" />
        </mxCell>
        <mxCell id="lxra6J1Z8iuQaPRAFH1F-40" value="HttpSession" style="swimlane;fontStyle=1;align=center;verticalAlign=top;childLayout=stackLayout;horizontal=1;startSize=26;horizontalStack=0;resizeParent=1;resizeParentMax=0;resizeLast=0;collapsible=1;marginBottom=0;whiteSpace=wrap;html=1;" vertex="1" parent="1">
          <mxGeometry x="-5030" y="6160" width="210" height="86" as="geometry" />
        </mxCell>
        <mxCell id="lxra6J1Z8iuQaPRAFH1F-41" value="+ field: type" style="text;strokeColor=none;fillColor=none;align=left;verticalAlign=top;spacingLeft=4;spacingRight=4;overflow=hidden;rotatable=0;points=[[0,0.5],[1,0.5]];portConstraint=eastwest;whiteSpace=wrap;html=1;" vertex="1" parent="lxra6J1Z8iuQaPRAFH1F-40">
          <mxGeometry y="26" width="210" height="26" as="geometry" />
        </mxCell>
        <mxCell id="lxra6J1Z8iuQaPRAFH1F-42" value="" style="line;strokeWidth=1;fillColor=none;align=left;verticalAlign=middle;spacingTop=-1;spacingLeft=3;spacingRight=3;rotatable=0;labelPosition=right;points=[];portConstraint=eastwest;strokeColor=inherit;" vertex="1" parent="lxra6J1Z8iuQaPRAFH1F-40">
          <mxGeometry y="52" width="210" height="8" as="geometry" />
        </mxCell>
        <mxCell id="lxra6J1Z8iuQaPRAFH1F-43" value="+ getAttribute( String ) : Object" style="text;strokeColor=none;fillColor=none;align=left;verticalAlign=top;spacingLeft=4;spacingRight=4;overflow=hidden;rotatable=0;points=[[0,0.5],[1,0.5]];portConstraint=eastwest;whiteSpace=wrap;html=1;" vertex="1" parent="lxra6J1Z8iuQaPRAFH1F-40">
          <mxGeometry y="60" width="210" height="26" as="geometry" />
        </mxCell>
        <mxCell id="lxra6J1Z8iuQaPRAFH1F-53" value="Cookie" style="swimlane;fontStyle=1;align=center;verticalAlign=top;childLayout=stackLayout;horizontal=1;startSize=26;horizontalStack=0;resizeParent=1;resizeParentMax=0;resizeLast=0;collapsible=1;marginBottom=0;whiteSpace=wrap;html=1;" vertex="1" parent="1">
          <mxGeometry x="-4790" y="6160" width="160" height="86" as="geometry" />
        </mxCell>
        <mxCell id="lxra6J1Z8iuQaPRAFH1F-54" value="+ field: type" style="text;strokeColor=none;fillColor=none;align=left;verticalAlign=top;spacingLeft=4;spacingRight=4;overflow=hidden;rotatable=0;points=[[0,0.5],[1,0.5]];portConstraint=eastwest;whiteSpace=wrap;html=1;" vertex="1" parent="lxra6J1Z8iuQaPRAFH1F-53">
          <mxGeometry y="26" width="160" height="26" as="geometry" />
        </mxCell>
        <mxCell id="lxra6J1Z8iuQaPRAFH1F-55" value="" style="line;strokeWidth=1;fillColor=none;align=left;verticalAlign=middle;spacingTop=-1;spacingLeft=3;spacingRight=3;rotatable=0;labelPosition=right;points=[];portConstraint=eastwest;strokeColor=inherit;" vertex="1" parent="lxra6J1Z8iuQaPRAFH1F-53">
          <mxGeometry y="52" width="160" height="8" as="geometry" />
        </mxCell>
        <mxCell id="lxra6J1Z8iuQaPRAFH1F-56" value="+ getValue() : String" style="text;strokeColor=none;fillColor=none;align=left;verticalAlign=top;spacingLeft=4;spacingRight=4;overflow=hidden;rotatable=0;points=[[0,0.5],[1,0.5]];portConstraint=eastwest;whiteSpace=wrap;html=1;" vertex="1" parent="lxra6J1Z8iuQaPRAFH1F-53">
          <mxGeometry y="60" width="160" height="26" as="geometry" />
        </mxCell>
      </root>
    </mxGraphModel>
  </diagram>
  <diagram id="J_QLYqCrUKrWeaKQHqXn" name="Board">
    <mxGraphModel grid="1" page="1" gridSize="10" guides="1" tooltips="1" connect="1" arrows="1" fold="1" pageScale="1" pageWidth="10000" pageHeight="10000" math="0" shadow="0">
      <root>
        <mxCell id="0" />
        <mxCell id="1" parent="0" />
        <mxCell id="VixRsfz9ijs23XiR2vSf-1" value="HttpServlet" style="swimlane;fontStyle=0;childLayout=stackLayout;horizontal=1;startSize=26;fillColor=none;horizontalStack=0;resizeParent=1;resizeParentMax=0;resizeLast=0;collapsible=1;marginBottom=0;whiteSpace=wrap;html=1;" vertex="1" parent="1">
          <mxGeometry x="-4065" y="4735" width="140" height="100" as="geometry" />
        </mxCell>
        <mxCell id="VixRsfz9ijs23XiR2vSf-2" value="RequestDispatcher" style="swimlane;fontStyle=1;align=center;verticalAlign=top;childLayout=stackLayout;horizontal=1;startSize=26;horizontalStack=0;resizeParent=1;resizeParentMax=0;resizeLast=0;collapsible=1;marginBottom=0;whiteSpace=wrap;html=1;" vertex="1" parent="1">
          <mxGeometry x="-4140" y="5240" width="320" height="86" as="geometry" />
        </mxCell>
        <mxCell id="VixRsfz9ijs23XiR2vSf-3" value="+ field: type" style="text;strokeColor=none;fillColor=none;align=left;verticalAlign=top;spacingLeft=4;spacingRight=4;overflow=hidden;rotatable=0;points=[[0,0.5],[1,0.5]];portConstraint=eastwest;whiteSpace=wrap;html=1;" vertex="1" parent="VixRsfz9ijs23XiR2vSf-2">
          <mxGeometry y="26" width="320" height="26" as="geometry" />
        </mxCell>
        <mxCell id="VixRsfz9ijs23XiR2vSf-4" value="" style="line;strokeWidth=1;fillColor=none;align=left;verticalAlign=middle;spacingTop=-1;spacingLeft=3;spacingRight=3;rotatable=0;labelPosition=right;points=[];portConstraint=eastwest;strokeColor=inherit;" vertex="1" parent="VixRsfz9ijs23XiR2vSf-2">
          <mxGeometry y="52" width="320" height="8" as="geometry" />
        </mxCell>
        <mxCell id="VixRsfz9ijs23XiR2vSf-5" value="Forward ( HttpServletRequest, HttpServletResponse )&amp;nbsp;" style="text;strokeColor=none;fillColor=none;align=left;verticalAlign=top;spacingLeft=4;spacingRight=4;overflow=hidden;rotatable=0;points=[[0,0.5],[1,0.5]];portConstraint=eastwest;whiteSpace=wrap;html=1;" vertex="1" parent="VixRsfz9ijs23XiR2vSf-2">
          <mxGeometry y="60" width="320" height="26" as="geometry" />
        </mxCell>
        <mxCell id="VixRsfz9ijs23XiR2vSf-6" value="HttpServletResponse" style="swimlane;fontStyle=1;align=center;verticalAlign=top;childLayout=stackLayout;horizontal=1;startSize=26;horizontalStack=0;resizeParent=1;resizeParentMax=0;resizeLast=0;collapsible=1;marginBottom=0;whiteSpace=wrap;html=1;" vertex="1" parent="1">
          <mxGeometry x="-4090" y="5070" width="190" height="140" as="geometry" />
        </mxCell>
        <mxCell id="VixRsfz9ijs23XiR2vSf-7" value="+ field: type" style="text;strokeColor=none;fillColor=none;align=left;verticalAlign=top;spacingLeft=4;spacingRight=4;overflow=hidden;rotatable=0;points=[[0,0.5],[1,0.5]];portConstraint=eastwest;whiteSpace=wrap;html=1;" vertex="1" parent="VixRsfz9ijs23XiR2vSf-6">
          <mxGeometry y="26" width="190" height="26" as="geometry" />
        </mxCell>
        <mxCell id="VixRsfz9ijs23XiR2vSf-8" value="" style="line;strokeWidth=1;fillColor=none;align=left;verticalAlign=middle;spacingTop=-1;spacingLeft=3;spacingRight=3;rotatable=0;labelPosition=right;points=[];portConstraint=eastwest;strokeColor=inherit;" vertex="1" parent="VixRsfz9ijs23XiR2vSf-6">
          <mxGeometry y="52" width="190" height="8" as="geometry" />
        </mxCell>
        <mxCell id="VixRsfz9ijs23XiR2vSf-9" value="+ getParameter() : Object&lt;div&gt;+ setAttribute( String, Object )&lt;/div&gt;&lt;div&gt;+ getAttribute( String ) : Object&lt;/div&gt;&lt;div&gt;+ sendRedirect( String ) : void&lt;/div&gt;&lt;div&gt;+ addCookie( Object ) : void&lt;/div&gt;" style="text;strokeColor=none;fillColor=none;align=left;verticalAlign=top;spacingLeft=4;spacingRight=4;overflow=hidden;rotatable=0;points=[[0,0.5],[1,0.5]];portConstraint=eastwest;whiteSpace=wrap;html=1;" vertex="1" parent="VixRsfz9ijs23XiR2vSf-6">
          <mxGeometry y="60" width="190" height="80" as="geometry" />
        </mxCell>
        <mxCell id="VixRsfz9ijs23XiR2vSf-10" value="HttpServletRequest" style="swimlane;fontStyle=1;align=center;verticalAlign=top;childLayout=stackLayout;horizontal=1;startSize=26;horizontalStack=0;resizeParent=1;resizeParentMax=0;resizeLast=0;collapsible=1;marginBottom=0;whiteSpace=wrap;html=1;" vertex="1" parent="1">
          <mxGeometry x="-4130" y="4860" width="270" height="190" as="geometry" />
        </mxCell>
        <mxCell id="VixRsfz9ijs23XiR2vSf-11" value="+ field: type" style="text;strokeColor=none;fillColor=none;align=left;verticalAlign=top;spacingLeft=4;spacingRight=4;overflow=hidden;rotatable=0;points=[[0,0.5],[1,0.5]];portConstraint=eastwest;whiteSpace=wrap;html=1;" vertex="1" parent="VixRsfz9ijs23XiR2vSf-10">
          <mxGeometry y="26" width="270" height="26" as="geometry" />
        </mxCell>
        <mxCell id="VixRsfz9ijs23XiR2vSf-12" value="" style="line;strokeWidth=1;fillColor=none;align=left;verticalAlign=middle;spacingTop=-1;spacingLeft=3;spacingRight=3;rotatable=0;labelPosition=right;points=[];portConstraint=eastwest;strokeColor=inherit;" vertex="1" parent="VixRsfz9ijs23XiR2vSf-10">
          <mxGeometry y="52" width="270" height="8" as="geometry" />
        </mxCell>
        <mxCell id="VixRsfz9ijs23XiR2vSf-13" value="+ getParameter() : Object&lt;div&gt;+ setAttribute( String, Object ) : void&lt;/div&gt;&lt;div&gt;+ getAttribute( String ) : Object&lt;/div&gt;&lt;div&gt;+ getServletContext() :&amp;nbsp;ServletContext&amp;nbsp;&lt;/div&gt;&lt;div&gt;+ getRealPath( String path ) : String&lt;/div&gt;&lt;div&gt;+ setCharacterEncoding ( String charset ) : void&amp;nbsp;&lt;/div&gt;&lt;div&gt;+ getSession ( boolean ) : HttpSession&lt;/div&gt;&lt;div&gt;+ getCookies() : Cookie&lt;/div&gt;" style="text;strokeColor=none;fillColor=none;align=left;verticalAlign=top;spacingLeft=4;spacingRight=4;overflow=hidden;rotatable=0;points=[[0,0.5],[1,0.5]];portConstraint=eastwest;whiteSpace=wrap;html=1;" vertex="1" parent="VixRsfz9ijs23XiR2vSf-10">
          <mxGeometry y="60" width="270" height="130" as="geometry" />
        </mxCell>
        <mxCell id="deTkrduqZjmsCe11_WvL-1" value="Board" style="swimlane;fontStyle=1;align=center;verticalAlign=top;childLayout=stackLayout;horizontal=1;startSize=26;horizontalStack=0;resizeParent=1;resizeParentMax=0;resizeLast=0;collapsible=1;marginBottom=0;whiteSpace=wrap;html=1;" vertex="1" parent="1">
          <mxGeometry x="-3540" y="5020" width="240" height="200" as="geometry" />
        </mxCell>
        <mxCell id="deTkrduqZjmsCe11_WvL-2" value="- num : int&lt;div&gt;- id : String&lt;/div&gt;&lt;div&gt;- name : String&lt;/div&gt;&lt;div&gt;- subject : String&lt;/div&gt;&lt;div&gt;- content : String&lt;/div&gt;&lt;div&gt;- regist_day : String&lt;/div&gt;&lt;div&gt;- hit : int&lt;/div&gt;&lt;div&gt;- ip : String&lt;/div&gt;&lt;div&gt;&lt;br&gt;&lt;/div&gt;" style="text;strokeColor=none;fillColor=none;align=left;verticalAlign=top;spacingLeft=4;spacingRight=4;overflow=hidden;rotatable=0;points=[[0,0.5],[1,0.5]];portConstraint=eastwest;whiteSpace=wrap;html=1;" vertex="1" parent="deTkrduqZjmsCe11_WvL-1">
          <mxGeometry y="26" width="240" height="134" as="geometry" />
        </mxCell>
        <mxCell id="deTkrduqZjmsCe11_WvL-3" value="" style="line;strokeWidth=1;fillColor=none;align=left;verticalAlign=middle;spacingTop=-1;spacingLeft=3;spacingRight=3;rotatable=0;labelPosition=right;points=[];portConstraint=eastwest;strokeColor=inherit;" vertex="1" parent="deTkrduqZjmsCe11_WvL-1">
          <mxGeometry y="160" width="240" height="8" as="geometry" />
        </mxCell>
        <mxCell id="deTkrduqZjmsCe11_WvL-4" value="+ getter() / setter ()&amp;nbsp;" style="text;strokeColor=none;fillColor=none;align=left;verticalAlign=top;spacingLeft=4;spacingRight=4;overflow=hidden;rotatable=0;points=[[0,0.5],[1,0.5]];portConstraint=eastwest;whiteSpace=wrap;html=1;" vertex="1" parent="deTkrduqZjmsCe11_WvL-1">
          <mxGeometry y="168" width="240" height="32" as="geometry" />
        </mxCell>
        <mxCell id="KDvF2EU61VTkryO-VuTe-18" style="edgeStyle=orthogonalEdgeStyle;rounded=0;orthogonalLoop=1;jettySize=auto;html=1;dashed=1;endArrow=open;endFill=0;" edge="1" parent="1" source="LdTzc5Ds4XPBmI84upQB-1" target="deTkrduqZjmsCe11_WvL-1">
          <mxGeometry relative="1" as="geometry">
            <Array as="points">
              <mxPoint x="-3540" y="4825" />
              <mxPoint x="-3420" y="4825" />
            </Array>
          </mxGeometry>
        </mxCell>
        <mxCell id="KDvF2EU61VTkryO-VuTe-19" style="edgeStyle=orthogonalEdgeStyle;rounded=0;orthogonalLoop=1;jettySize=auto;html=1;dashed=1;endArrow=open;endFill=0;" edge="1" parent="1" source="LdTzc5Ds4XPBmI84upQB-1" target="e9jaqMYBT050itdwWHnv-1">
          <mxGeometry relative="1" as="geometry" />
        </mxCell>
        <mxCell id="KDvF2EU61VTkryO-VuTe-20" style="edgeStyle=orthogonalEdgeStyle;rounded=0;orthogonalLoop=1;jettySize=auto;html=1;endArrow=open;endFill=0;" edge="1" parent="1" source="LdTzc5Ds4XPBmI84upQB-1" target="e9jaqMYBT050itdwWHnv-5">
          <mxGeometry relative="1" as="geometry" />
        </mxCell>
        <mxCell id="KDvF2EU61VTkryO-VuTe-21" style="edgeStyle=orthogonalEdgeStyle;rounded=0;orthogonalLoop=1;jettySize=auto;html=1;endArrow=open;endFill=0;" edge="1" parent="1" source="LdTzc5Ds4XPBmI84upQB-1" target="e9jaqMYBT050itdwWHnv-9">
          <mxGeometry relative="1" as="geometry" />
        </mxCell>
        <mxCell id="KDvF2EU61VTkryO-VuTe-23" style="edgeStyle=orthogonalEdgeStyle;rounded=0;orthogonalLoop=1;jettySize=auto;html=1;endArrow=open;endFill=0;" edge="1" parent="1" source="LdTzc5Ds4XPBmI84upQB-1" target="e9jaqMYBT050itdwWHnv-13">
          <mxGeometry relative="1" as="geometry">
            <Array as="points">
              <mxPoint x="-3240" y="4505" />
              <mxPoint x="-3240" y="4760" />
            </Array>
          </mxGeometry>
        </mxCell>
        <mxCell id="LdTzc5Ds4XPBmI84upQB-1" value="BoardRepository" style="swimlane;fontStyle=1;align=center;verticalAlign=top;childLayout=stackLayout;horizontal=1;startSize=26;horizontalStack=0;resizeParent=1;resizeParentMax=0;resizeLast=0;collapsible=1;marginBottom=0;whiteSpace=wrap;html=1;" vertex="1" parent="1">
          <mxGeometry x="-3820" y="4380" width="450" height="250" as="geometry" />
        </mxCell>
        <mxCell id="LdTzc5Ds4XPBmI84upQB-2" value="&lt;u&gt;- br : BoardRepository&lt;/u&gt;&lt;div&gt;&amp;nbsp; conn : Connection&lt;/div&gt;&lt;div&gt;&amp;nbsp; pstmt : PreparedStatement&lt;/div&gt;&lt;div&gt;&amp;nbsp; rs : ResultSet&lt;/div&gt;" style="text;strokeColor=none;fillColor=none;align=left;verticalAlign=top;spacingLeft=4;spacingRight=4;overflow=hidden;rotatable=0;points=[[0,0.5],[1,0.5]];portConstraint=eastwest;whiteSpace=wrap;html=1;" vertex="1" parent="LdTzc5Ds4XPBmI84upQB-1">
          <mxGeometry y="26" width="450" height="74" as="geometry" />
        </mxCell>
        <mxCell id="LdTzc5Ds4XPBmI84upQB-3" value="" style="line;strokeWidth=1;fillColor=none;align=left;verticalAlign=middle;spacingTop=-1;spacingLeft=3;spacingRight=3;rotatable=0;labelPosition=right;points=[];portConstraint=eastwest;strokeColor=inherit;" vertex="1" parent="LdTzc5Ds4XPBmI84upQB-1">
          <mxGeometry y="100" width="450" height="8" as="geometry" />
        </mxCell>
        <mxCell id="LdTzc5Ds4XPBmI84upQB-4" value="&lt;u&gt;+ getInstance() : BoardRepository&lt;/u&gt;&lt;div&gt;+ insertBoard( board : Board ) : void&lt;/div&gt;&lt;div&gt;+ getListCount ( items : String, text : String ) : int&lt;/div&gt;&lt;div&gt;+ getBoardList( page : int, limit : int, items : String, text : String ) : ArrayList&amp;lt;Board&amp;gt;&lt;/div&gt;&lt;div&gt;+ getLoginNameById( id : String ) : String&lt;/div&gt;&lt;div&gt;+ updateHit( num : int ) : void&lt;/div&gt;&lt;div&gt;+ getBoardByNum( num : int, page : int ) : Board&lt;/div&gt;&lt;div&gt;+ updateBoard( board : Board ) : void&lt;/div&gt;&lt;div&gt;+ deleteBoard( num : int ) : void&lt;/div&gt;" style="text;strokeColor=none;fillColor=none;align=left;verticalAlign=top;spacingLeft=4;spacingRight=4;overflow=hidden;rotatable=0;points=[[0,0.5],[1,0.5]];portConstraint=eastwest;whiteSpace=wrap;html=1;" vertex="1" parent="LdTzc5Ds4XPBmI84upQB-1">
          <mxGeometry y="108" width="450" height="142" as="geometry" />
        </mxCell>
        <mxCell id="e9jaqMYBT050itdwWHnv-1" value="DBConnection" style="swimlane;fontStyle=1;align=center;verticalAlign=top;childLayout=stackLayout;horizontal=1;startSize=26;horizontalStack=0;resizeParent=1;resizeParentMax=0;resizeLast=0;collapsible=1;marginBottom=0;whiteSpace=wrap;html=1;" vertex="1" parent="1">
          <mxGeometry x="-3120" y="4310" width="180" height="86" as="geometry" />
        </mxCell>
        <mxCell id="e9jaqMYBT050itdwWHnv-2" value="+ field: type" style="text;strokeColor=none;fillColor=none;align=left;verticalAlign=top;spacingLeft=4;spacingRight=4;overflow=hidden;rotatable=0;points=[[0,0.5],[1,0.5]];portConstraint=eastwest;whiteSpace=wrap;html=1;" vertex="1" parent="e9jaqMYBT050itdwWHnv-1">
          <mxGeometry y="26" width="180" height="26" as="geometry" />
        </mxCell>
        <mxCell id="e9jaqMYBT050itdwWHnv-3" value="" style="line;strokeWidth=1;fillColor=none;align=left;verticalAlign=middle;spacingTop=-1;spacingLeft=3;spacingRight=3;rotatable=0;labelPosition=right;points=[];portConstraint=eastwest;strokeColor=inherit;" vertex="1" parent="e9jaqMYBT050itdwWHnv-1">
          <mxGeometry y="52" width="180" height="8" as="geometry" />
        </mxCell>
        <mxCell id="e9jaqMYBT050itdwWHnv-4" value="&lt;u&gt;+ getConnection() : Connection&lt;/u&gt;" style="text;strokeColor=none;fillColor=none;align=left;verticalAlign=top;spacingLeft=4;spacingRight=4;overflow=hidden;rotatable=0;points=[[0,0.5],[1,0.5]];portConstraint=eastwest;whiteSpace=wrap;html=1;" vertex="1" parent="e9jaqMYBT050itdwWHnv-1">
          <mxGeometry y="60" width="180" height="26" as="geometry" />
        </mxCell>
        <mxCell id="e9jaqMYBT050itdwWHnv-5" value="Connection" style="swimlane;fontStyle=1;align=center;verticalAlign=top;childLayout=stackLayout;horizontal=1;startSize=26;horizontalStack=0;resizeParent=1;resizeParentMax=0;resizeLast=0;collapsible=1;marginBottom=0;whiteSpace=wrap;html=1;" vertex="1" parent="1">
          <mxGeometry x="-3120" y="4420" width="270" height="100" as="geometry" />
        </mxCell>
        <mxCell id="e9jaqMYBT050itdwWHnv-6" value="+ field: type" style="text;strokeColor=none;fillColor=none;align=left;verticalAlign=top;spacingLeft=4;spacingRight=4;overflow=hidden;rotatable=0;points=[[0,0.5],[1,0.5]];portConstraint=eastwest;whiteSpace=wrap;html=1;" vertex="1" parent="e9jaqMYBT050itdwWHnv-5">
          <mxGeometry y="26" width="270" height="26" as="geometry" />
        </mxCell>
        <mxCell id="e9jaqMYBT050itdwWHnv-7" value="" style="line;strokeWidth=1;fillColor=none;align=left;verticalAlign=middle;spacingTop=-1;spacingLeft=3;spacingRight=3;rotatable=0;labelPosition=right;points=[];portConstraint=eastwest;strokeColor=inherit;" vertex="1" parent="e9jaqMYBT050itdwWHnv-5">
          <mxGeometry y="52" width="270" height="8" as="geometry" />
        </mxCell>
        <mxCell id="e9jaqMYBT050itdwWHnv-8" value="+ prepareStatement(String) : PreparedStatement&lt;div&gt;+ commit() : void&lt;/div&gt;" style="text;strokeColor=none;fillColor=none;align=left;verticalAlign=top;spacingLeft=4;spacingRight=4;overflow=hidden;rotatable=0;points=[[0,0.5],[1,0.5]];portConstraint=eastwest;whiteSpace=wrap;html=1;" vertex="1" parent="e9jaqMYBT050itdwWHnv-5">
          <mxGeometry y="60" width="270" height="40" as="geometry" />
        </mxCell>
        <mxCell id="e9jaqMYBT050itdwWHnv-9" value="PreparedStatement" style="swimlane;fontStyle=1;align=center;verticalAlign=top;childLayout=stackLayout;horizontal=1;startSize=26;horizontalStack=0;resizeParent=1;resizeParentMax=0;resizeLast=0;collapsible=1;marginBottom=0;whiteSpace=wrap;html=1;" vertex="1" parent="1">
          <mxGeometry x="-3120" y="4525" width="180" height="140" as="geometry" />
        </mxCell>
        <mxCell id="e9jaqMYBT050itdwWHnv-10" value="+ field: type" style="text;strokeColor=none;fillColor=none;align=left;verticalAlign=top;spacingLeft=4;spacingRight=4;overflow=hidden;rotatable=0;points=[[0,0.5],[1,0.5]];portConstraint=eastwest;whiteSpace=wrap;html=1;" vertex="1" parent="e9jaqMYBT050itdwWHnv-9">
          <mxGeometry y="26" width="180" height="26" as="geometry" />
        </mxCell>
        <mxCell id="e9jaqMYBT050itdwWHnv-11" value="" style="line;strokeWidth=1;fillColor=none;align=left;verticalAlign=middle;spacingTop=-1;spacingLeft=3;spacingRight=3;rotatable=0;labelPosition=right;points=[];portConstraint=eastwest;strokeColor=inherit;" vertex="1" parent="e9jaqMYBT050itdwWHnv-9">
          <mxGeometry y="52" width="180" height="8" as="geometry" />
        </mxCell>
        <mxCell id="e9jaqMYBT050itdwWHnv-12" value="+ setString(index, String) : void&lt;div&gt;+ setInt(index, int) : void&lt;/div&gt;&lt;div&gt;+ setLong(index, long) : void&lt;/div&gt;&lt;div&gt;+ executeUpdate() : void&lt;/div&gt;&lt;div&gt;+ executeQuery() : ResultSet&lt;br&gt;&lt;div&gt;&lt;br&gt;&lt;/div&gt;&lt;/div&gt;" style="text;strokeColor=none;fillColor=none;align=left;verticalAlign=top;spacingLeft=4;spacingRight=4;overflow=hidden;rotatable=0;points=[[0,0.5],[1,0.5]];portConstraint=eastwest;whiteSpace=wrap;html=1;" vertex="1" parent="e9jaqMYBT050itdwWHnv-9">
          <mxGeometry y="60" width="180" height="80" as="geometry" />
        </mxCell>
        <mxCell id="e9jaqMYBT050itdwWHnv-13" value="ResultSet" style="swimlane;fontStyle=1;align=center;verticalAlign=top;childLayout=stackLayout;horizontal=1;startSize=26;horizontalStack=0;resizeParent=1;resizeParentMax=0;resizeLast=0;collapsible=1;marginBottom=0;whiteSpace=wrap;html=1;" vertex="1" parent="1">
          <mxGeometry x="-3120" y="4695" width="210" height="150" as="geometry" />
        </mxCell>
        <mxCell id="e9jaqMYBT050itdwWHnv-14" value="+ field: type" style="text;strokeColor=none;fillColor=none;align=left;verticalAlign=top;spacingLeft=4;spacingRight=4;overflow=hidden;rotatable=0;points=[[0,0.5],[1,0.5]];portConstraint=eastwest;whiteSpace=wrap;html=1;" vertex="1" parent="e9jaqMYBT050itdwWHnv-13">
          <mxGeometry y="26" width="210" height="26" as="geometry" />
        </mxCell>
        <mxCell id="e9jaqMYBT050itdwWHnv-15" value="" style="line;strokeWidth=1;fillColor=none;align=left;verticalAlign=middle;spacingTop=-1;spacingLeft=3;spacingRight=3;rotatable=0;labelPosition=right;points=[];portConstraint=eastwest;strokeColor=inherit;" vertex="1" parent="e9jaqMYBT050itdwWHnv-13">
          <mxGeometry y="52" width="210" height="8" as="geometry" />
        </mxCell>
        <mxCell id="e9jaqMYBT050itdwWHnv-16" value="+ next() : boolean&lt;div&gt;+ absolute( index ) : boolean&lt;br&gt;&lt;div&gt;+ getString(index) : String&lt;/div&gt;&lt;div&gt;+ getInt(index) : Int&lt;/div&gt;&lt;div&gt;+ getLong(&lt;span style=&quot;background-color: initial;&quot;&gt;index) : Long&lt;/span&gt;&lt;/div&gt;&lt;/div&gt;" style="text;strokeColor=none;fillColor=none;align=left;verticalAlign=top;spacingLeft=4;spacingRight=4;overflow=hidden;rotatable=0;points=[[0,0.5],[1,0.5]];portConstraint=eastwest;whiteSpace=wrap;html=1;" vertex="1" parent="e9jaqMYBT050itdwWHnv-13">
          <mxGeometry y="60" width="210" height="90" as="geometry" />
        </mxCell>
        <mxCell id="cjxOpN9RyACSfWOMtMyr-27" style="edgeStyle=orthogonalEdgeStyle;rounded=0;orthogonalLoop=1;jettySize=auto;html=1;endArrow=block;endFill=0;" edge="1" parent="1" source="cjxOpN9RyACSfWOMtMyr-1" target="VixRsfz9ijs23XiR2vSf-1">
          <mxGeometry relative="1" as="geometry">
            <Array as="points">
              <mxPoint x="-4220" y="5010" />
              <mxPoint x="-4220" y="4785" />
            </Array>
          </mxGeometry>
        </mxCell>
        <mxCell id="KDvF2EU61VTkryO-VuTe-8" style="edgeStyle=orthogonalEdgeStyle;rounded=0;orthogonalLoop=1;jettySize=auto;html=1;dashed=1;endArrow=open;endFill=0;" edge="1" parent="1" source="cjxOpN9RyACSfWOMtMyr-1" target="VixRsfz9ijs23XiR2vSf-10">
          <mxGeometry relative="1" as="geometry">
            <Array as="points">
              <mxPoint x="-4240" y="5020" />
              <mxPoint x="-4240" y="4960" />
            </Array>
          </mxGeometry>
        </mxCell>
        <mxCell id="KDvF2EU61VTkryO-VuTe-13" style="edgeStyle=orthogonalEdgeStyle;rounded=0;orthogonalLoop=1;jettySize=auto;html=1;dashed=1;endArrow=open;endFill=0;" edge="1" parent="1" source="cjxOpN9RyACSfWOMtMyr-1" target="VixRsfz9ijs23XiR2vSf-6">
          <mxGeometry relative="1" as="geometry">
            <Array as="points">
              <mxPoint x="-4250" y="5030" />
              <mxPoint x="-4250" y="5140" />
            </Array>
          </mxGeometry>
        </mxCell>
        <mxCell id="KDvF2EU61VTkryO-VuTe-29" style="edgeStyle=orthogonalEdgeStyle;rounded=0;orthogonalLoop=1;jettySize=auto;html=1;dashed=1;endArrow=open;endFill=0;" edge="1" parent="1" source="cjxOpN9RyACSfWOMtMyr-1" target="VixRsfz9ijs23XiR2vSf-2">
          <mxGeometry relative="1" as="geometry">
            <Array as="points">
              <mxPoint x="-4260" y="5040" />
              <mxPoint x="-4260" y="5283" />
            </Array>
          </mxGeometry>
        </mxCell>
        <mxCell id="KDvF2EU61VTkryO-VuTe-35" style="edgeStyle=orthogonalEdgeStyle;rounded=0;orthogonalLoop=1;jettySize=auto;html=1;dashed=1;endArrow=open;endFill=0;" edge="1" parent="1" source="cjxOpN9RyACSfWOMtMyr-1" target="KDvF2EU61VTkryO-VuTe-30">
          <mxGeometry relative="1" as="geometry" />
        </mxCell>
        <mxCell id="KDvF2EU61VTkryO-VuTe-37" style="edgeStyle=orthogonalEdgeStyle;rounded=0;orthogonalLoop=1;jettySize=auto;html=1;dashed=1;endArrow=open;endFill=0;" edge="1" parent="1" source="cjxOpN9RyACSfWOMtMyr-1" target="LdTzc5Ds4XPBmI84upQB-4">
          <mxGeometry relative="1" as="geometry">
            <Array as="points">
              <mxPoint x="-4150" y="5000" />
              <mxPoint x="-4150" y="4730" />
              <mxPoint x="-3595" y="4730" />
            </Array>
          </mxGeometry>
        </mxCell>
        <mxCell id="KDvF2EU61VTkryO-VuTe-38" style="edgeStyle=orthogonalEdgeStyle;rounded=0;orthogonalLoop=1;jettySize=auto;html=1;dashed=1;endArrow=open;endFill=0;" edge="1" parent="1" source="cjxOpN9RyACSfWOMtMyr-1" target="deTkrduqZjmsCe11_WvL-1">
          <mxGeometry relative="1" as="geometry">
            <Array as="points">
              <mxPoint x="-4310" y="5010" />
              <mxPoint x="-4310" y="5060" />
            </Array>
          </mxGeometry>
        </mxCell>
        <mxCell id="cjxOpN9RyACSfWOMtMyr-1" value="AddBoard_Controller" style="swimlane;fontStyle=1;align=center;verticalAlign=top;childLayout=stackLayout;horizontal=1;startSize=26;horizontalStack=0;resizeParent=1;resizeParentMax=0;resizeLast=0;collapsible=1;marginBottom=0;whiteSpace=wrap;html=1;" vertex="1" parent="1">
          <mxGeometry x="-4830" y="4960" width="450" height="100" as="geometry" />
        </mxCell>
        <mxCell id="cjxOpN9RyACSfWOMtMyr-3" value="+ field: type" style="text;strokeColor=none;fillColor=none;align=left;verticalAlign=top;spacingLeft=4;spacingRight=4;overflow=hidden;rotatable=0;points=[[0,0.5],[1,0.5]];portConstraint=eastwest;whiteSpace=wrap;html=1;" vertex="1" parent="cjxOpN9RyACSfWOMtMyr-1">
          <mxGeometry y="26" width="450" height="26" as="geometry" />
        </mxCell>
        <mxCell id="cjxOpN9RyACSfWOMtMyr-4" value="" style="line;strokeWidth=1;fillColor=none;align=left;verticalAlign=middle;spacingTop=-1;spacingLeft=3;spacingRight=3;rotatable=0;labelPosition=right;points=[];portConstraint=eastwest;strokeColor=inherit;" vertex="1" parent="cjxOpN9RyACSfWOMtMyr-1">
          <mxGeometry y="52" width="450" height="8" as="geometry" />
        </mxCell>
        <mxCell id="cjxOpN9RyACSfWOMtMyr-5" value="&lt;span style=&quot;text-wrap-mode: nowrap;&quot;&gt;#doget( request : HttpServletRequest, response : HttpServletResponse ) : void&lt;/span&gt;&lt;div style=&quot;text-wrap-mode: nowrap;&quot;&gt;#doPost(&amp;nbsp;&lt;span style=&quot;background-color: initial;&quot;&gt;request : HttpServletRequest, response : HttpServletResponse ) : void&lt;/span&gt;&lt;/div&gt;" style="text;strokeColor=none;fillColor=none;align=left;verticalAlign=top;spacingLeft=4;spacingRight=4;overflow=hidden;rotatable=0;points=[[0,0.5],[1,0.5]];portConstraint=eastwest;whiteSpace=wrap;html=1;" vertex="1" parent="cjxOpN9RyACSfWOMtMyr-1">
          <mxGeometry y="60" width="450" height="40" as="geometry" />
        </mxCell>
        <mxCell id="cjxOpN9RyACSfWOMtMyr-28" style="edgeStyle=orthogonalEdgeStyle;rounded=0;orthogonalLoop=1;jettySize=auto;html=1;endArrow=block;endFill=0;" edge="1" parent="1" source="cjxOpN9RyACSfWOMtMyr-6" target="VixRsfz9ijs23XiR2vSf-1">
          <mxGeometry relative="1" as="geometry">
            <Array as="points">
              <mxPoint x="-4220" y="5160" />
              <mxPoint x="-4220" y="4785" />
            </Array>
          </mxGeometry>
        </mxCell>
        <mxCell id="KDvF2EU61VTkryO-VuTe-9" style="edgeStyle=orthogonalEdgeStyle;rounded=0;orthogonalLoop=1;jettySize=auto;html=1;dashed=1;endArrow=open;endFill=0;" edge="1" parent="1" source="cjxOpN9RyACSfWOMtMyr-6" target="VixRsfz9ijs23XiR2vSf-10">
          <mxGeometry relative="1" as="geometry">
            <Array as="points">
              <mxPoint x="-4240" y="5170" />
              <mxPoint x="-4240" y="4955" />
            </Array>
          </mxGeometry>
        </mxCell>
        <mxCell id="KDvF2EU61VTkryO-VuTe-14" style="edgeStyle=orthogonalEdgeStyle;rounded=0;orthogonalLoop=1;jettySize=auto;html=1;dashed=1;endArrow=open;endFill=0;" edge="1" parent="1" source="cjxOpN9RyACSfWOMtMyr-6" target="VixRsfz9ijs23XiR2vSf-6">
          <mxGeometry relative="1" as="geometry">
            <Array as="points">
              <mxPoint x="-4250" y="5180" />
              <mxPoint x="-4250" y="5140" />
            </Array>
          </mxGeometry>
        </mxCell>
        <mxCell id="KDvF2EU61VTkryO-VuTe-39" style="edgeStyle=orthogonalEdgeStyle;rounded=0;orthogonalLoop=1;jettySize=auto;html=1;dashed=1;endArrow=open;endFill=0;" edge="1" parent="1" source="cjxOpN9RyACSfWOMtMyr-6" target="VixRsfz9ijs23XiR2vSf-2">
          <mxGeometry relative="1" as="geometry">
            <Array as="points">
              <mxPoint x="-4260" y="5190" />
              <mxPoint x="-4260" y="5283" />
            </Array>
          </mxGeometry>
        </mxCell>
        <mxCell id="KDvF2EU61VTkryO-VuTe-40" style="edgeStyle=orthogonalEdgeStyle;rounded=0;orthogonalLoop=1;jettySize=auto;html=1;dashed=1;endArrow=open;endFill=0;" edge="1" parent="1" source="cjxOpN9RyACSfWOMtMyr-6" target="deTkrduqZjmsCe11_WvL-1">
          <mxGeometry relative="1" as="geometry">
            <Array as="points">
              <mxPoint x="-4310" y="5150" />
              <mxPoint x="-4310" y="5060" />
            </Array>
          </mxGeometry>
        </mxCell>
        <mxCell id="KDvF2EU61VTkryO-VuTe-41" style="edgeStyle=orthogonalEdgeStyle;rounded=0;orthogonalLoop=1;jettySize=auto;html=1;dashed=1;endArrow=open;endFill=0;" edge="1" parent="1" source="cjxOpN9RyACSfWOMtMyr-6" target="KDvF2EU61VTkryO-VuTe-30">
          <mxGeometry relative="1" as="geometry" />
        </mxCell>
        <mxCell id="KDvF2EU61VTkryO-VuTe-42" style="edgeStyle=orthogonalEdgeStyle;rounded=0;orthogonalLoop=1;jettySize=auto;html=1;dashed=1;endArrow=open;endFill=0;" edge="1" parent="1" source="cjxOpN9RyACSfWOMtMyr-6" target="LdTzc5Ds4XPBmI84upQB-4">
          <mxGeometry relative="1" as="geometry">
            <Array as="points">
              <mxPoint x="-4150" y="5160" />
              <mxPoint x="-4150" y="4730" />
              <mxPoint x="-3595" y="4730" />
            </Array>
          </mxGeometry>
        </mxCell>
        <mxCell id="cjxOpN9RyACSfWOMtMyr-6" value="UpdateBoard_Controller" style="swimlane;fontStyle=1;align=center;verticalAlign=top;childLayout=stackLayout;horizontal=1;startSize=26;horizontalStack=0;resizeParent=1;resizeParentMax=0;resizeLast=0;collapsible=1;marginBottom=0;whiteSpace=wrap;html=1;" vertex="1" parent="1">
          <mxGeometry x="-4830" y="5110" width="450" height="100" as="geometry" />
        </mxCell>
        <mxCell id="cjxOpN9RyACSfWOMtMyr-7" value="+ field: type" style="text;strokeColor=none;fillColor=none;align=left;verticalAlign=top;spacingLeft=4;spacingRight=4;overflow=hidden;rotatable=0;points=[[0,0.5],[1,0.5]];portConstraint=eastwest;whiteSpace=wrap;html=1;" vertex="1" parent="cjxOpN9RyACSfWOMtMyr-6">
          <mxGeometry y="26" width="450" height="26" as="geometry" />
        </mxCell>
        <mxCell id="cjxOpN9RyACSfWOMtMyr-8" value="" style="line;strokeWidth=1;fillColor=none;align=left;verticalAlign=middle;spacingTop=-1;spacingLeft=3;spacingRight=3;rotatable=0;labelPosition=right;points=[];portConstraint=eastwest;strokeColor=inherit;" vertex="1" parent="cjxOpN9RyACSfWOMtMyr-6">
          <mxGeometry y="52" width="450" height="8" as="geometry" />
        </mxCell>
        <mxCell id="cjxOpN9RyACSfWOMtMyr-9" value="&lt;span style=&quot;text-wrap-mode: nowrap;&quot;&gt;#doget( request : HttpServletRequest, response : HttpServletResponse ) : void&lt;/span&gt;&lt;div style=&quot;text-wrap-mode: nowrap;&quot;&gt;#doPost(&amp;nbsp;&lt;span style=&quot;background-color: initial;&quot;&gt;request : HttpServletRequest, response : HttpServletResponse ) : void&lt;/span&gt;&lt;/div&gt;" style="text;strokeColor=none;fillColor=none;align=left;verticalAlign=top;spacingLeft=4;spacingRight=4;overflow=hidden;rotatable=0;points=[[0,0.5],[1,0.5]];portConstraint=eastwest;whiteSpace=wrap;html=1;" vertex="1" parent="cjxOpN9RyACSfWOMtMyr-6">
          <mxGeometry y="60" width="450" height="40" as="geometry" />
        </mxCell>
        <mxCell id="cjxOpN9RyACSfWOMtMyr-25" style="edgeStyle=orthogonalEdgeStyle;rounded=0;orthogonalLoop=1;jettySize=auto;html=1;endArrow=block;endFill=0;" edge="1" parent="1" source="cjxOpN9RyACSfWOMtMyr-10" target="VixRsfz9ijs23XiR2vSf-1">
          <mxGeometry relative="1" as="geometry" />
        </mxCell>
        <mxCell id="KDvF2EU61VTkryO-VuTe-7" style="edgeStyle=orthogonalEdgeStyle;rounded=0;orthogonalLoop=1;jettySize=auto;html=1;dashed=1;endArrow=open;endFill=0;" edge="1" parent="1" source="cjxOpN9RyACSfWOMtMyr-10" target="VixRsfz9ijs23XiR2vSf-10">
          <mxGeometry relative="1" as="geometry">
            <Array as="points">
              <mxPoint x="-4240" y="4890" />
              <mxPoint x="-4240" y="4960" />
            </Array>
          </mxGeometry>
        </mxCell>
        <mxCell id="KDvF2EU61VTkryO-VuTe-12" style="edgeStyle=orthogonalEdgeStyle;rounded=0;orthogonalLoop=1;jettySize=auto;html=1;dashed=1;endArrow=open;endFill=0;" edge="1" parent="1" source="cjxOpN9RyACSfWOMtMyr-10" target="VixRsfz9ijs23XiR2vSf-6">
          <mxGeometry relative="1" as="geometry">
            <Array as="points">
              <mxPoint x="-4250" y="4900" />
              <mxPoint x="-4250" y="5140" />
            </Array>
          </mxGeometry>
        </mxCell>
        <mxCell id="KDvF2EU61VTkryO-VuTe-24" style="edgeStyle=orthogonalEdgeStyle;rounded=0;orthogonalLoop=1;jettySize=auto;html=1;dashed=1;endArrow=open;endFill=0;" edge="1" parent="1" source="cjxOpN9RyACSfWOMtMyr-10" target="LdTzc5Ds4XPBmI84upQB-4">
          <mxGeometry relative="1" as="geometry">
            <Array as="points">
              <mxPoint x="-4150" y="4870" />
              <mxPoint x="-4150" y="4730" />
              <mxPoint x="-3595" y="4730" />
            </Array>
          </mxGeometry>
        </mxCell>
        <mxCell id="KDvF2EU61VTkryO-VuTe-26" style="edgeStyle=orthogonalEdgeStyle;rounded=0;orthogonalLoop=1;jettySize=auto;html=1;" edge="1" parent="1" source="cjxOpN9RyACSfWOMtMyr-10" target="VixRsfz9ijs23XiR2vSf-2">
          <mxGeometry relative="1" as="geometry">
            <Array as="points">
              <mxPoint x="-4260" y="4910" />
              <mxPoint x="-4260" y="5283" />
            </Array>
          </mxGeometry>
        </mxCell>
        <mxCell id="KDvF2EU61VTkryO-VuTe-27" style="edgeStyle=orthogonalEdgeStyle;rounded=0;orthogonalLoop=1;jettySize=auto;html=1;dashed=1;endArrow=open;endFill=0;" edge="1" parent="1" source="cjxOpN9RyACSfWOMtMyr-10" target="deTkrduqZjmsCe11_WvL-2">
          <mxGeometry relative="1" as="geometry">
            <Array as="points">
              <mxPoint x="-4310" y="4920" />
              <mxPoint x="-4310" y="5060" />
            </Array>
          </mxGeometry>
        </mxCell>
        <mxCell id="cjxOpN9RyACSfWOMtMyr-10" value="ReadOneBoard_Controller" style="swimlane;fontStyle=1;align=center;verticalAlign=top;childLayout=stackLayout;horizontal=1;startSize=26;horizontalStack=0;resizeParent=1;resizeParentMax=0;resizeLast=0;collapsible=1;marginBottom=0;whiteSpace=wrap;html=1;" vertex="1" parent="1">
          <mxGeometry x="-4830" y="4835" width="450" height="100" as="geometry" />
        </mxCell>
        <mxCell id="cjxOpN9RyACSfWOMtMyr-11" value="+ field: type" style="text;strokeColor=none;fillColor=none;align=left;verticalAlign=top;spacingLeft=4;spacingRight=4;overflow=hidden;rotatable=0;points=[[0,0.5],[1,0.5]];portConstraint=eastwest;whiteSpace=wrap;html=1;" vertex="1" parent="cjxOpN9RyACSfWOMtMyr-10">
          <mxGeometry y="26" width="450" height="26" as="geometry" />
        </mxCell>
        <mxCell id="cjxOpN9RyACSfWOMtMyr-12" value="" style="line;strokeWidth=1;fillColor=none;align=left;verticalAlign=middle;spacingTop=-1;spacingLeft=3;spacingRight=3;rotatable=0;labelPosition=right;points=[];portConstraint=eastwest;strokeColor=inherit;" vertex="1" parent="cjxOpN9RyACSfWOMtMyr-10">
          <mxGeometry y="52" width="450" height="8" as="geometry" />
        </mxCell>
        <mxCell id="cjxOpN9RyACSfWOMtMyr-13" value="&lt;span style=&quot;text-wrap-mode: nowrap;&quot;&gt;#doget( request : HttpServletRequest, response : HttpServletResponse ) : void&lt;/span&gt;&lt;div style=&quot;text-wrap-mode: nowrap;&quot;&gt;#doPost(&amp;nbsp;&lt;span style=&quot;background-color: initial;&quot;&gt;request : HttpServletRequest, response : HttpServletResponse ) : void&lt;/span&gt;&lt;/div&gt;" style="text;strokeColor=none;fillColor=none;align=left;verticalAlign=top;spacingLeft=4;spacingRight=4;overflow=hidden;rotatable=0;points=[[0,0.5],[1,0.5]];portConstraint=eastwest;whiteSpace=wrap;html=1;" vertex="1" parent="cjxOpN9RyACSfWOMtMyr-10">
          <mxGeometry y="60" width="450" height="40" as="geometry" />
        </mxCell>
        <mxCell id="cjxOpN9RyACSfWOMtMyr-26" style="edgeStyle=orthogonalEdgeStyle;rounded=0;orthogonalLoop=1;jettySize=auto;html=1;endArrow=block;endFill=0;" edge="1" parent="1" source="cjxOpN9RyACSfWOMtMyr-14" target="VixRsfz9ijs23XiR2vSf-1">
          <mxGeometry relative="1" as="geometry" />
        </mxCell>
        <mxCell id="KDvF2EU61VTkryO-VuTe-5" style="edgeStyle=orthogonalEdgeStyle;rounded=0;orthogonalLoop=1;jettySize=auto;html=1;dashed=1;" edge="1" parent="1" source="cjxOpN9RyACSfWOMtMyr-14" target="KDvF2EU61VTkryO-VuTe-1">
          <mxGeometry relative="1" as="geometry">
            <Array as="points">
              <mxPoint x="-4140" y="4720" />
            </Array>
          </mxGeometry>
        </mxCell>
        <mxCell id="KDvF2EU61VTkryO-VuTe-6" style="edgeStyle=orthogonalEdgeStyle;rounded=0;orthogonalLoop=1;jettySize=auto;html=1;dashed=1;endArrow=open;endFill=0;" edge="1" parent="1" source="cjxOpN9RyACSfWOMtMyr-14" target="VixRsfz9ijs23XiR2vSf-10">
          <mxGeometry relative="1" as="geometry">
            <Array as="points">
              <mxPoint x="-4240" y="4770" />
              <mxPoint x="-4240" y="4960" />
            </Array>
          </mxGeometry>
        </mxCell>
        <mxCell id="KDvF2EU61VTkryO-VuTe-11" style="edgeStyle=orthogonalEdgeStyle;rounded=0;orthogonalLoop=1;jettySize=auto;html=1;dashed=1;endArrow=open;endFill=0;" edge="1" parent="1" source="cjxOpN9RyACSfWOMtMyr-14" target="VixRsfz9ijs23XiR2vSf-6">
          <mxGeometry relative="1" as="geometry">
            <Array as="points">
              <mxPoint x="-4250" y="4780" />
              <mxPoint x="-4250" y="5140" />
            </Array>
          </mxGeometry>
        </mxCell>
        <mxCell id="KDvF2EU61VTkryO-VuTe-16" style="edgeStyle=orthogonalEdgeStyle;rounded=0;orthogonalLoop=1;jettySize=auto;html=1;dashed=1;" edge="1" parent="1" source="cjxOpN9RyACSfWOMtMyr-14" target="LdTzc5Ds4XPBmI84upQB-1">
          <mxGeometry relative="1" as="geometry">
            <Array as="points">
              <mxPoint x="-3760" y="4730" />
              <mxPoint x="-3760" y="4730" />
            </Array>
          </mxGeometry>
        </mxCell>
        <mxCell id="KDvF2EU61VTkryO-VuTe-25" style="edgeStyle=orthogonalEdgeStyle;rounded=0;orthogonalLoop=1;jettySize=auto;html=1;dashed=1;endArrow=open;endFill=0;" edge="1" parent="1" source="cjxOpN9RyACSfWOMtMyr-14" target="VixRsfz9ijs23XiR2vSf-2">
          <mxGeometry relative="1" as="geometry">
            <Array as="points">
              <mxPoint x="-4260" y="4790" />
              <mxPoint x="-4260" y="5283" />
            </Array>
          </mxGeometry>
        </mxCell>
        <mxCell id="cjxOpN9RyACSfWOMtMyr-14" value="ReadAllBoard_Controller" style="swimlane;fontStyle=1;align=center;verticalAlign=top;childLayout=stackLayout;horizontal=1;startSize=26;horizontalStack=0;resizeParent=1;resizeParentMax=0;resizeLast=0;collapsible=1;marginBottom=0;whiteSpace=wrap;html=1;" vertex="1" parent="1">
          <mxGeometry x="-4830" y="4710" width="450" height="100" as="geometry" />
        </mxCell>
        <mxCell id="cjxOpN9RyACSfWOMtMyr-15" value="+ field: type" style="text;strokeColor=none;fillColor=none;align=left;verticalAlign=top;spacingLeft=4;spacingRight=4;overflow=hidden;rotatable=0;points=[[0,0.5],[1,0.5]];portConstraint=eastwest;whiteSpace=wrap;html=1;" vertex="1" parent="cjxOpN9RyACSfWOMtMyr-14">
          <mxGeometry y="26" width="450" height="26" as="geometry" />
        </mxCell>
        <mxCell id="cjxOpN9RyACSfWOMtMyr-16" value="" style="line;strokeWidth=1;fillColor=none;align=left;verticalAlign=middle;spacingTop=-1;spacingLeft=3;spacingRight=3;rotatable=0;labelPosition=right;points=[];portConstraint=eastwest;strokeColor=inherit;" vertex="1" parent="cjxOpN9RyACSfWOMtMyr-14">
          <mxGeometry y="52" width="450" height="8" as="geometry" />
        </mxCell>
        <mxCell id="cjxOpN9RyACSfWOMtMyr-17" value="&lt;span style=&quot;text-wrap-mode: nowrap;&quot;&gt;#doget( request : HttpServletRequest, response : HttpServletResponse ) : void&lt;/span&gt;&lt;div style=&quot;text-wrap-mode: nowrap;&quot;&gt;#doPost(&amp;nbsp;&lt;span style=&quot;background-color: initial;&quot;&gt;request : HttpServletRequest, response : HttpServletResponse ) : void&lt;/span&gt;&lt;/div&gt;" style="text;strokeColor=none;fillColor=none;align=left;verticalAlign=top;spacingLeft=4;spacingRight=4;overflow=hidden;rotatable=0;points=[[0,0.5],[1,0.5]];portConstraint=eastwest;whiteSpace=wrap;html=1;" vertex="1" parent="cjxOpN9RyACSfWOMtMyr-14">
          <mxGeometry y="60" width="450" height="40" as="geometry" />
        </mxCell>
        <mxCell id="cjxOpN9RyACSfWOMtMyr-29" style="edgeStyle=orthogonalEdgeStyle;rounded=0;orthogonalLoop=1;jettySize=auto;html=1;endArrow=block;endFill=0;" edge="1" parent="1" source="cjxOpN9RyACSfWOMtMyr-18" target="VixRsfz9ijs23XiR2vSf-1">
          <mxGeometry relative="1" as="geometry">
            <Array as="points">
              <mxPoint x="-4220" y="5313" />
              <mxPoint x="-4220" y="4785" />
            </Array>
          </mxGeometry>
        </mxCell>
        <mxCell id="KDvF2EU61VTkryO-VuTe-10" style="edgeStyle=orthogonalEdgeStyle;rounded=0;orthogonalLoop=1;jettySize=auto;html=1;dashed=1;endArrow=open;endFill=0;" edge="1" parent="1" source="cjxOpN9RyACSfWOMtMyr-18" target="VixRsfz9ijs23XiR2vSf-10">
          <mxGeometry relative="1" as="geometry">
            <Array as="points">
              <mxPoint x="-4240" y="5320" />
              <mxPoint x="-4240" y="4955" />
            </Array>
          </mxGeometry>
        </mxCell>
        <mxCell id="KDvF2EU61VTkryO-VuTe-15" style="edgeStyle=orthogonalEdgeStyle;rounded=0;orthogonalLoop=1;jettySize=auto;html=1;dashed=1;endArrow=open;endFill=0;" edge="1" parent="1" source="cjxOpN9RyACSfWOMtMyr-18" target="VixRsfz9ijs23XiR2vSf-6">
          <mxGeometry relative="1" as="geometry">
            <Array as="points">
              <mxPoint x="-4250" y="5330" />
              <mxPoint x="-4250" y="5140" />
            </Array>
          </mxGeometry>
        </mxCell>
        <mxCell id="KDvF2EU61VTkryO-VuTe-43" style="edgeStyle=orthogonalEdgeStyle;rounded=0;orthogonalLoop=1;jettySize=auto;html=1;dashed=1;endArrow=open;endFill=0;" edge="1" parent="1" source="cjxOpN9RyACSfWOMtMyr-18" target="VixRsfz9ijs23XiR2vSf-2">
          <mxGeometry relative="1" as="geometry">
            <Array as="points">
              <mxPoint x="-4260" y="5340" />
              <mxPoint x="-4260" y="5283" />
            </Array>
          </mxGeometry>
        </mxCell>
        <mxCell id="KDvF2EU61VTkryO-VuTe-44" style="edgeStyle=orthogonalEdgeStyle;rounded=0;orthogonalLoop=1;jettySize=auto;html=1;dashed=1;endArrow=open;endFill=0;" edge="1" parent="1" source="cjxOpN9RyACSfWOMtMyr-18" target="deTkrduqZjmsCe11_WvL-1">
          <mxGeometry relative="1" as="geometry">
            <Array as="points">
              <mxPoint x="-4310" y="5300" />
              <mxPoint x="-4310" y="5060" />
            </Array>
          </mxGeometry>
        </mxCell>
        <mxCell id="KDvF2EU61VTkryO-VuTe-45" style="edgeStyle=orthogonalEdgeStyle;rounded=0;orthogonalLoop=1;jettySize=auto;html=1;dashed=1;endArrow=open;endFill=0;" edge="1" parent="1" source="cjxOpN9RyACSfWOMtMyr-18" target="LdTzc5Ds4XPBmI84upQB-1">
          <mxGeometry relative="1" as="geometry">
            <Array as="points">
              <mxPoint x="-4150" y="5270" />
              <mxPoint x="-4150" y="4505" />
            </Array>
          </mxGeometry>
        </mxCell>
        <mxCell id="cjxOpN9RyACSfWOMtMyr-18" value="DeleteBoard_Controller" style="swimlane;fontStyle=1;align=center;verticalAlign=top;childLayout=stackLayout;horizontal=1;startSize=26;horizontalStack=0;resizeParent=1;resizeParentMax=0;resizeLast=0;collapsible=1;marginBottom=0;whiteSpace=wrap;html=1;" vertex="1" parent="1">
          <mxGeometry x="-4830" y="5263" width="450" height="100" as="geometry" />
        </mxCell>
        <mxCell id="cjxOpN9RyACSfWOMtMyr-19" value="+ field: type" style="text;strokeColor=none;fillColor=none;align=left;verticalAlign=top;spacingLeft=4;spacingRight=4;overflow=hidden;rotatable=0;points=[[0,0.5],[1,0.5]];portConstraint=eastwest;whiteSpace=wrap;html=1;" vertex="1" parent="cjxOpN9RyACSfWOMtMyr-18">
          <mxGeometry y="26" width="450" height="26" as="geometry" />
        </mxCell>
        <mxCell id="cjxOpN9RyACSfWOMtMyr-20" value="" style="line;strokeWidth=1;fillColor=none;align=left;verticalAlign=middle;spacingTop=-1;spacingLeft=3;spacingRight=3;rotatable=0;labelPosition=right;points=[];portConstraint=eastwest;strokeColor=inherit;" vertex="1" parent="cjxOpN9RyACSfWOMtMyr-18">
          <mxGeometry y="52" width="450" height="8" as="geometry" />
        </mxCell>
        <mxCell id="cjxOpN9RyACSfWOMtMyr-21" value="&lt;span style=&quot;text-wrap-mode: nowrap;&quot;&gt;#doget( request : HttpServletRequest, response : HttpServletResponse ) : void&lt;/span&gt;&lt;div style=&quot;text-wrap-mode: nowrap;&quot;&gt;#doPost(&amp;nbsp;&lt;span style=&quot;background-color: initial;&quot;&gt;request : HttpServletRequest, response : HttpServletResponse ) : void&lt;/span&gt;&lt;/div&gt;" style="text;strokeColor=none;fillColor=none;align=left;verticalAlign=top;spacingLeft=4;spacingRight=4;overflow=hidden;rotatable=0;points=[[0,0.5],[1,0.5]];portConstraint=eastwest;whiteSpace=wrap;html=1;" vertex="1" parent="cjxOpN9RyACSfWOMtMyr-18">
          <mxGeometry y="60" width="450" height="40" as="geometry" />
        </mxCell>
        <mxCell id="KDvF2EU61VTkryO-VuTe-1" value="ArrayList" style="swimlane;fontStyle=1;align=center;verticalAlign=top;childLayout=stackLayout;horizontal=1;startSize=26;horizontalStack=0;resizeParent=1;resizeParentMax=0;resizeLast=0;collapsible=1;marginBottom=0;whiteSpace=wrap;html=1;" vertex="1" parent="1">
          <mxGeometry x="-4220" y="4510" width="160" height="90" as="geometry" />
        </mxCell>
        <mxCell id="KDvF2EU61VTkryO-VuTe-2" value="+ field: type" style="text;strokeColor=none;fillColor=none;align=left;verticalAlign=top;spacingLeft=4;spacingRight=4;overflow=hidden;rotatable=0;points=[[0,0.5],[1,0.5]];portConstraint=eastwest;whiteSpace=wrap;html=1;" vertex="1" parent="KDvF2EU61VTkryO-VuTe-1">
          <mxGeometry y="26" width="160" height="26" as="geometry" />
        </mxCell>
        <mxCell id="KDvF2EU61VTkryO-VuTe-3" value="" style="line;strokeWidth=1;fillColor=none;align=left;verticalAlign=middle;spacingTop=-1;spacingLeft=3;spacingRight=3;rotatable=0;labelPosition=right;points=[];portConstraint=eastwest;strokeColor=inherit;" vertex="1" parent="KDvF2EU61VTkryO-VuTe-1">
          <mxGeometry y="52" width="160" height="8" as="geometry" />
        </mxCell>
        <mxCell id="KDvF2EU61VTkryO-VuTe-4" value="&lt;div&gt;+ method&lt;/div&gt;" style="text;strokeColor=none;fillColor=none;align=left;verticalAlign=top;spacingLeft=4;spacingRight=4;overflow=hidden;rotatable=0;points=[[0,0.5],[1,0.5]];portConstraint=eastwest;whiteSpace=wrap;html=1;" vertex="1" parent="KDvF2EU61VTkryO-VuTe-1">
          <mxGeometry y="60" width="160" height="30" as="geometry" />
        </mxCell>
        <mxCell id="KDvF2EU61VTkryO-VuTe-30" value="SimpleDateFormat" style="swimlane;fontStyle=0;childLayout=stackLayout;horizontal=1;startSize=26;fillColor=none;horizontalStack=0;resizeParent=1;resizeParentMax=0;resizeLast=0;collapsible=1;marginBottom=0;whiteSpace=wrap;html=1;" vertex="1" parent="1">
          <mxGeometry x="-5150" y="4984" width="140" height="56" as="geometry" />
        </mxCell>
        <mxCell id="KDvF2EU61VTkryO-VuTe-36" value="+ format() : Date" style="text;html=1;align=center;verticalAlign=middle;resizable=0;points=[];autosize=1;strokeColor=none;fillColor=none;" vertex="1" parent="KDvF2EU61VTkryO-VuTe-30">
          <mxGeometry y="26" width="140" height="30" as="geometry" />
        </mxCell>
      </root>
    </mxGraphModel>
  </diagram>
</mxfile>
